G04 (created by PCBNEW-RS274X (2012-01-19 BZR 3256)-stable) date Mon 27 Feb 2012 04:05:37 GMT*
G01*
G70*
G90*
%MOIN*%
G04 Gerber Fmt 3.4, Leading zero omitted, Abs format*
%FSLAX34Y34*%
G04 APERTURE LIST*
%ADD10C,0.006000*%
%ADD11C,0.015000*%
%ADD12C,0.009900*%
%ADD13C,0.007900*%
%ADD14R,0.033800X0.033800*%
%ADD15R,0.060200X0.073100*%
%ADD16R,0.057400X0.047600*%
%ADD17R,0.060200X0.057400*%
%ADD18R,0.086100X0.040500*%
%ADD19R,0.031800X0.059400*%
%ADD20C,0.059400*%
%ADD21R,0.059400X0.031800*%
%ADD22R,0.037700X0.031800*%
%ADD23R,0.063300X0.043600*%
%ADD24R,0.043600X0.063300*%
%ADD25R,0.070000X0.070000*%
%ADD26R,0.216900X0.059400*%
%ADD27R,0.216900X0.067200*%
%ADD28R,0.065300X0.077100*%
%ADD29R,0.059400X0.059400*%
%ADD30R,0.044400X0.044400*%
%ADD31R,0.098700X0.043600*%
%ADD32R,0.102700X0.035700*%
%ADD33C,0.098700*%
%ADD34R,0.090900X0.051500*%
%ADD35R,0.037700X0.077100*%
%ADD36R,0.075100X0.035700*%
%ADD37R,0.075100X0.083000*%
%ADD38R,0.071200X0.110600*%
%ADD39R,0.094800X0.090900*%
%ADD40R,0.031800X0.067200*%
%ADD41R,0.067200X0.031800*%
%ADD42R,0.153900X0.079100*%
%ADD43R,0.157800X0.059400*%
%ADD44R,0.060000X0.140000*%
%ADD45C,0.067200*%
%ADD46C,0.106600*%
%ADD47R,0.039700X0.039700*%
%ADD48R,0.114500X0.049900*%
%ADD49R,0.031000X0.048000*%
%ADD50C,0.031000*%
%ADD51R,0.114500X0.085000*%
%ADD52R,0.047600X0.031000*%
G04 APERTURE END LIST*
G54D10*
G54D11*
X74705Y-52165D02*
X74705Y-52559D01*
X74508Y-52362D02*
X74902Y-52362D01*
G54D12*
X71897Y-46377D02*
X71878Y-46433D01*
X71859Y-46452D01*
X71822Y-46471D01*
X71766Y-46471D01*
X71728Y-46452D01*
X71709Y-46433D01*
X71691Y-46396D01*
X71691Y-46246D01*
X72085Y-46246D01*
X72085Y-46377D01*
X72066Y-46415D01*
X72047Y-46433D01*
X72009Y-46452D01*
X71972Y-46452D01*
X71934Y-46433D01*
X71916Y-46415D01*
X71897Y-46377D01*
X71897Y-46246D01*
X71691Y-46865D02*
X71878Y-46734D01*
X71691Y-46640D02*
X72085Y-46640D01*
X72085Y-46790D01*
X72066Y-46827D01*
X72047Y-46846D01*
X72009Y-46865D01*
X71953Y-46865D01*
X71916Y-46846D01*
X71897Y-46827D01*
X71878Y-46790D01*
X71878Y-46640D01*
X71691Y-47034D02*
X72085Y-47034D01*
X71691Y-47259D01*
X72085Y-47259D01*
X78689Y-46326D02*
X78670Y-46382D01*
X78651Y-46401D01*
X78614Y-46420D01*
X78558Y-46420D01*
X78520Y-46401D01*
X78501Y-46382D01*
X78483Y-46345D01*
X78483Y-46195D01*
X78877Y-46195D01*
X78877Y-46326D01*
X78858Y-46364D01*
X78839Y-46382D01*
X78801Y-46401D01*
X78764Y-46401D01*
X78726Y-46382D01*
X78708Y-46364D01*
X78689Y-46326D01*
X78689Y-46195D01*
X78483Y-46776D02*
X78483Y-46589D01*
X78877Y-46589D01*
X78483Y-46908D02*
X78877Y-46908D01*
X78483Y-47133D02*
X78708Y-46964D01*
X78877Y-47133D02*
X78651Y-46908D01*
G54D13*
X67262Y-41699D02*
X67247Y-41744D01*
X67232Y-41759D01*
X67202Y-41774D01*
X67157Y-41774D01*
X67127Y-41759D01*
X67112Y-41744D01*
X67097Y-41714D01*
X67097Y-41594D01*
X67412Y-41594D01*
X67412Y-41699D01*
X67397Y-41729D01*
X67382Y-41744D01*
X67352Y-41759D01*
X67322Y-41759D01*
X67292Y-41744D01*
X67277Y-41729D01*
X67262Y-41699D01*
X67262Y-41594D01*
X67412Y-41969D02*
X67412Y-42029D01*
X67397Y-42059D01*
X67367Y-42089D01*
X67307Y-42104D01*
X67202Y-42104D01*
X67142Y-42089D01*
X67112Y-42059D01*
X67097Y-42029D01*
X67097Y-41969D01*
X67112Y-41939D01*
X67142Y-41909D01*
X67202Y-41894D01*
X67307Y-41894D01*
X67367Y-41909D01*
X67397Y-41939D01*
X67412Y-41969D01*
X67412Y-42299D02*
X67412Y-42359D01*
X67397Y-42389D01*
X67367Y-42419D01*
X67307Y-42434D01*
X67202Y-42434D01*
X67142Y-42419D01*
X67112Y-42389D01*
X67097Y-42359D01*
X67097Y-42299D01*
X67112Y-42269D01*
X67142Y-42239D01*
X67202Y-42224D01*
X67307Y-42224D01*
X67367Y-42239D01*
X67397Y-42269D01*
X67412Y-42299D01*
X67412Y-42524D02*
X67412Y-42704D01*
X67097Y-42614D02*
X67412Y-42614D01*
X67097Y-38519D02*
X67247Y-38414D01*
X67097Y-38339D02*
X67412Y-38339D01*
X67412Y-38459D01*
X67397Y-38489D01*
X67382Y-38504D01*
X67352Y-38519D01*
X67307Y-38519D01*
X67277Y-38504D01*
X67262Y-38489D01*
X67247Y-38459D01*
X67247Y-38339D01*
X67262Y-38654D02*
X67262Y-38759D01*
X67097Y-38804D02*
X67097Y-38654D01*
X67412Y-38654D01*
X67412Y-38804D01*
X67112Y-38924D02*
X67097Y-38969D01*
X67097Y-39044D01*
X67112Y-39074D01*
X67127Y-39089D01*
X67157Y-39104D01*
X67187Y-39104D01*
X67217Y-39089D01*
X67232Y-39074D01*
X67247Y-39044D01*
X67262Y-38984D01*
X67277Y-38954D01*
X67292Y-38939D01*
X67322Y-38924D01*
X67352Y-38924D01*
X67382Y-38939D01*
X67397Y-38954D01*
X67412Y-38984D01*
X67412Y-39059D01*
X67397Y-39104D01*
X67262Y-39239D02*
X67262Y-39344D01*
X67097Y-39389D02*
X67097Y-39239D01*
X67412Y-39239D01*
X67412Y-39389D01*
X67412Y-39479D02*
X67412Y-39659D01*
X67097Y-39569D02*
X67412Y-39569D01*
G54D11*
X79724Y-54823D02*
X79724Y-55217D01*
X79528Y-54331D02*
X79921Y-54331D01*
X79724Y-54134D02*
X79724Y-54528D01*
X81004Y-51378D02*
X81004Y-51772D01*
X80807Y-50394D02*
X81201Y-50394D01*
X81004Y-50197D02*
X81004Y-50591D01*
X71670Y-52599D02*
X71668Y-52609D01*
X71665Y-52619D01*
X71660Y-52629D01*
X71654Y-52637D01*
X71645Y-52644D01*
X71636Y-52649D01*
X71626Y-52652D01*
X71615Y-52653D01*
X71605Y-52653D01*
X71595Y-52649D01*
X71585Y-52645D01*
X71577Y-52638D01*
X71570Y-52630D01*
X71565Y-52620D01*
X71562Y-52610D01*
X71561Y-52599D01*
X71561Y-52590D01*
X71564Y-52579D01*
X71569Y-52570D01*
X71576Y-52561D01*
X71584Y-52554D01*
X71593Y-52549D01*
X71604Y-52546D01*
X71614Y-52545D01*
X71624Y-52545D01*
X71634Y-52548D01*
X71644Y-52553D01*
X71652Y-52560D01*
X71659Y-52568D01*
X71665Y-52577D01*
X71668Y-52587D01*
X71669Y-52598D01*
X71670Y-52599D01*
X68643Y-54351D02*
X68643Y-52205D01*
X71772Y-54351D02*
X71772Y-52205D01*
X81693Y-45984D02*
X81692Y-45991D01*
X81690Y-45998D01*
X81686Y-46005D01*
X81681Y-46011D01*
X81675Y-46016D01*
X81669Y-46019D01*
X81661Y-46022D01*
X81654Y-46022D01*
X81647Y-46022D01*
X81640Y-46020D01*
X81633Y-46016D01*
X81627Y-46011D01*
X81622Y-46006D01*
X81619Y-45999D01*
X81616Y-45992D01*
X81616Y-45984D01*
X81616Y-45977D01*
X81618Y-45970D01*
X81622Y-45963D01*
X81626Y-45957D01*
X81632Y-45952D01*
X81639Y-45949D01*
X81646Y-45946D01*
X81654Y-45946D01*
X81660Y-45946D01*
X81668Y-45948D01*
X81674Y-45952D01*
X81680Y-45956D01*
X81685Y-45962D01*
X81689Y-45969D01*
X81692Y-45976D01*
X81692Y-45983D01*
X81693Y-45984D01*
X67755Y-44961D02*
X67754Y-44968D01*
X67752Y-44975D01*
X67748Y-44982D01*
X67743Y-44988D01*
X67737Y-44993D01*
X67731Y-44996D01*
X67723Y-44999D01*
X67716Y-44999D01*
X67709Y-44999D01*
X67702Y-44997D01*
X67695Y-44993D01*
X67689Y-44988D01*
X67684Y-44983D01*
X67681Y-44976D01*
X67678Y-44969D01*
X67678Y-44961D01*
X67678Y-44954D01*
X67680Y-44947D01*
X67684Y-44940D01*
X67688Y-44934D01*
X67694Y-44929D01*
X67701Y-44926D01*
X67708Y-44923D01*
X67716Y-44923D01*
X67722Y-44923D01*
X67730Y-44925D01*
X67736Y-44929D01*
X67742Y-44933D01*
X67747Y-44939D01*
X67751Y-44946D01*
X67754Y-44953D01*
X67754Y-44960D01*
X67755Y-44961D01*
X73819Y-42992D02*
X73818Y-42999D01*
X73815Y-43007D01*
X73812Y-43014D01*
X73807Y-43020D01*
X73801Y-43025D01*
X73794Y-43028D01*
X73787Y-43031D01*
X73779Y-43031D01*
X73772Y-43031D01*
X73765Y-43029D01*
X73758Y-43025D01*
X73752Y-43020D01*
X73746Y-43014D01*
X73743Y-43007D01*
X73740Y-43000D01*
X73740Y-42992D01*
X73740Y-42985D01*
X73742Y-42978D01*
X73746Y-42971D01*
X73751Y-42965D01*
X73757Y-42960D01*
X73763Y-42956D01*
X73771Y-42953D01*
X73779Y-42953D01*
X73785Y-42953D01*
X73793Y-42955D01*
X73800Y-42959D01*
X73806Y-42964D01*
X73811Y-42969D01*
X73815Y-42976D01*
X73818Y-42984D01*
X73818Y-42991D01*
X73819Y-42992D01*
X79174Y-53543D02*
X79173Y-53550D01*
X79170Y-53558D01*
X79167Y-53565D01*
X79162Y-53571D01*
X79156Y-53576D01*
X79149Y-53579D01*
X79142Y-53582D01*
X79134Y-53582D01*
X79127Y-53582D01*
X79120Y-53580D01*
X79113Y-53576D01*
X79107Y-53571D01*
X79101Y-53565D01*
X79098Y-53558D01*
X79095Y-53551D01*
X79095Y-53543D01*
X79095Y-53536D01*
X79097Y-53529D01*
X79101Y-53522D01*
X79106Y-53516D01*
X79112Y-53511D01*
X79118Y-53507D01*
X79126Y-53504D01*
X79134Y-53504D01*
X79140Y-53504D01*
X79148Y-53506D01*
X79155Y-53510D01*
X79161Y-53515D01*
X79166Y-53520D01*
X79170Y-53527D01*
X79173Y-53535D01*
X79173Y-53542D01*
X79174Y-53543D01*
X79961Y-46771D02*
X79960Y-46778D01*
X79957Y-46786D01*
X79954Y-46793D01*
X79949Y-46799D01*
X79943Y-46804D01*
X79936Y-46807D01*
X79929Y-46810D01*
X79921Y-46810D01*
X79914Y-46810D01*
X79907Y-46808D01*
X79900Y-46804D01*
X79894Y-46799D01*
X79888Y-46793D01*
X79885Y-46786D01*
X79882Y-46779D01*
X79882Y-46771D01*
X79882Y-46764D01*
X79884Y-46757D01*
X79888Y-46750D01*
X79893Y-46744D01*
X79899Y-46739D01*
X79905Y-46735D01*
X79913Y-46732D01*
X79921Y-46732D01*
X79927Y-46732D01*
X79935Y-46734D01*
X79942Y-46738D01*
X79948Y-46743D01*
X79953Y-46748D01*
X79957Y-46755D01*
X79960Y-46763D01*
X79960Y-46770D01*
X79961Y-46771D01*
X82953Y-44016D02*
X82952Y-44023D01*
X82949Y-44031D01*
X82946Y-44038D01*
X82941Y-44044D01*
X82935Y-44049D01*
X82928Y-44052D01*
X82921Y-44055D01*
X82913Y-44055D01*
X82906Y-44055D01*
X82899Y-44053D01*
X82892Y-44049D01*
X82886Y-44044D01*
X82880Y-44038D01*
X82877Y-44031D01*
X82874Y-44024D01*
X82874Y-44016D01*
X82874Y-44009D01*
X82876Y-44002D01*
X82880Y-43995D01*
X82885Y-43989D01*
X82891Y-43984D01*
X82897Y-43980D01*
X82905Y-43977D01*
X82913Y-43977D01*
X82919Y-43977D01*
X82927Y-43979D01*
X82934Y-43983D01*
X82940Y-43988D01*
X82945Y-43993D01*
X82949Y-44000D01*
X82952Y-44008D01*
X82952Y-44015D01*
X82953Y-44016D01*
X74094Y-53977D02*
X74093Y-53984D01*
X74091Y-53991D01*
X74087Y-53998D01*
X74082Y-54004D01*
X74076Y-54009D01*
X74070Y-54012D01*
X74062Y-54015D01*
X74055Y-54015D01*
X74048Y-54015D01*
X74041Y-54013D01*
X74034Y-54009D01*
X74028Y-54004D01*
X74023Y-53999D01*
X74020Y-53992D01*
X74017Y-53985D01*
X74017Y-53977D01*
X74017Y-53970D01*
X74019Y-53963D01*
X74023Y-53956D01*
X74027Y-53950D01*
X74033Y-53945D01*
X74040Y-53942D01*
X74047Y-53939D01*
X74055Y-53939D01*
X74061Y-53939D01*
X74069Y-53941D01*
X74075Y-53945D01*
X74081Y-53949D01*
X74086Y-53955D01*
X74090Y-53962D01*
X74093Y-53969D01*
X74093Y-53976D01*
X74094Y-53977D01*
X66316Y-38780D02*
X66308Y-38852D01*
X66288Y-38921D01*
X66254Y-38985D01*
X66208Y-39041D01*
X66152Y-39087D01*
X66088Y-39122D01*
X66019Y-39143D01*
X65947Y-39150D01*
X65876Y-39144D01*
X65807Y-39123D01*
X65742Y-39090D01*
X65686Y-39045D01*
X65639Y-38989D01*
X65605Y-38926D01*
X65583Y-38857D01*
X65575Y-38785D01*
X65581Y-38714D01*
X65601Y-38644D01*
X65634Y-38580D01*
X65679Y-38523D01*
X65734Y-38476D01*
X65797Y-38441D01*
X65866Y-38418D01*
X65938Y-38410D01*
X66009Y-38415D01*
X66079Y-38435D01*
X66143Y-38467D01*
X66200Y-38512D01*
X66248Y-38567D01*
X66283Y-38630D01*
X66306Y-38698D01*
X66315Y-38770D01*
X66316Y-38780D01*
X66063Y-37796D02*
X65827Y-37796D01*
X66063Y-39764D02*
X65827Y-39764D01*
X66929Y-39764D02*
X66929Y-37796D01*
X64961Y-39764D02*
X64961Y-37796D01*
X66316Y-41732D02*
X66308Y-41804D01*
X66288Y-41873D01*
X66254Y-41937D01*
X66208Y-41993D01*
X66152Y-42039D01*
X66088Y-42074D01*
X66019Y-42095D01*
X65947Y-42102D01*
X65876Y-42096D01*
X65807Y-42075D01*
X65742Y-42042D01*
X65686Y-41997D01*
X65639Y-41941D01*
X65605Y-41878D01*
X65583Y-41809D01*
X65575Y-41737D01*
X65581Y-41666D01*
X65601Y-41596D01*
X65634Y-41532D01*
X65679Y-41475D01*
X65734Y-41428D01*
X65797Y-41393D01*
X65866Y-41370D01*
X65938Y-41362D01*
X66009Y-41367D01*
X66079Y-41387D01*
X66143Y-41419D01*
X66200Y-41464D01*
X66248Y-41519D01*
X66283Y-41582D01*
X66306Y-41650D01*
X66315Y-41722D01*
X66316Y-41732D01*
X66063Y-40748D02*
X65827Y-40748D01*
X66063Y-42716D02*
X65827Y-42716D01*
X66929Y-42716D02*
X66929Y-40748D01*
X64961Y-42716D02*
X64961Y-40748D01*
X64941Y-56280D02*
X64941Y-57323D01*
X64941Y-52244D02*
X64941Y-51142D01*
X64941Y-56240D02*
X64941Y-56260D01*
X64941Y-56260D02*
X66752Y-56260D01*
X64941Y-56181D02*
X64941Y-56221D01*
X64941Y-56221D02*
X64941Y-56240D01*
X60591Y-55394D02*
X64941Y-55394D01*
X64941Y-52283D02*
X64941Y-52244D01*
X64941Y-52244D02*
X66752Y-52244D01*
X60591Y-55394D02*
X60591Y-53110D01*
X64921Y-53110D02*
X60591Y-53110D01*
X64941Y-52303D02*
X64941Y-56181D01*
X84252Y-40551D02*
X84252Y-40473D01*
X84252Y-37402D02*
X84252Y-39055D01*
X82874Y-42126D02*
X83543Y-41299D01*
X84252Y-42126D02*
X82874Y-42126D01*
X84252Y-37402D02*
X82874Y-37402D01*
X82874Y-37402D02*
X84252Y-38504D01*
X84252Y-41969D02*
X84252Y-42126D01*
X83543Y-41260D02*
X83546Y-41321D01*
X83554Y-41383D01*
X83568Y-41443D01*
X83586Y-41502D01*
X83610Y-41559D01*
X83638Y-41614D01*
X83672Y-41666D01*
X83709Y-41715D01*
X83751Y-41761D01*
X83797Y-41803D01*
X83846Y-41840D01*
X83898Y-41874D01*
X83953Y-41902D01*
X84010Y-41926D01*
X84069Y-41944D01*
X84129Y-41958D01*
X84191Y-41966D01*
X84252Y-41969D01*
X84252Y-40551D02*
X84191Y-40554D01*
X84129Y-40562D01*
X84069Y-40576D01*
X84010Y-40594D01*
X83953Y-40618D01*
X83898Y-40646D01*
X83846Y-40680D01*
X83797Y-40717D01*
X83751Y-40759D01*
X83709Y-40805D01*
X83672Y-40854D01*
X83638Y-40906D01*
X83610Y-40961D01*
X83586Y-41018D01*
X83568Y-41077D01*
X83554Y-41137D01*
X83546Y-41199D01*
X83543Y-41260D01*
X71772Y-38858D02*
X71772Y-38700D01*
X71772Y-39330D02*
X71772Y-39173D01*
X72402Y-39173D02*
X72402Y-39330D01*
X72402Y-38700D02*
X72402Y-38858D01*
X77913Y-50906D02*
X77864Y-51403D01*
X77719Y-51881D01*
X77485Y-52322D01*
X77169Y-52709D01*
X76784Y-53027D01*
X76345Y-53265D01*
X75868Y-53412D01*
X75371Y-53464D01*
X74875Y-53419D01*
X74396Y-53278D01*
X73953Y-53047D01*
X73564Y-52734D01*
X73243Y-52351D01*
X73002Y-51914D01*
X72851Y-51438D01*
X72796Y-50941D01*
X72838Y-50445D01*
X72975Y-49964D01*
X73203Y-49520D01*
X73514Y-49129D01*
X73894Y-48805D01*
X74330Y-48562D01*
X74805Y-48407D01*
X75301Y-48348D01*
X75798Y-48386D01*
X76279Y-48521D01*
X76725Y-48746D01*
X77118Y-49053D01*
X77445Y-49431D01*
X77691Y-49866D01*
X77849Y-50340D01*
X77912Y-50835D01*
X77913Y-50906D01*
X75945Y-38582D02*
X80748Y-38582D01*
X80748Y-38582D02*
X80748Y-38701D01*
X75945Y-38582D02*
X75945Y-38701D01*
X75945Y-41614D02*
X75945Y-40984D01*
X80748Y-41614D02*
X80748Y-40984D01*
X75945Y-44882D02*
X80748Y-44882D01*
X80748Y-44882D02*
X80748Y-44764D01*
X75945Y-44882D02*
X75945Y-44764D01*
X74429Y-39607D02*
X74980Y-39607D01*
X75197Y-40552D02*
X74429Y-40552D01*
X74429Y-40552D02*
X74429Y-39607D01*
X75197Y-39902D02*
X75197Y-40552D01*
X75236Y-39685D02*
X75235Y-39692D01*
X75233Y-39699D01*
X75229Y-39706D01*
X75224Y-39712D01*
X75218Y-39717D01*
X75212Y-39720D01*
X75204Y-39723D01*
X75197Y-39723D01*
X75190Y-39723D01*
X75183Y-39721D01*
X75176Y-39717D01*
X75170Y-39712D01*
X75165Y-39707D01*
X75162Y-39700D01*
X75159Y-39693D01*
X75159Y-39685D01*
X75159Y-39678D01*
X75161Y-39671D01*
X75165Y-39664D01*
X75169Y-39658D01*
X75175Y-39653D01*
X75182Y-39650D01*
X75189Y-39647D01*
X75197Y-39647D01*
X75203Y-39647D01*
X75211Y-39649D01*
X75217Y-39653D01*
X75223Y-39657D01*
X75228Y-39663D01*
X75232Y-39670D01*
X75235Y-39677D01*
X75235Y-39684D01*
X75236Y-39685D01*
X64508Y-46969D02*
X64705Y-46772D01*
X64508Y-43661D02*
X64705Y-43858D01*
X64685Y-45315D02*
X64685Y-43839D01*
X64685Y-43839D02*
X64961Y-43839D01*
X64685Y-45315D02*
X64685Y-46791D01*
X64685Y-46791D02*
X64961Y-46791D01*
X66122Y-46791D02*
X65886Y-46791D01*
X66122Y-44114D02*
X65886Y-44114D01*
X66732Y-44626D02*
X66732Y-44429D01*
X66732Y-46201D02*
X66732Y-46004D01*
X64961Y-47480D02*
X64961Y-43150D01*
X84665Y-45511D02*
X84468Y-45708D01*
X84665Y-48819D02*
X84468Y-48622D01*
X84488Y-47165D02*
X84488Y-48641D01*
X84488Y-48641D02*
X84212Y-48641D01*
X84488Y-47165D02*
X84488Y-45689D01*
X84488Y-45689D02*
X84212Y-45689D01*
X83051Y-45689D02*
X83287Y-45689D01*
X83051Y-48366D02*
X83287Y-48366D01*
X82441Y-47854D02*
X82441Y-48051D01*
X82441Y-46279D02*
X82441Y-46476D01*
X84212Y-45000D02*
X84212Y-49330D01*
X68641Y-44665D02*
X68051Y-44665D01*
X68051Y-44665D02*
X68051Y-44074D01*
X72578Y-44074D02*
X72578Y-44665D01*
X72578Y-44665D02*
X71988Y-44665D01*
X68681Y-40137D02*
X68051Y-40137D01*
X68051Y-40137D02*
X68051Y-40728D01*
X72578Y-40728D02*
X72578Y-40137D01*
X72578Y-40137D02*
X71988Y-40137D01*
X71830Y-40609D02*
X71829Y-40616D01*
X71827Y-40623D01*
X71823Y-40630D01*
X71818Y-40636D01*
X71812Y-40641D01*
X71806Y-40644D01*
X71798Y-40647D01*
X71791Y-40647D01*
X71784Y-40647D01*
X71777Y-40645D01*
X71770Y-40641D01*
X71764Y-40636D01*
X71759Y-40631D01*
X71756Y-40624D01*
X71753Y-40617D01*
X71753Y-40609D01*
X71753Y-40602D01*
X71755Y-40595D01*
X71759Y-40588D01*
X71763Y-40582D01*
X71769Y-40577D01*
X71776Y-40574D01*
X71783Y-40571D01*
X71791Y-40571D01*
X71797Y-40571D01*
X71805Y-40573D01*
X71811Y-40577D01*
X71817Y-40581D01*
X71822Y-40587D01*
X71826Y-40594D01*
X71829Y-40601D01*
X71829Y-40608D01*
X71830Y-40609D01*
X78295Y-46232D02*
X78295Y-47232D01*
X78295Y-47232D02*
X72295Y-47232D01*
X72295Y-47232D02*
X72295Y-46232D01*
X72295Y-46232D02*
X78295Y-46232D01*
X66575Y-51732D02*
X67283Y-51732D01*
X67795Y-47972D02*
X67795Y-51240D01*
X66496Y-47480D02*
X67303Y-47480D01*
X66063Y-51240D02*
X66063Y-47952D01*
X67303Y-51732D02*
X67345Y-51730D01*
X67388Y-51724D01*
X67430Y-51715D01*
X67471Y-51702D01*
X67510Y-51685D01*
X67549Y-51666D01*
X67585Y-51643D01*
X67619Y-51616D01*
X67650Y-51587D01*
X67679Y-51556D01*
X67706Y-51522D01*
X67729Y-51485D01*
X67748Y-51447D01*
X67765Y-51408D01*
X67778Y-51367D01*
X67787Y-51325D01*
X67793Y-51282D01*
X67795Y-51240D01*
X66063Y-51240D02*
X66065Y-51282D01*
X66071Y-51325D01*
X66080Y-51367D01*
X66093Y-51408D01*
X66110Y-51447D01*
X66129Y-51485D01*
X66152Y-51522D01*
X66179Y-51556D01*
X66208Y-51587D01*
X66239Y-51616D01*
X66273Y-51643D01*
X66310Y-51666D01*
X66348Y-51685D01*
X66387Y-51702D01*
X66428Y-51715D01*
X66470Y-51724D01*
X66513Y-51730D01*
X66555Y-51732D01*
X67795Y-47972D02*
X67793Y-47930D01*
X67787Y-47887D01*
X67778Y-47845D01*
X67765Y-47804D01*
X67748Y-47765D01*
X67729Y-47727D01*
X67706Y-47690D01*
X67679Y-47656D01*
X67650Y-47625D01*
X67619Y-47596D01*
X67585Y-47569D01*
X67549Y-47546D01*
X67510Y-47527D01*
X67471Y-47510D01*
X67430Y-47497D01*
X67388Y-47488D01*
X67345Y-47482D01*
X67303Y-47480D01*
X66535Y-47480D02*
X66494Y-47482D01*
X66454Y-47488D01*
X66413Y-47497D01*
X66374Y-47509D01*
X66336Y-47525D01*
X66300Y-47544D01*
X66265Y-47566D01*
X66232Y-47591D01*
X66202Y-47619D01*
X66174Y-47649D01*
X66149Y-47682D01*
X66127Y-47717D01*
X66108Y-47753D01*
X66092Y-47791D01*
X66080Y-47830D01*
X66071Y-47871D01*
X66065Y-47911D01*
X66063Y-47952D01*
X77933Y-55118D02*
X77933Y-56496D01*
X77933Y-56496D02*
X75177Y-56496D01*
X75177Y-56496D02*
X75177Y-53740D01*
X75177Y-53740D02*
X77933Y-53740D01*
X77933Y-53740D02*
X77933Y-55118D01*
X82835Y-52421D02*
X81457Y-52421D01*
X81457Y-52421D02*
X81457Y-49665D01*
X81457Y-49665D02*
X84213Y-49665D01*
X84213Y-49665D02*
X84213Y-52421D01*
X84213Y-52421D02*
X82835Y-52421D01*
X69273Y-46540D02*
X69271Y-46559D01*
X69265Y-46578D01*
X69256Y-46595D01*
X69243Y-46610D01*
X69228Y-46622D01*
X69211Y-46632D01*
X69193Y-46637D01*
X69173Y-46639D01*
X69155Y-46638D01*
X69136Y-46632D01*
X69119Y-46623D01*
X69104Y-46611D01*
X69091Y-46596D01*
X69082Y-46579D01*
X69076Y-46560D01*
X69074Y-46541D01*
X69075Y-46522D01*
X69081Y-46504D01*
X69089Y-46486D01*
X69102Y-46471D01*
X69116Y-46458D01*
X69133Y-46449D01*
X69152Y-46443D01*
X69171Y-46441D01*
X69190Y-46442D01*
X69209Y-46447D01*
X69226Y-46456D01*
X69241Y-46468D01*
X69254Y-46483D01*
X69264Y-46500D01*
X69270Y-46518D01*
X69272Y-46538D01*
X69273Y-46540D01*
X69173Y-49240D02*
X70723Y-49240D01*
X69173Y-46540D02*
X70723Y-46540D01*
X79016Y-50080D02*
X79014Y-50095D01*
X79010Y-50110D01*
X79002Y-50123D01*
X78993Y-50135D01*
X78981Y-50145D01*
X78967Y-50152D01*
X78952Y-50157D01*
X78937Y-50158D01*
X78923Y-50157D01*
X78908Y-50153D01*
X78894Y-50146D01*
X78882Y-50136D01*
X78872Y-50124D01*
X78865Y-50111D01*
X78860Y-50096D01*
X78859Y-50081D01*
X78860Y-50066D01*
X78864Y-50051D01*
X78871Y-50038D01*
X78881Y-50026D01*
X78892Y-50016D01*
X78906Y-50008D01*
X78921Y-50003D01*
X78936Y-50002D01*
X78950Y-50003D01*
X78965Y-50007D01*
X78979Y-50014D01*
X78991Y-50023D01*
X79001Y-50035D01*
X79009Y-50048D01*
X79014Y-50063D01*
X79015Y-50078D01*
X79016Y-50080D01*
X78937Y-48820D02*
X78937Y-49174D01*
X78937Y-48820D02*
X79016Y-48820D01*
X78937Y-50080D02*
X78937Y-49726D01*
X78937Y-50080D02*
X79016Y-50080D01*
X80197Y-49765D02*
X80197Y-49726D01*
X80197Y-50080D02*
X80197Y-49765D01*
X80197Y-50080D02*
X80118Y-50080D01*
X80197Y-48820D02*
X80197Y-49174D01*
X80197Y-48820D02*
X80118Y-48820D01*
%LPC*%
G54D12*
X79776Y-56047D02*
X79738Y-56065D01*
X79663Y-56065D01*
X79626Y-56047D01*
X79607Y-56028D01*
X79588Y-55990D01*
X79588Y-55878D01*
X79607Y-55840D01*
X79626Y-55822D01*
X79663Y-55803D01*
X79738Y-55803D01*
X79776Y-55822D01*
X80114Y-55803D02*
X80114Y-56065D01*
X79945Y-55803D02*
X79945Y-56009D01*
X79964Y-56047D01*
X80001Y-56065D01*
X80057Y-56065D01*
X80095Y-56047D01*
X80114Y-56028D01*
X80282Y-56047D02*
X80320Y-56065D01*
X80395Y-56065D01*
X80432Y-56047D01*
X80451Y-56009D01*
X80451Y-55990D01*
X80432Y-55953D01*
X80395Y-55934D01*
X80338Y-55934D01*
X80301Y-55915D01*
X80282Y-55878D01*
X80282Y-55859D01*
X80301Y-55822D01*
X80338Y-55803D01*
X80395Y-55803D01*
X80432Y-55822D01*
X80564Y-55803D02*
X80714Y-55803D01*
X80620Y-56065D02*
X80620Y-55728D01*
X80639Y-55690D01*
X80676Y-55671D01*
X80714Y-55671D01*
X80845Y-56028D02*
X80864Y-56047D01*
X80845Y-56065D01*
X80826Y-56047D01*
X80845Y-56028D01*
X80845Y-56065D01*
X81202Y-56047D02*
X81164Y-56065D01*
X81089Y-56065D01*
X81052Y-56047D01*
X81033Y-56028D01*
X81014Y-55990D01*
X81014Y-55878D01*
X81033Y-55840D01*
X81052Y-55822D01*
X81089Y-55803D01*
X81164Y-55803D01*
X81202Y-55822D01*
X81427Y-56065D02*
X81390Y-56047D01*
X81371Y-56028D01*
X81352Y-55990D01*
X81352Y-55878D01*
X81371Y-55840D01*
X81390Y-55822D01*
X81427Y-55803D01*
X81483Y-55803D01*
X81521Y-55822D01*
X81540Y-55840D01*
X81558Y-55878D01*
X81558Y-55990D01*
X81540Y-56028D01*
X81521Y-56047D01*
X81483Y-56065D01*
X81427Y-56065D01*
X81727Y-56028D02*
X81746Y-56047D01*
X81727Y-56065D01*
X81708Y-56047D01*
X81727Y-56028D01*
X81727Y-56065D01*
X82084Y-55803D02*
X82084Y-56065D01*
X81915Y-55803D02*
X81915Y-56009D01*
X81934Y-56047D01*
X81971Y-56065D01*
X82027Y-56065D01*
X82065Y-56047D01*
X82084Y-56028D01*
X82271Y-56065D02*
X82271Y-55671D01*
X82308Y-55915D02*
X82421Y-56065D01*
X82421Y-55803D02*
X82271Y-55953D01*
X73599Y-37993D02*
X73693Y-38387D01*
X73768Y-38106D01*
X73843Y-38387D01*
X73937Y-37993D01*
X74162Y-37993D02*
X74237Y-37993D01*
X74274Y-38012D01*
X74312Y-38050D01*
X74331Y-38125D01*
X74331Y-38256D01*
X74312Y-38331D01*
X74274Y-38369D01*
X74237Y-38387D01*
X74162Y-38387D01*
X74124Y-38369D01*
X74087Y-38331D01*
X74068Y-38256D01*
X74068Y-38125D01*
X74087Y-38050D01*
X74124Y-38012D01*
X74162Y-37993D01*
X74500Y-38387D02*
X74500Y-37993D01*
X74631Y-38275D01*
X74762Y-37993D01*
X74762Y-38387D01*
X75081Y-38181D02*
X75137Y-38200D01*
X75156Y-38219D01*
X75175Y-38256D01*
X75175Y-38312D01*
X75156Y-38350D01*
X75137Y-38369D01*
X75100Y-38387D01*
X74950Y-38387D01*
X74950Y-37993D01*
X75081Y-37993D01*
X75119Y-38012D01*
X75137Y-38031D01*
X75156Y-38069D01*
X75156Y-38106D01*
X75137Y-38144D01*
X75119Y-38162D01*
X75081Y-38181D01*
X74950Y-38181D01*
X75325Y-38275D02*
X75513Y-38275D01*
X75288Y-38387D02*
X75419Y-37993D01*
X75550Y-38387D01*
X75626Y-37993D02*
X75851Y-37993D01*
X75738Y-38387D02*
X75738Y-37993D01*
X76282Y-38387D02*
X76282Y-38125D01*
X76282Y-38200D02*
X76301Y-38162D01*
X76319Y-38144D01*
X76357Y-38125D01*
X76394Y-38125D01*
X76732Y-38387D02*
X76507Y-38387D01*
X76620Y-38387D02*
X76620Y-37993D01*
X76582Y-38050D01*
X76545Y-38087D01*
X76507Y-38106D01*
X77201Y-38387D02*
X77201Y-37993D01*
X77201Y-38144D02*
X77238Y-38125D01*
X77313Y-38125D01*
X77351Y-38144D01*
X77370Y-38162D01*
X77388Y-38200D01*
X77388Y-38312D01*
X77370Y-38350D01*
X77351Y-38369D01*
X77313Y-38387D01*
X77238Y-38387D01*
X77201Y-38369D01*
X77519Y-38125D02*
X77613Y-38387D01*
X77707Y-38125D02*
X77613Y-38387D01*
X77576Y-38481D01*
X77557Y-38500D01*
X77519Y-38519D01*
X78382Y-38350D02*
X78363Y-38369D01*
X78307Y-38387D01*
X78269Y-38387D01*
X78213Y-38369D01*
X78176Y-38331D01*
X78157Y-38294D01*
X78138Y-38219D01*
X78138Y-38162D01*
X78157Y-38087D01*
X78176Y-38050D01*
X78213Y-38012D01*
X78269Y-37993D01*
X78307Y-37993D01*
X78363Y-38012D01*
X78382Y-38031D01*
X78551Y-37993D02*
X78551Y-38312D01*
X78570Y-38350D01*
X78588Y-38369D01*
X78626Y-38387D01*
X78701Y-38387D01*
X78738Y-38369D01*
X78757Y-38350D01*
X78776Y-38312D01*
X78776Y-37993D01*
X78945Y-38369D02*
X79001Y-38387D01*
X79095Y-38387D01*
X79133Y-38369D01*
X79151Y-38350D01*
X79170Y-38312D01*
X79170Y-38275D01*
X79151Y-38237D01*
X79133Y-38219D01*
X79095Y-38200D01*
X79020Y-38181D01*
X78983Y-38162D01*
X78964Y-38144D01*
X78945Y-38106D01*
X78945Y-38069D01*
X78964Y-38031D01*
X78983Y-38012D01*
X79020Y-37993D01*
X79114Y-37993D01*
X79170Y-38012D01*
X79470Y-38181D02*
X79339Y-38181D01*
X79339Y-38387D02*
X79339Y-37993D01*
X79526Y-37993D01*
X80052Y-37993D02*
X80089Y-37993D01*
X80127Y-38012D01*
X80146Y-38031D01*
X80164Y-38069D01*
X80183Y-38144D01*
X80183Y-38237D01*
X80164Y-38312D01*
X80146Y-38350D01*
X80127Y-38369D01*
X80089Y-38387D01*
X80052Y-38387D01*
X80014Y-38369D01*
X79996Y-38350D01*
X79977Y-38312D01*
X79958Y-38237D01*
X79958Y-38144D01*
X79977Y-38069D01*
X79996Y-38031D01*
X80014Y-38012D01*
X80052Y-37993D01*
X80333Y-38031D02*
X80352Y-38012D01*
X80389Y-37993D01*
X80483Y-37993D01*
X80521Y-38012D01*
X80539Y-38031D01*
X80558Y-38069D01*
X80558Y-38106D01*
X80539Y-38162D01*
X80314Y-38387D01*
X80558Y-38387D01*
X81008Y-37975D02*
X80671Y-38481D01*
X81346Y-38387D02*
X81121Y-38387D01*
X81234Y-38387D02*
X81234Y-37993D01*
X81196Y-38050D01*
X81159Y-38087D01*
X81121Y-38106D01*
X81496Y-38031D02*
X81515Y-38012D01*
X81552Y-37993D01*
X81646Y-37993D01*
X81684Y-38012D01*
X81702Y-38031D01*
X81721Y-38069D01*
X81721Y-38106D01*
X81702Y-38162D01*
X81477Y-38387D01*
X81721Y-38387D01*
G54D14*
X82992Y-39055D03*
X82992Y-39378D03*
X82992Y-39701D03*
X82602Y-39701D03*
X82212Y-39701D03*
X82212Y-39055D03*
X81425Y-39378D03*
G54D15*
X82604Y-39252D03*
G54D16*
X82216Y-39380D03*
G54D17*
X81829Y-39378D03*
G54D18*
X81699Y-39088D03*
X81699Y-39667D03*
G54D19*
X71615Y-52205D03*
X71359Y-52205D03*
X71103Y-52205D03*
X70848Y-52205D03*
X70592Y-52205D03*
X70336Y-52205D03*
X70080Y-52205D03*
X69824Y-52205D03*
X69568Y-52205D03*
X69313Y-52205D03*
X69057Y-52205D03*
X68801Y-52205D03*
X68800Y-54331D03*
X69056Y-54331D03*
X69312Y-54331D03*
X69567Y-54331D03*
X69823Y-54331D03*
X70079Y-54331D03*
X70335Y-54331D03*
X70591Y-54331D03*
X70847Y-54331D03*
X71103Y-54331D03*
X71359Y-54331D03*
X71615Y-54331D03*
G54D20*
X73701Y-53386D03*
X68583Y-50355D03*
X68977Y-50749D03*
X70473Y-50749D03*
X70118Y-50335D03*
X72283Y-47992D03*
X69764Y-50749D03*
X73563Y-42577D03*
X74035Y-42341D03*
X73268Y-45866D03*
X74252Y-47598D03*
X82441Y-44331D03*
X82441Y-41890D03*
X68268Y-53702D03*
X79449Y-45984D03*
X79724Y-51340D03*
X79449Y-54016D03*
X75276Y-43189D03*
X75000Y-42756D03*
X68268Y-54213D03*
X69371Y-50355D03*
G54D19*
X81654Y-46220D03*
X81851Y-46220D03*
X82048Y-46220D03*
X82048Y-45590D03*
X81851Y-45590D03*
X81654Y-45590D03*
G54D21*
X67480Y-44961D03*
X67480Y-45158D03*
X67480Y-45355D03*
X68110Y-45355D03*
X68110Y-45158D03*
X68110Y-44961D03*
G54D22*
X73592Y-42992D03*
X73592Y-43189D03*
X73592Y-43386D03*
X74124Y-43386D03*
X74124Y-43189D03*
X74124Y-42992D03*
G54D23*
X79449Y-53523D03*
X79449Y-53149D03*
X79449Y-52775D03*
X78347Y-52775D03*
X78347Y-53523D03*
G54D24*
X79941Y-47086D03*
X80315Y-47086D03*
X80689Y-47086D03*
X80689Y-45984D03*
X79941Y-45984D03*
X82933Y-44331D03*
X83307Y-44331D03*
X83681Y-44331D03*
X83681Y-43229D03*
X82933Y-43229D03*
G54D23*
X73720Y-53957D03*
X73720Y-54705D03*
X74626Y-54331D03*
G54D25*
X66445Y-39863D03*
X65445Y-39863D03*
X66445Y-37697D03*
X65445Y-37697D03*
X66445Y-42815D03*
X65445Y-42815D03*
X66445Y-40649D03*
X65445Y-40649D03*
G54D26*
X66063Y-54252D03*
G54D27*
X66063Y-55886D03*
X66063Y-52618D03*
G54D28*
X79764Y-50710D03*
X80472Y-50710D03*
G54D29*
X72992Y-45000D03*
X73622Y-45000D03*
X71300Y-55670D03*
X70670Y-55670D03*
X71024Y-51457D03*
X71024Y-50827D03*
X71102Y-38543D03*
X71102Y-37913D03*
X70551Y-38543D03*
X70551Y-37913D03*
X70000Y-38543D03*
X70000Y-37913D03*
X71614Y-45354D03*
X71614Y-45984D03*
X82992Y-42598D03*
X83622Y-42598D03*
X67244Y-43543D03*
X67244Y-44173D03*
X78661Y-54961D03*
X79291Y-54961D03*
X69449Y-38543D03*
X69449Y-37913D03*
X80236Y-54331D03*
X80236Y-54961D03*
X79213Y-52283D03*
X78583Y-52283D03*
X79173Y-51261D03*
X78543Y-51261D03*
X79173Y-50710D03*
X78543Y-50710D03*
X80748Y-50001D03*
X80748Y-49371D03*
X80080Y-52598D03*
X80080Y-53228D03*
G54D30*
X71201Y-54803D03*
X70847Y-54803D03*
X71575Y-55157D03*
X71575Y-54803D03*
X69272Y-54843D03*
X69626Y-54843D03*
X67717Y-54586D03*
X67717Y-54232D03*
X73622Y-43760D03*
X73622Y-44114D03*
X71201Y-55177D03*
X70847Y-55177D03*
X71478Y-51536D03*
X71832Y-51536D03*
X71478Y-51142D03*
X71832Y-51142D03*
X72126Y-54311D03*
X72126Y-53957D03*
X72126Y-53229D03*
X72126Y-53583D03*
X67323Y-54232D03*
X67323Y-54586D03*
X67697Y-54961D03*
X67343Y-54961D03*
X67717Y-55689D03*
X67717Y-55335D03*
X67697Y-56063D03*
X67343Y-56063D03*
X68110Y-55689D03*
X68110Y-56043D03*
X68524Y-55669D03*
X68878Y-55669D03*
X78327Y-53937D03*
X78681Y-53937D03*
X78543Y-50021D03*
X78543Y-49667D03*
X82894Y-44882D03*
X83248Y-44882D03*
X79902Y-47638D03*
X80256Y-47638D03*
X79902Y-45433D03*
X80256Y-45433D03*
X82205Y-38327D03*
X82205Y-38681D03*
X82205Y-40413D03*
X82205Y-40059D03*
X82205Y-41201D03*
X82205Y-40847D03*
X82598Y-38681D03*
X82598Y-38327D03*
X82598Y-40413D03*
X82598Y-40059D03*
X82992Y-40453D03*
X82992Y-40807D03*
X82598Y-40847D03*
X82598Y-41201D03*
X75295Y-41496D03*
X74941Y-41496D03*
X75354Y-44429D03*
X75354Y-44075D03*
X81398Y-41890D03*
X81752Y-41890D03*
X81398Y-42283D03*
X81752Y-42283D03*
X81398Y-42677D03*
X81752Y-42677D03*
X68563Y-46299D03*
X68209Y-46299D03*
X73228Y-43760D03*
X73228Y-44114D03*
X72067Y-45276D03*
X72421Y-45276D03*
X73189Y-40847D03*
X73189Y-41201D03*
X69213Y-39390D03*
X69213Y-39036D03*
X68819Y-39390D03*
X68819Y-39036D03*
X71949Y-47520D03*
X72303Y-47520D03*
X68563Y-45197D03*
X68563Y-45551D03*
X68209Y-45906D03*
X68563Y-45906D03*
X74961Y-44429D03*
X74961Y-44075D03*
X73150Y-54390D03*
X73150Y-54744D03*
X73150Y-53957D03*
X73150Y-53603D03*
X73563Y-41575D03*
X73209Y-41575D03*
X70787Y-39390D03*
X70787Y-39036D03*
X70394Y-39390D03*
X70394Y-39036D03*
X70000Y-39390D03*
X70000Y-39036D03*
X74823Y-55669D03*
X74469Y-55669D03*
X74823Y-55276D03*
X74469Y-55276D03*
X78327Y-54409D03*
X78681Y-54409D03*
X77303Y-53228D03*
X77657Y-53228D03*
X69606Y-39390D03*
X69606Y-39036D03*
X79350Y-48348D03*
X78996Y-48348D03*
X79784Y-48348D03*
X80138Y-48348D03*
X67146Y-42992D03*
X67500Y-42992D03*
X73169Y-42126D03*
X73523Y-42126D03*
X69862Y-55669D03*
X70216Y-55669D03*
X72127Y-52855D03*
X72127Y-52501D03*
X72520Y-52855D03*
X72520Y-52501D03*
X72520Y-53583D03*
X72520Y-53229D03*
X72146Y-52087D03*
X72500Y-52087D03*
X72520Y-53957D03*
X72520Y-54311D03*
X69371Y-51556D03*
X69371Y-51202D03*
X68977Y-51556D03*
X68977Y-51202D03*
X68583Y-51556D03*
X68583Y-51202D03*
X65748Y-49902D03*
X65748Y-50256D03*
X65748Y-49508D03*
X65748Y-49154D03*
X70552Y-51202D03*
X70552Y-51556D03*
X70158Y-51202D03*
X70158Y-51556D03*
X69764Y-51202D03*
X69764Y-51556D03*
X67795Y-53602D03*
X67795Y-53248D03*
X67402Y-53602D03*
X67402Y-53248D03*
X70769Y-49922D03*
X71123Y-49922D03*
X70769Y-50316D03*
X71123Y-50316D03*
X74488Y-43248D03*
X74488Y-43602D03*
X74488Y-42500D03*
X74488Y-42854D03*
X73228Y-43012D03*
X73228Y-43366D03*
X67520Y-41397D03*
X67520Y-41043D03*
X67460Y-44646D03*
X67106Y-44646D03*
G54D31*
X83858Y-40225D03*
X83858Y-39764D03*
X83858Y-39303D03*
G54D32*
X72087Y-38543D03*
X72087Y-39015D03*
X72087Y-39488D03*
G54D33*
X75354Y-51890D03*
X75354Y-49921D03*
G54D34*
X80708Y-44488D03*
X80708Y-44055D03*
X80708Y-43622D03*
X80708Y-43189D03*
X80708Y-42756D03*
X80708Y-42323D03*
X80708Y-41890D03*
X75984Y-41890D03*
X75984Y-42323D03*
X75984Y-42756D03*
X75984Y-43189D03*
X75984Y-43622D03*
X75984Y-44055D03*
X75984Y-44488D03*
X80708Y-40708D03*
X80708Y-40275D03*
X80708Y-39842D03*
X80708Y-39409D03*
X80708Y-38976D03*
X75984Y-38976D03*
X75984Y-39409D03*
X75984Y-39842D03*
X75984Y-40275D03*
X75984Y-40708D03*
G54D35*
X75197Y-39213D03*
X74941Y-39213D03*
X74685Y-39213D03*
X74429Y-39213D03*
X74429Y-40945D03*
X74685Y-40945D03*
X74941Y-40945D03*
X75197Y-40945D03*
G54D36*
X66575Y-44803D03*
X66575Y-45059D03*
X66575Y-45315D03*
X66575Y-45571D03*
X66575Y-45827D03*
G54D37*
X66496Y-44016D03*
X66496Y-46614D03*
G54D38*
X65532Y-46791D03*
X65532Y-43839D03*
G54D39*
X65532Y-45768D03*
X65532Y-44862D03*
G54D36*
X82598Y-47677D03*
X82598Y-47421D03*
X82598Y-47165D03*
X82598Y-46909D03*
X82598Y-46653D03*
G54D37*
X82677Y-48464D03*
X82677Y-45866D03*
G54D38*
X83641Y-45689D03*
X83641Y-48641D03*
G54D39*
X83641Y-46712D03*
X83641Y-47618D03*
G54D40*
X71791Y-40137D03*
X71594Y-40137D03*
X71397Y-40137D03*
X71200Y-40137D03*
X71004Y-40137D03*
X70807Y-40137D03*
X70610Y-40137D03*
X70413Y-40137D03*
X70216Y-40137D03*
X70019Y-40137D03*
X69822Y-40137D03*
X69626Y-40137D03*
X69429Y-40137D03*
X69232Y-40137D03*
X69035Y-40137D03*
X68838Y-40137D03*
X68838Y-44665D03*
X69035Y-44665D03*
X69232Y-44665D03*
X69429Y-44665D03*
X69626Y-44665D03*
X69822Y-44665D03*
X70019Y-44665D03*
X70216Y-44665D03*
X70413Y-44665D03*
X70610Y-44665D03*
X70807Y-44665D03*
X71004Y-44665D03*
X71200Y-44665D03*
X71397Y-44665D03*
X71594Y-44665D03*
X71791Y-44665D03*
G54D41*
X68051Y-40924D03*
X68051Y-41121D03*
X68051Y-41318D03*
X68051Y-41515D03*
X68051Y-41712D03*
X68051Y-41909D03*
X68051Y-42106D03*
X68051Y-42302D03*
X68051Y-42499D03*
X68051Y-42696D03*
X68051Y-42893D03*
X68051Y-43090D03*
X68051Y-43287D03*
X68051Y-43483D03*
X68051Y-43680D03*
X68051Y-43877D03*
X72579Y-43877D03*
X72579Y-43680D03*
X72579Y-43483D03*
X72579Y-43287D03*
X72579Y-43090D03*
X72579Y-42893D03*
X72579Y-42696D03*
X72579Y-42499D03*
X72579Y-42302D03*
X72579Y-42106D03*
X72579Y-41909D03*
X72579Y-41712D03*
X72579Y-41515D03*
X72579Y-41318D03*
X72579Y-41121D03*
X72579Y-40924D03*
G54D42*
X83543Y-53307D03*
X83543Y-55945D03*
G54D43*
X81358Y-54232D03*
X81358Y-55020D03*
G54D44*
X77795Y-46032D03*
X76795Y-47432D03*
X75795Y-46032D03*
X74795Y-47432D03*
X73795Y-46032D03*
X72795Y-47432D03*
G54D45*
X66929Y-50567D03*
X66929Y-48645D03*
G54D46*
X77244Y-55118D03*
X75866Y-55118D03*
X82835Y-51732D03*
X82835Y-50354D03*
G54D47*
X72047Y-45630D03*
X72047Y-45906D03*
X66732Y-43386D03*
X66456Y-43386D03*
G54D48*
X69173Y-46890D03*
X70708Y-46890D03*
X69173Y-47390D03*
X70708Y-47390D03*
X69173Y-47890D03*
X70708Y-47890D03*
X69173Y-48390D03*
X70708Y-48390D03*
X69173Y-48890D03*
X70708Y-48890D03*
G54D30*
X73189Y-40099D03*
X73189Y-40453D03*
X67854Y-39567D03*
X68208Y-39567D03*
X68957Y-38622D03*
X68603Y-38622D03*
G54D49*
X79173Y-50058D03*
X79370Y-50058D03*
X79567Y-50058D03*
X79764Y-50058D03*
X79961Y-50058D03*
X79961Y-48842D03*
X79764Y-48842D03*
X79567Y-48842D03*
X79370Y-48842D03*
X79173Y-48842D03*
G54D50*
X79173Y-49922D03*
X79370Y-49922D03*
X79567Y-49922D03*
X79764Y-49922D03*
X79961Y-49922D03*
X79961Y-48978D03*
X79764Y-48978D03*
X79567Y-48978D03*
X79370Y-48978D03*
X79173Y-48978D03*
G54D51*
X79567Y-49450D03*
G54D52*
X80177Y-49352D03*
X80177Y-49568D03*
X78957Y-49352D03*
X78957Y-49568D03*
M02*
