G04 (created by PCBNEW-RS274X (2012-01-19 BZR 3256)-stable) date Mon 27 Feb 2012 04:05:37 GMT*
G01*
G70*
G90*
%MOIN*%
G04 Gerber Fmt 3.4, Leading zero omitted, Abs format*
%FSLAX34Y34*%
G04 APERTURE LIST*
%ADD10C,0.006000*%
%ADD11R,0.013800X0.013800*%
%ADD12R,0.036200X0.048000*%
%ADD13R,0.033500X0.022400*%
%ADD14R,0.033500X0.033500*%
%ADD15R,0.059400X0.018700*%
%ADD16R,0.011800X0.039400*%
%ADD17C,0.039400*%
%ADD18R,0.039400X0.011800*%
%ADD19R,0.017700X0.011800*%
%ADD20R,0.043300X0.023600*%
%ADD21R,0.023600X0.043300*%
%ADD22R,0.050000X0.050000*%
%ADD23R,0.196900X0.039400*%
%ADD24R,0.196900X0.047200*%
%ADD25R,0.045300X0.057100*%
%ADD26R,0.039400X0.039400*%
%ADD27R,0.024400X0.024400*%
%ADD28R,0.078700X0.023600*%
%ADD29R,0.082700X0.015700*%
%ADD30R,0.070900X0.031500*%
%ADD31R,0.017700X0.057100*%
%ADD32R,0.055100X0.015700*%
%ADD33R,0.055100X0.063000*%
%ADD34R,0.051200X0.090600*%
%ADD35R,0.074800X0.070900*%
%ADD36R,0.011800X0.047200*%
%ADD37R,0.047200X0.011800*%
%ADD38R,0.133900X0.059100*%
%ADD39R,0.137800X0.039400*%
%ADD40R,0.040000X0.120000*%
%ADD41R,0.019700X0.019700*%
%ADD42R,0.094500X0.029900*%
%ADD43R,0.011000X0.028000*%
%ADD44C,0.011000*%
%ADD45R,0.027600X0.011000*%
%ADD46R,0.041300X0.026800*%
G04 APERTURE END LIST*
G54D10*
G54D11*
X82992Y-39055D03*
X82992Y-39378D03*
X82992Y-39701D03*
X82602Y-39701D03*
X82212Y-39701D03*
X82212Y-39055D03*
X81425Y-39378D03*
G54D12*
X82604Y-39252D03*
G54D13*
X82216Y-39380D03*
G54D14*
X81829Y-39378D03*
G54D15*
X81699Y-39667D03*
X81699Y-39088D03*
G54D16*
X71615Y-52205D03*
X71359Y-52205D03*
X71103Y-52205D03*
X70848Y-52205D03*
X70592Y-52205D03*
X70336Y-52205D03*
X70080Y-52205D03*
X69824Y-52205D03*
X69568Y-52205D03*
X69313Y-52205D03*
X69057Y-52205D03*
X68801Y-52205D03*
X68800Y-54331D03*
X69056Y-54331D03*
X69312Y-54331D03*
X69567Y-54331D03*
X69823Y-54331D03*
X70079Y-54331D03*
X70335Y-54331D03*
X70591Y-54331D03*
X70847Y-54331D03*
X71103Y-54331D03*
X71359Y-54331D03*
X71615Y-54331D03*
G54D17*
X73701Y-53386D03*
X68583Y-50355D03*
X68977Y-50749D03*
X70473Y-50749D03*
X70118Y-50335D03*
X72283Y-47992D03*
X69764Y-50749D03*
X73563Y-42577D03*
X74035Y-42341D03*
X73268Y-45866D03*
X74252Y-47598D03*
X82441Y-44331D03*
X82441Y-41890D03*
X68268Y-53702D03*
X79449Y-45984D03*
X79724Y-51340D03*
X79449Y-54016D03*
X75276Y-43189D03*
X75000Y-42756D03*
X68268Y-54213D03*
X69371Y-50355D03*
G54D16*
X81654Y-46220D03*
X81851Y-46220D03*
X82048Y-46220D03*
X82048Y-45590D03*
X81851Y-45590D03*
X81654Y-45590D03*
G54D18*
X67480Y-44961D03*
X67480Y-45158D03*
X67480Y-45355D03*
X68110Y-45355D03*
X68110Y-45158D03*
X68110Y-44961D03*
G54D19*
X73592Y-42992D03*
X73592Y-43189D03*
X73592Y-43386D03*
X74124Y-43386D03*
X74124Y-43189D03*
X74124Y-42992D03*
G54D20*
X79449Y-53523D03*
X79449Y-53149D03*
X79449Y-52775D03*
X78347Y-52775D03*
X78347Y-53523D03*
G54D21*
X79941Y-47086D03*
X80315Y-47086D03*
X80689Y-47086D03*
X80689Y-45984D03*
X79941Y-45984D03*
X82933Y-44331D03*
X83307Y-44331D03*
X83681Y-44331D03*
X83681Y-43229D03*
X82933Y-43229D03*
G54D20*
X73720Y-53957D03*
X73720Y-54705D03*
X74626Y-54331D03*
G54D22*
X66445Y-39863D03*
X65445Y-39863D03*
X66445Y-37697D03*
X65445Y-37697D03*
X66445Y-42815D03*
X65445Y-42815D03*
X66445Y-40649D03*
X65445Y-40649D03*
G54D23*
X66063Y-54252D03*
G54D24*
X66063Y-55886D03*
X66063Y-52618D03*
G54D25*
X79764Y-50710D03*
X80472Y-50710D03*
G54D26*
X72992Y-45000D03*
X73622Y-45000D03*
X71300Y-55670D03*
X70670Y-55670D03*
X71024Y-51457D03*
X71024Y-50827D03*
X71102Y-38543D03*
X71102Y-37913D03*
X70551Y-38543D03*
X70551Y-37913D03*
X70000Y-38543D03*
X70000Y-37913D03*
X71614Y-45354D03*
X71614Y-45984D03*
X82992Y-42598D03*
X83622Y-42598D03*
X67244Y-43543D03*
X67244Y-44173D03*
X78661Y-54961D03*
X79291Y-54961D03*
X69449Y-38543D03*
X69449Y-37913D03*
X80236Y-54331D03*
X80236Y-54961D03*
X79213Y-52283D03*
X78583Y-52283D03*
X79173Y-51261D03*
X78543Y-51261D03*
X79173Y-50710D03*
X78543Y-50710D03*
X80748Y-50001D03*
X80748Y-49371D03*
X80080Y-52598D03*
X80080Y-53228D03*
G54D27*
X71201Y-54803D03*
X70847Y-54803D03*
X71575Y-55157D03*
X71575Y-54803D03*
X69272Y-54843D03*
X69626Y-54843D03*
X67717Y-54586D03*
X67717Y-54232D03*
X73622Y-43760D03*
X73622Y-44114D03*
X71201Y-55177D03*
X70847Y-55177D03*
X71478Y-51536D03*
X71832Y-51536D03*
X71478Y-51142D03*
X71832Y-51142D03*
X72126Y-54311D03*
X72126Y-53957D03*
X72126Y-53229D03*
X72126Y-53583D03*
X67323Y-54232D03*
X67323Y-54586D03*
X67697Y-54961D03*
X67343Y-54961D03*
X67717Y-55689D03*
X67717Y-55335D03*
X67697Y-56063D03*
X67343Y-56063D03*
X68110Y-55689D03*
X68110Y-56043D03*
X68524Y-55669D03*
X68878Y-55669D03*
X78327Y-53937D03*
X78681Y-53937D03*
X78543Y-50021D03*
X78543Y-49667D03*
X82894Y-44882D03*
X83248Y-44882D03*
X79902Y-47638D03*
X80256Y-47638D03*
X79902Y-45433D03*
X80256Y-45433D03*
X82205Y-38327D03*
X82205Y-38681D03*
X82205Y-40413D03*
X82205Y-40059D03*
X82205Y-41201D03*
X82205Y-40847D03*
X82598Y-38681D03*
X82598Y-38327D03*
X82598Y-40413D03*
X82598Y-40059D03*
X82992Y-40453D03*
X82992Y-40807D03*
X82598Y-40847D03*
X82598Y-41201D03*
X75295Y-41496D03*
X74941Y-41496D03*
X75354Y-44429D03*
X75354Y-44075D03*
X81398Y-41890D03*
X81752Y-41890D03*
X81398Y-42283D03*
X81752Y-42283D03*
X81398Y-42677D03*
X81752Y-42677D03*
X68563Y-46299D03*
X68209Y-46299D03*
X73228Y-43760D03*
X73228Y-44114D03*
X72067Y-45276D03*
X72421Y-45276D03*
X73189Y-40847D03*
X73189Y-41201D03*
X69213Y-39390D03*
X69213Y-39036D03*
X68819Y-39390D03*
X68819Y-39036D03*
X71949Y-47520D03*
X72303Y-47520D03*
X68563Y-45197D03*
X68563Y-45551D03*
X68209Y-45906D03*
X68563Y-45906D03*
X74961Y-44429D03*
X74961Y-44075D03*
X73150Y-54390D03*
X73150Y-54744D03*
X73150Y-53957D03*
X73150Y-53603D03*
X73563Y-41575D03*
X73209Y-41575D03*
X70787Y-39390D03*
X70787Y-39036D03*
X70394Y-39390D03*
X70394Y-39036D03*
X70000Y-39390D03*
X70000Y-39036D03*
X74823Y-55669D03*
X74469Y-55669D03*
X74823Y-55276D03*
X74469Y-55276D03*
X78327Y-54409D03*
X78681Y-54409D03*
X77303Y-53228D03*
X77657Y-53228D03*
X69606Y-39390D03*
X69606Y-39036D03*
X79350Y-48348D03*
X78996Y-48348D03*
X79784Y-48348D03*
X80138Y-48348D03*
X67146Y-42992D03*
X67500Y-42992D03*
X73169Y-42126D03*
X73523Y-42126D03*
X69862Y-55669D03*
X70216Y-55669D03*
X72127Y-52855D03*
X72127Y-52501D03*
X72520Y-52855D03*
X72520Y-52501D03*
X72520Y-53583D03*
X72520Y-53229D03*
X72146Y-52087D03*
X72500Y-52087D03*
X72520Y-53957D03*
X72520Y-54311D03*
X69371Y-51556D03*
X69371Y-51202D03*
X68977Y-51556D03*
X68977Y-51202D03*
X68583Y-51556D03*
X68583Y-51202D03*
X65748Y-49902D03*
X65748Y-50256D03*
X65748Y-49508D03*
X65748Y-49154D03*
X70552Y-51202D03*
X70552Y-51556D03*
X70158Y-51202D03*
X70158Y-51556D03*
X69764Y-51202D03*
X69764Y-51556D03*
X67795Y-53602D03*
X67795Y-53248D03*
X67402Y-53602D03*
X67402Y-53248D03*
X70769Y-49922D03*
X71123Y-49922D03*
X70769Y-50316D03*
X71123Y-50316D03*
X74488Y-43248D03*
X74488Y-43602D03*
X74488Y-42500D03*
X74488Y-42854D03*
X73228Y-43012D03*
X73228Y-43366D03*
X67520Y-41397D03*
X67520Y-41043D03*
X67460Y-44646D03*
X67106Y-44646D03*
G54D28*
X83858Y-40225D03*
X83858Y-39764D03*
X83858Y-39303D03*
G54D29*
X72087Y-38543D03*
X72087Y-39015D03*
X72087Y-39488D03*
G54D30*
X80708Y-44488D03*
X80708Y-44055D03*
X80708Y-43622D03*
X80708Y-43189D03*
X80708Y-42756D03*
X80708Y-42323D03*
X80708Y-41890D03*
X75984Y-41890D03*
X75984Y-42323D03*
X75984Y-42756D03*
X75984Y-43189D03*
X75984Y-43622D03*
X75984Y-44055D03*
X75984Y-44488D03*
X80708Y-40708D03*
X80708Y-40275D03*
X80708Y-39842D03*
X80708Y-39409D03*
X80708Y-38976D03*
X75984Y-38976D03*
X75984Y-39409D03*
X75984Y-39842D03*
X75984Y-40275D03*
X75984Y-40708D03*
G54D31*
X75197Y-39213D03*
X74941Y-39213D03*
X74685Y-39213D03*
X74429Y-39213D03*
X74429Y-40945D03*
X74685Y-40945D03*
X74941Y-40945D03*
X75197Y-40945D03*
G54D32*
X66575Y-44803D03*
X66575Y-45059D03*
X66575Y-45315D03*
X66575Y-45571D03*
X66575Y-45827D03*
G54D33*
X66496Y-44016D03*
X66496Y-46614D03*
G54D34*
X65532Y-46791D03*
X65532Y-43839D03*
G54D35*
X65532Y-45768D03*
X65532Y-44862D03*
G54D32*
X82598Y-47677D03*
X82598Y-47421D03*
X82598Y-47165D03*
X82598Y-46909D03*
X82598Y-46653D03*
G54D33*
X82677Y-48464D03*
X82677Y-45866D03*
G54D34*
X83641Y-45689D03*
X83641Y-48641D03*
G54D35*
X83641Y-46712D03*
X83641Y-47618D03*
G54D36*
X71791Y-40137D03*
X71594Y-40137D03*
X71397Y-40137D03*
X71200Y-40137D03*
X71004Y-40137D03*
X70807Y-40137D03*
X70610Y-40137D03*
X70413Y-40137D03*
X70216Y-40137D03*
X70019Y-40137D03*
X69822Y-40137D03*
X69626Y-40137D03*
X69429Y-40137D03*
X69232Y-40137D03*
X69035Y-40137D03*
X68838Y-40137D03*
X68838Y-44665D03*
X69035Y-44665D03*
X69232Y-44665D03*
X69429Y-44665D03*
X69626Y-44665D03*
X69822Y-44665D03*
X70019Y-44665D03*
X70216Y-44665D03*
X70413Y-44665D03*
X70610Y-44665D03*
X70807Y-44665D03*
X71004Y-44665D03*
X71200Y-44665D03*
X71397Y-44665D03*
X71594Y-44665D03*
X71791Y-44665D03*
G54D37*
X68051Y-40924D03*
X68051Y-41121D03*
X68051Y-41318D03*
X68051Y-41515D03*
X68051Y-41712D03*
X68051Y-41909D03*
X68051Y-42106D03*
X68051Y-42302D03*
X68051Y-42499D03*
X68051Y-42696D03*
X68051Y-42893D03*
X68051Y-43090D03*
X68051Y-43287D03*
X68051Y-43483D03*
X68051Y-43680D03*
X68051Y-43877D03*
X72579Y-43877D03*
X72579Y-43680D03*
X72579Y-43483D03*
X72579Y-43287D03*
X72579Y-43090D03*
X72579Y-42893D03*
X72579Y-42696D03*
X72579Y-42499D03*
X72579Y-42302D03*
X72579Y-42106D03*
X72579Y-41909D03*
X72579Y-41712D03*
X72579Y-41515D03*
X72579Y-41318D03*
X72579Y-41121D03*
X72579Y-40924D03*
G54D38*
X83543Y-53307D03*
X83543Y-55945D03*
G54D39*
X81358Y-54232D03*
X81358Y-55020D03*
G54D40*
X77795Y-46032D03*
X76795Y-47432D03*
X75795Y-46032D03*
X74795Y-47432D03*
X73795Y-46032D03*
X72795Y-47432D03*
G54D41*
X72047Y-45630D03*
X72047Y-45906D03*
X66732Y-43386D03*
X66456Y-43386D03*
G54D42*
X69173Y-46890D03*
X70708Y-46890D03*
X69173Y-47390D03*
X70708Y-47390D03*
X69173Y-47890D03*
X70708Y-47890D03*
X69173Y-48390D03*
X70708Y-48390D03*
X69173Y-48890D03*
X70708Y-48890D03*
G54D27*
X73189Y-40099D03*
X73189Y-40453D03*
X67854Y-39567D03*
X68208Y-39567D03*
X68957Y-38622D03*
X68603Y-38622D03*
G54D43*
X79173Y-50058D03*
X79370Y-50058D03*
X79567Y-50058D03*
X79764Y-50058D03*
X79961Y-50058D03*
X79961Y-48842D03*
X79764Y-48842D03*
X79567Y-48842D03*
X79370Y-48842D03*
X79173Y-48842D03*
G54D44*
X79173Y-49922D03*
X79370Y-49922D03*
X79567Y-49922D03*
X79764Y-49922D03*
X79961Y-49922D03*
X79961Y-48978D03*
X79764Y-48978D03*
X79567Y-48978D03*
X79370Y-48978D03*
X79173Y-48978D03*
G54D45*
X80177Y-49352D03*
X80177Y-49568D03*
X78957Y-49352D03*
X78957Y-49568D03*
G54D46*
X79817Y-49273D03*
X79817Y-49627D03*
X79317Y-49627D03*
X79317Y-49273D03*
M02*
