M48
;DRILL file {Pcbnew (2012-01-19 BZR 3256)-stable} date Mon 27 Feb 2012 03:43:45 GMT
;FORMAT={-:-/ absolute / inch / decimal}
FMAT,2
INCH,TZ
T1C0.012
T2C0.024
T3C0.039
T4C0.051
%
G90
G05
M72
T1
X6.526Y-3.829
X6.526Y-3.878
X6.526Y-3.927
X6.528Y-5.165
X6.528Y-5.197
X6.535Y-5.256
X6.535Y-5.591
X6.545Y-3.770
X6.545Y-3.986
X6.555Y-5.197
X6.555Y-5.315
X6.555Y-5.374
X6.555Y-5.472
X6.555Y-5.532
X6.575Y-3.927
X6.575Y-4.114
X6.575Y-4.173
X6.575Y-4.222
X6.575Y-4.951
X6.575Y-4.990
X6.575Y-5.256
X6.575Y-5.591
X6.579Y-4.866
X6.583Y-5.083
X6.591Y-4.815
X6.595Y-4.055
X6.595Y-4.272
X6.595Y-5.315
X6.595Y-5.374
X6.595Y-5.472
X6.595Y-5.532
X6.606Y-5.262
X6.606Y-5.589
X6.614Y-3.829
X6.614Y-3.878
X6.614Y-4.114
X6.614Y-4.173
X6.614Y-4.222
X6.614Y-4.480
X6.630Y-4.780
X6.630Y-5.634
X6.634Y-5.256
X6.634Y-5.591
X6.642Y-4.902
X6.642Y-4.965
X6.642Y-5.024
X6.646Y-4.339
X6.646Y-3.894
X6.646Y-3.941
X6.646Y-4.114
X6.646Y-4.165
X6.646Y-5.110
X6.654Y-5.315
X6.654Y-5.374
X6.654Y-5.472
X6.654Y-5.532
X6.658Y-4.583
X6.673Y-3.829
X6.673Y-3.868
X6.673Y-4.183
X6.673Y-4.222
X6.673Y-5.256
X6.673Y-5.591
X6.673Y-5.630
X6.677Y-4.453
X6.681Y-5.154
X6.689Y-4.780
X6.693Y-3.760
X6.693Y-3.799
X6.693Y-3.888
X6.693Y-4.252
X6.693Y-5.315
X6.693Y-5.374
X6.693Y-5.472
X6.693Y-5.532
X6.713Y-4.173
X6.713Y-4.516
X6.713Y-5.630
X6.715Y-4.299
X6.724Y-4.618
X6.728Y-4.752
X6.732Y-4.252
X6.732Y-5.459
X6.734Y-5.496
X6.734Y-5.606
X6.742Y-3.888
X6.744Y-4.465
X6.744Y-4.583
X6.744Y-4.642
X6.748Y-3.961
X6.752Y-4.104
X6.752Y-4.222
X6.760Y-5.276
X6.764Y-4.409
X6.764Y-4.665
X6.768Y-4.791
X6.768Y-4.850
X6.768Y-4.909
X6.768Y-4.965
X6.772Y-5.016
X6.776Y-5.087
X6.776Y-5.122
X6.780Y-4.465
X6.787Y-4.689
X6.791Y-3.839
X6.791Y-3.888
X6.803Y-4.713
X6.807Y-4.441
X6.807Y-5.055
X6.811Y-5.276
X6.811Y-5.335
X6.811Y-5.472
X6.811Y-5.512
X6.815Y-5.154
X6.823Y-3.957
X6.823Y-5.095
X6.831Y-5.532
X6.841Y-3.760
X6.843Y-4.716
X6.847Y-4.437
X6.850Y-5.315
X6.850Y-5.472
X6.850Y-5.630
X6.854Y-4.138
X6.858Y-3.827
X6.870Y-4.323
X6.870Y-5.354
X6.870Y-5.532
X6.890Y-3.760
X6.890Y-5.315
X6.890Y-5.472
X6.890Y-5.512
X6.890Y-5.630
X6.894Y-4.421
X6.894Y-4.512
X6.898Y-3.829
X6.909Y-5.374
X6.909Y-5.532
X6.909Y-5.610
X6.913Y-4.532
X6.917Y-4.063
X6.917Y-4.739
X6.917Y-4.789
X6.917Y-4.889
X6.921Y-4.366
X6.929Y-5.315
X6.929Y-5.630
X6.945Y-3.791
X6.945Y-4.331
X6.949Y-5.394
X6.949Y-5.532
X6.961Y-4.063
X6.961Y-4.421
X6.961Y-4.512
X6.965Y-4.177
X6.969Y-5.315
X6.969Y-5.354
X6.969Y-5.630
X6.972Y-4.205
X6.972Y-4.236
X6.978Y-4.282
X6.978Y-4.331
X6.984Y-4.405
X6.984Y-4.681
X6.988Y-5.295
X6.988Y-5.512
X6.988Y-5.610
X7.000Y-3.791
X7.004Y-4.520
X7.008Y-4.252
X7.008Y-4.716
X7.008Y-5.268
X7.008Y-5.315
X7.008Y-5.630
X7.016Y-5.480
X7.020Y-4.405
X7.028Y-4.055
X7.028Y-4.532
X7.028Y-4.976
X7.047Y-4.232
X7.047Y-5.295
X7.047Y-5.630
X7.051Y-4.409
X7.051Y-4.953
X7.055Y-3.791
X7.055Y-4.524
X7.067Y-4.291
X7.067Y-4.929
X7.067Y-5.276
X7.067Y-5.394
X7.071Y-4.173
X7.077Y-5.032
X7.087Y-5.295
X7.091Y-4.197
X7.091Y-4.228
X7.102Y-4.390
X7.102Y-5.083
X7.106Y-5.394
X7.110Y-3.791
X7.112Y-4.992
X7.112Y-5.032
X7.118Y-4.154
X7.120Y-5.518
X7.122Y-4.555
X7.130Y-5.567
X7.138Y-4.429
X7.142Y-4.232
X7.146Y-4.661
X7.146Y-4.772
X7.146Y-4.807
X7.146Y-5.394
X7.148Y-5.114
X7.148Y-5.154
X7.150Y-4.740
X7.150Y-4.913
X7.154Y-4.850
X7.158Y-5.516
X7.161Y-4.598
X7.161Y-5.067
X7.165Y-3.760
X7.165Y-3.807
X7.165Y-4.065
X7.165Y-4.150
X7.165Y-4.189
X7.165Y-4.421
X7.173Y-4.721
X7.177Y-4.685
X7.177Y-5.358
X7.185Y-5.630
X7.195Y-4.095
X7.205Y-4.591
X7.209Y-3.901
X7.209Y-4.185
X7.209Y-4.213
X7.209Y-4.260
X7.209Y-4.362
X7.209Y-4.905
X7.213Y-4.390
X7.213Y-4.713
X7.213Y-5.431
X7.213Y-5.250
X7.215Y-3.986
X7.215Y-5.209
X7.221Y-4.476
X7.224Y-3.760
X7.224Y-5.161
X7.224Y-5.512
X7.224Y-5.551
X7.224Y-5.591
X7.224Y-5.630
X7.234Y-4.055
X7.236Y-4.421
X7.242Y-4.528
X7.244Y-5.492
X7.252Y-5.110
X7.252Y-5.358
X7.252Y-5.431
X7.264Y-5.630
X7.272Y-5.091
X7.276Y-4.882
X7.276Y-4.929
X7.284Y-3.908
X7.284Y-3.957
X7.284Y-4.006
X7.284Y-4.055
X7.284Y-5.512
X7.287Y-5.146
X7.291Y-4.972
X7.291Y-5.067
X7.303Y-5.630
X7.307Y-5.126
X7.315Y-4.866
X7.315Y-5.474
X7.319Y-4.120
X7.319Y-4.256
X7.323Y-4.337
X7.323Y-4.803
X7.323Y-5.512
X7.331Y-5.106
X7.333Y-4.715
X7.335Y-5.012
X7.343Y-3.760
X7.343Y-3.839
X7.343Y-5.630
X7.354Y-5.075
X7.362Y-3.917
X7.362Y-3.976
X7.362Y-4.035
X7.362Y-4.744
X7.370Y-5.437
X7.370Y-5.512
X7.372Y-5.471
X7.374Y-4.866
X7.378Y-5.102
X7.382Y-3.780
X7.382Y-4.413
X7.382Y-5.630
X7.390Y-4.158
X7.394Y-4.500
X7.398Y-5.154
X7.398Y-5.205
X7.402Y-3.976
X7.402Y-5.532
X7.402Y-5.571
X7.405Y-4.197
X7.413Y-5.236
X7.421Y-4.508
X7.421Y-4.685
X7.421Y-5.630
X7.425Y-5.181
X7.429Y-4.866
X7.431Y-4.803
X7.433Y-4.421
X7.441Y-3.780
X7.441Y-4.587
X7.441Y-5.130
X7.441Y-5.610
X7.443Y-3.921
X7.449Y-4.285
X7.449Y-4.360
X7.461Y-4.547
X7.461Y-4.646
X7.461Y-5.295
X7.461Y-5.354
X7.461Y-5.630
X7.469Y-3.921
X7.480Y-5.610
X7.482Y-5.567
X7.488Y-5.087
X7.492Y-4.480
X7.494Y-3.921
X7.494Y-4.150
X7.496Y-4.443
X7.496Y-4.866
X7.500Y-3.780
X7.500Y-4.587
X7.500Y-5.630
X7.520Y-3.921
X7.520Y-3.996
X7.520Y-4.626
X7.520Y-5.571
X7.532Y-4.150
X7.532Y-5.087
X7.535Y-4.443
X7.539Y-4.685
X7.539Y-4.744
X7.539Y-4.784
X7.539Y-5.630
X7.543Y-4.866
X7.559Y-3.780
X7.559Y-5.571
X7.579Y-5.630
X7.583Y-4.118
X7.583Y-4.146
X7.591Y-4.846
X7.598Y-3.898
X7.598Y-3.941
X7.598Y-5.098
X7.598Y-5.256
X7.614Y-4.721
X7.614Y-4.768
X7.614Y-4.823
X7.618Y-5.571
X7.618Y-3.780
X7.618Y-5.630
X7.638Y-4.650
X7.638Y-5.138
X7.638Y-5.295
X7.658Y-4.409
X7.658Y-4.488
X7.658Y-5.197
X7.658Y-5.532
X7.658Y-5.630
X7.677Y-3.780
X7.677Y-4.528
X7.677Y-5.335
X7.679Y-4.743
X7.697Y-5.236
X7.697Y-5.374
X7.697Y-5.571
X7.697Y-5.630
X7.717Y-3.937
X7.717Y-4.055
X7.717Y-4.173
X7.717Y-4.252
X7.717Y-4.409
X7.717Y-4.567
X7.736Y-3.780
X7.736Y-5.630
X7.756Y-4.784
X7.756Y-5.236
X7.756Y-5.571
X7.766Y-5.323
X7.776Y-4.409
X7.776Y-4.961
X7.776Y-5.000
X7.776Y-5.630
X7.780Y-4.603
X7.795Y-3.780
X7.795Y-4.823
X7.795Y-4.921
X7.795Y-5.059
X7.795Y-5.098
X7.795Y-5.138
X7.795Y-5.216
X7.795Y-5.532
X7.815Y-4.469
X7.815Y-4.705
X7.815Y-4.843
X7.815Y-4.882
X7.815Y-5.177
X7.815Y-5.630
X7.835Y-3.937
X7.835Y-4.055
X7.835Y-4.173
X7.835Y-4.252
X7.854Y-3.780
X7.854Y-4.967
X7.854Y-5.071
X7.854Y-5.126
X7.854Y-5.630
X7.866Y-4.937
X7.868Y-5.394
X7.874Y-4.469
X7.874Y-4.724
X7.884Y-4.870
X7.894Y-5.394
X7.894Y-5.630
X7.896Y-4.935
X7.896Y-4.957
X7.898Y-4.807
X7.905Y-4.362
X7.913Y-3.780
X7.913Y-4.567
X7.913Y-4.646
X7.913Y-4.705
X7.921Y-5.228
X7.929Y-4.929
X7.929Y-4.961
X7.933Y-4.469
X7.933Y-5.630
X7.953Y-3.937
X7.953Y-4.055
X7.953Y-4.173
X7.953Y-4.252
X7.953Y-4.547
X7.957Y-4.945
X7.972Y-3.780
X7.972Y-4.488
X7.972Y-5.216
X7.972Y-5.630
X7.984Y-4.929
X7.984Y-4.961
X8.008Y-5.323
X8.012Y-5.118
X8.012Y-5.374
X8.012Y-5.630
X8.018Y-4.935
X8.018Y-4.957
X8.024Y-5.433
X8.026Y-4.543
X8.026Y-4.764
X8.032Y-3.780
X8.032Y-4.606
X8.032Y-4.898
X8.032Y-5.138
X8.032Y-5.216
X8.032Y-5.551
X8.045Y-4.858
X8.051Y-5.374
X8.051Y-5.630
X8.071Y-3.898
X8.071Y-3.984
X8.071Y-3.780
X8.071Y-4.508
X8.071Y-4.547
X8.071Y-4.890
X8.071Y-5.118
X8.071Y-5.197
X8.071Y-5.315
X8.071Y-5.551
X8.075Y-4.937
X8.091Y-4.823
X8.091Y-5.216
X8.091Y-5.630
X8.110Y-3.780
X8.110Y-4.488
X8.110Y-4.567
X8.110Y-4.626
X8.110Y-4.724
X8.110Y-5.158
X8.110Y-5.551
X8.130Y-4.095
X8.130Y-4.528
X8.130Y-4.803
X8.130Y-4.862
X8.130Y-5.216
X8.130Y-5.315
X8.130Y-5.630
X8.140Y-4.311
X8.140Y-4.350
X8.140Y-4.409
X8.140Y-4.469
X8.150Y-3.780
X8.150Y-4.016
X8.150Y-4.764
X8.150Y-5.118
X8.150Y-5.158
X8.150Y-5.197
X8.150Y-5.374
X8.150Y-5.551
X8.154Y-4.996
X8.154Y-5.075
X8.169Y-4.035
X8.169Y-4.075
X8.169Y-5.315
X8.169Y-5.630
X8.170Y-3.909
X8.170Y-3.967
X8.175Y-4.189
X8.183Y-3.938
X8.185Y-4.665
X8.189Y-3.780
X8.189Y-4.902
X8.189Y-4.941
X8.189Y-5.335
X8.189Y-5.374
X8.189Y-5.551
X8.209Y-4.823
X8.209Y-4.980
X8.209Y-5.630
X8.221Y-3.833
X8.221Y-4.004
X8.221Y-4.085
X8.228Y-3.780
X8.228Y-4.478
X8.228Y-4.902
X8.228Y-5.551
X8.238Y-4.272
X8.238Y-4.321
X8.238Y-4.370
X8.248Y-4.498
X8.248Y-5.630
X8.260Y-3.868
X8.260Y-4.006
X8.260Y-4.654
X8.260Y-3.925
X8.268Y-3.780
X8.268Y-4.390
X8.268Y-4.902
X8.268Y-4.961
X8.268Y-5.256
X8.268Y-5.532
X8.268Y-5.571
X8.268Y-5.610
X8.287Y-5.394
X8.287Y-5.433
X8.287Y-5.472
X8.287Y-5.512
X8.297Y-4.154
X8.297Y-4.203
X8.307Y-3.780
X8.307Y-4.902
X8.307Y-5.276
X8.307Y-5.532
X8.323Y-3.905
X8.323Y-3.937
X8.325Y-4.488
X8.327Y-4.114
X8.327Y-4.311
X8.327Y-4.380
X8.327Y-4.941
X8.327Y-5.394
X8.337Y-4.065
X8.337Y-4.203
X8.347Y-3.780
X8.347Y-5.532
X8.362Y-4.260
X8.366Y-4.941
X8.366Y-5.276
X8.366Y-5.394
X8.386Y-3.780
X8.386Y-3.839
X8.386Y-3.878
X8.386Y-3.930
X8.386Y-4.022
X8.386Y-4.380
X8.386Y-4.488
X8.386Y-4.961
X8.386Y-5.000
X8.386Y-5.039
X8.386Y-5.079
X8.386Y-5.118
X8.386Y-5.158
X8.386Y-5.197
X8.386Y-5.236
X8.386Y-5.413
X8.386Y-5.453
X8.386Y-5.492
X8.386Y-5.532
T2
X6.693Y-4.865
X6.693Y-5.057
T3
X7.535Y-4.992
X7.535Y-5.189
T4
X7.587Y-5.512
X7.724Y-5.512
X8.284Y-5.035
X8.284Y-5.173
T0
M30
