G04 (created by PCBNEW-RS274X (2012-01-19 BZR 3256)-stable) date Mon 27 Feb 2012 04:05:37 GMT*
G01*
G70*
G90*
%MOIN*%
G04 Gerber Fmt 3.4, Leading zero omitted, Abs format*
%FSLAX34Y34*%
G04 APERTURE LIST*
%ADD10C,0.006000*%
%ADD11R,0.196900X0.047200*%
%ADD12C,0.078700*%
%ADD13C,0.047200*%
%ADD14C,0.086600*%
%ADD15R,0.031500X0.059100*%
%ADD16R,0.055100X0.066900*%
%ADD17R,0.059100X0.045300*%
%ADD18R,0.045300X0.059100*%
%ADD19R,0.160000X0.120000*%
%ADD20C,0.019700*%
%ADD21C,0.011800*%
%ADD22C,0.007900*%
%ADD23C,0.019700*%
G04 APERTURE END LIST*
G54D10*
G54D11*
X66063Y-52618D03*
X66063Y-55886D03*
G54D12*
X75354Y-51890D03*
X75354Y-49921D03*
G54D13*
X66929Y-50567D03*
X66929Y-48645D03*
G54D14*
X77244Y-55118D03*
X75866Y-55118D03*
X82835Y-51732D03*
X82835Y-50354D03*
G54D15*
X68346Y-38858D03*
X68779Y-38858D03*
X69212Y-38858D03*
X69645Y-38858D03*
X70078Y-38858D03*
X70511Y-38858D03*
X70944Y-38858D03*
X71377Y-38858D03*
G54D16*
X67775Y-37716D03*
X72854Y-37716D03*
G54D17*
X71456Y-43415D03*
X70551Y-43415D03*
X67952Y-43415D03*
G54D18*
X67726Y-41555D03*
G54D19*
X79094Y-55179D03*
X79094Y-43639D03*
G54D20*
X67441Y-44646D03*
X68976Y-38287D03*
X75315Y-41496D03*
X74488Y-42854D03*
X66772Y-44528D03*
X67441Y-45827D03*
X73228Y-43366D03*
X67441Y-46417D03*
X68071Y-44409D03*
X68937Y-44213D03*
X67874Y-46890D03*
X67638Y-46654D03*
X68465Y-44370D03*
X68701Y-43228D03*
X68031Y-47126D03*
X67795Y-44646D03*
X67244Y-46181D03*
X69134Y-45315D03*
X68425Y-47165D03*
X68937Y-45118D03*
X69843Y-46811D03*
X70276Y-49764D03*
X70769Y-50316D03*
X70079Y-47165D03*
X69606Y-45118D03*
X66457Y-41654D03*
X66457Y-41142D03*
X73307Y-51063D03*
X72913Y-50669D03*
X71496Y-49134D03*
X70276Y-45315D03*
X65748Y-39272D03*
X73228Y-48031D03*
X65256Y-38287D03*
X65945Y-40551D03*
X65748Y-41732D03*
X65748Y-41142D03*
X66929Y-37992D03*
X74606Y-46457D03*
X74213Y-46850D03*
X73622Y-47441D03*
X73327Y-47146D03*
X74311Y-48031D03*
X69449Y-37913D03*
X68406Y-37598D03*
X77165Y-39370D03*
X66732Y-38681D03*
X67421Y-38878D03*
X67913Y-38386D03*
X79724Y-52165D03*
X65256Y-39272D03*
X65256Y-38780D03*
X78150Y-47047D03*
X79134Y-46457D03*
X79528Y-45472D03*
X67913Y-38878D03*
X67598Y-52756D03*
X66929Y-38878D03*
X68898Y-37598D03*
X65748Y-42224D03*
X65945Y-42717D03*
X66929Y-37598D03*
X66732Y-38287D03*
X66142Y-38287D03*
X66142Y-38780D03*
X78740Y-44685D03*
X83858Y-54134D03*
X76969Y-52362D03*
X75984Y-52559D03*
X80709Y-48898D03*
X72835Y-39567D03*
X70276Y-40551D03*
X69783Y-42815D03*
X72835Y-40551D03*
X79724Y-44882D03*
X78346Y-41732D03*
X78346Y-42520D03*
X69606Y-40630D03*
X71949Y-40945D03*
X80315Y-48976D03*
X75000Y-56299D03*
X74606Y-56299D03*
X80118Y-51181D03*
X72835Y-55118D03*
X79134Y-45669D03*
X79134Y-47047D03*
X79724Y-56299D03*
X79528Y-41732D03*
X79528Y-39370D03*
X79528Y-40551D03*
X78346Y-39370D03*
X82480Y-56299D03*
X78346Y-40551D03*
X77165Y-41732D03*
X72343Y-40551D03*
X72146Y-39862D03*
X68110Y-52756D03*
X77165Y-40551D03*
X80315Y-55512D03*
X77165Y-42520D03*
X73937Y-45000D03*
X78543Y-49667D03*
X79331Y-56299D03*
X68504Y-56299D03*
X71654Y-40650D03*
X81299Y-48622D03*
X81102Y-47244D03*
X69685Y-53150D03*
X69882Y-52953D03*
X70157Y-54803D03*
X83248Y-44882D03*
X67126Y-56299D03*
X81299Y-56299D03*
X82874Y-54331D03*
X65945Y-54724D03*
X65551Y-54724D03*
X75394Y-56299D03*
X76795Y-47432D03*
X72835Y-40059D03*
X82087Y-48228D03*
X81102Y-46260D03*
X78937Y-56299D03*
X83858Y-38386D03*
X80512Y-56299D03*
X81102Y-45669D03*
X81299Y-45276D03*
X72126Y-54311D03*
X83622Y-42598D03*
X66535Y-54724D03*
X79528Y-42520D03*
X82874Y-53937D03*
X81850Y-46654D03*
X72835Y-39075D03*
X69882Y-56102D03*
X65945Y-53150D03*
X83858Y-54528D03*
X69094Y-56102D03*
X73819Y-56299D03*
X66732Y-56299D03*
X66299Y-56339D03*
X76575Y-44094D03*
X76772Y-45276D03*
X77165Y-45669D03*
X66142Y-41732D03*
X81496Y-51575D03*
X80709Y-37795D03*
X81496Y-51181D03*
X68898Y-55118D03*
X81496Y-47638D03*
X78740Y-47244D03*
X80709Y-55512D03*
X81102Y-55512D03*
X82677Y-55315D03*
X82874Y-55118D03*
X82874Y-54724D03*
X66142Y-41142D03*
X79331Y-44685D03*
X66142Y-42224D03*
X66732Y-42224D03*
X75787Y-56299D03*
X82677Y-49016D03*
X67677Y-49094D03*
X67677Y-47913D03*
X83661Y-53937D03*
X73898Y-41575D03*
X76378Y-52953D03*
X67717Y-50157D03*
X82283Y-37795D03*
X71535Y-48504D03*
X82283Y-55512D03*
X80906Y-48228D03*
X77756Y-44094D03*
X81102Y-37795D03*
X81890Y-37795D03*
X82677Y-37795D03*
X83465Y-37795D03*
X83858Y-37795D03*
X67343Y-54961D03*
X80709Y-51181D03*
X65748Y-49902D03*
X73819Y-44134D03*
X81890Y-55512D03*
X76180Y-55708D03*
X66890Y-47795D03*
X72244Y-55512D03*
X77953Y-52165D03*
X78543Y-56299D03*
X81752Y-41890D03*
X77756Y-56299D03*
X70551Y-37913D03*
X70000Y-37913D03*
X81496Y-37795D03*
X80315Y-46063D03*
X65551Y-53150D03*
X83071Y-37795D03*
X80315Y-51378D03*
X76575Y-56299D03*
X69685Y-56299D03*
X76772Y-53346D03*
X76969Y-53740D03*
X74134Y-52362D03*
X75591Y-55709D03*
X83071Y-55315D03*
X69291Y-56299D03*
X73720Y-54705D03*
X83858Y-54921D03*
X80118Y-56299D03*
X82677Y-56102D03*
X82677Y-55709D03*
X68898Y-53150D03*
X82604Y-39252D03*
X73189Y-41201D03*
X72047Y-45906D03*
X65827Y-50827D03*
X74606Y-53543D03*
X65276Y-51969D03*
X70079Y-56299D03*
X72087Y-49055D03*
X71123Y-49922D03*
X80080Y-53228D03*
X69173Y-47390D03*
X80256Y-45433D03*
X75197Y-39213D03*
X80177Y-49568D03*
X66575Y-45827D03*
X77559Y-55709D03*
X66417Y-49646D03*
X80708Y-38976D03*
X67126Y-45157D03*
X77657Y-53228D03*
X78976Y-48071D03*
X68898Y-56299D03*
X65445Y-37697D03*
X73031Y-56299D03*
X69173Y-48890D03*
X66063Y-55886D03*
X66063Y-52618D03*
X71024Y-50827D03*
X72087Y-39015D03*
X69173Y-47890D03*
X83858Y-40225D03*
X80709Y-45079D03*
X80256Y-47638D03*
X69488Y-53937D03*
X69094Y-53740D03*
X82598Y-46535D03*
X74685Y-39213D03*
X68110Y-53346D03*
X68504Y-53150D03*
X66339Y-52559D03*
X83858Y-39303D03*
X67520Y-41043D03*
X65354Y-52559D03*
X66456Y-43386D03*
X77362Y-56299D03*
X67638Y-44094D03*
X65748Y-49508D03*
X77795Y-46032D03*
X67146Y-42992D03*
X71102Y-37913D03*
X78150Y-56299D03*
X68701Y-53543D03*
X77953Y-55315D03*
X73425Y-56299D03*
X82598Y-40059D03*
X83858Y-44882D03*
X76575Y-44882D03*
X77165Y-44094D03*
X78150Y-44685D03*
X66732Y-52559D03*
X70079Y-53149D03*
X76181Y-56299D03*
X74429Y-39213D03*
X74941Y-39213D03*
X71478Y-51536D03*
X73701Y-54370D03*
X71300Y-55670D03*
X81102Y-51575D03*
X67323Y-54586D03*
X76969Y-56299D03*
X75984Y-38976D03*
X74941Y-41496D03*
X69685Y-53543D03*
X75354Y-44429D03*
X74213Y-56299D03*
X83071Y-52756D03*
X80236Y-54331D03*
X75984Y-39409D03*
X74961Y-44429D03*
X71201Y-55177D03*
X73150Y-54744D03*
X66457Y-51102D03*
X76142Y-47205D03*
X83858Y-43799D03*
X81102Y-44882D03*
X65551Y-51969D03*
X74606Y-52953D03*
X83228Y-39055D03*
X72146Y-52087D03*
X71478Y-51142D03*
X82598Y-38681D03*
X82205Y-40847D03*
X74803Y-56102D03*
X75197Y-55709D03*
X79567Y-49450D03*
X78681Y-53937D03*
X79213Y-52283D03*
X80708Y-39842D03*
X76181Y-37795D03*
X75000Y-37795D03*
X82382Y-43701D03*
X82677Y-52559D03*
X83268Y-43110D03*
X74961Y-48661D03*
X82677Y-43898D03*
X81699Y-39088D03*
X81398Y-43504D03*
X82480Y-44980D03*
X81398Y-44685D03*
X83268Y-49409D03*
X83858Y-51575D03*
X81699Y-39667D03*
X77953Y-50984D03*
X71575Y-55157D03*
X83071Y-49016D03*
X76142Y-48228D03*
X75906Y-48465D03*
X83858Y-50394D03*
X65445Y-39863D03*
X80709Y-45472D03*
X83268Y-43799D03*
X82382Y-43209D03*
X80709Y-53150D03*
X81693Y-53150D03*
X72913Y-49724D03*
X79291Y-49291D03*
X83858Y-52362D03*
X69291Y-53150D03*
X72638Y-56299D03*
X72421Y-45276D03*
X71614Y-45984D03*
X83858Y-51969D03*
X83661Y-52756D03*
X72756Y-48819D03*
X73819Y-37795D03*
X83858Y-49606D03*
X72244Y-37598D03*
X73740Y-48661D03*
X74213Y-45079D03*
X75394Y-47441D03*
X83858Y-50000D03*
X74823Y-55669D03*
X83228Y-39370D03*
X68583Y-38268D03*
X77559Y-47835D03*
X78957Y-49568D03*
X67323Y-42520D03*
X67126Y-41732D03*
X67520Y-42224D03*
X66732Y-41831D03*
X74409Y-37795D03*
X65748Y-52559D03*
X80748Y-49371D03*
X83858Y-50787D03*
X82087Y-49803D03*
X81890Y-53346D03*
X81496Y-53740D03*
X83366Y-40650D03*
X82972Y-41535D03*
X83366Y-42028D03*
X82972Y-42028D03*
X83268Y-41142D03*
X66929Y-42520D03*
X80315Y-52165D03*
X81299Y-52165D03*
X73622Y-39173D03*
X78661Y-49370D03*
X81693Y-40354D03*
X70079Y-42520D03*
X70669Y-42913D03*
X71123Y-50316D03*
X80177Y-49352D03*
X81693Y-40748D03*
X75591Y-37795D03*
X82382Y-42717D03*
X74409Y-45866D03*
X79291Y-49606D03*
X73425Y-38386D03*
X79843Y-49606D03*
X73425Y-37598D03*
X79843Y-49291D03*
X73622Y-40354D03*
X69783Y-43307D03*
X70472Y-42323D03*
X81890Y-53740D03*
X66417Y-50236D03*
X66811Y-51535D03*
X81299Y-40945D03*
X78957Y-49352D03*
X71654Y-37598D03*
X79134Y-37795D03*
X78543Y-37795D03*
X77953Y-37795D03*
X77362Y-37795D03*
X72441Y-54921D03*
X79724Y-37795D03*
X78150Y-48425D03*
X75197Y-39961D03*
X73622Y-39764D03*
X74016Y-39764D03*
X74409Y-51299D03*
X67756Y-51220D03*
X72244Y-51614D03*
X65945Y-55315D03*
X66929Y-55315D03*
X80315Y-37795D03*
X67677Y-48504D03*
X81693Y-56299D03*
X65551Y-55315D03*
X65551Y-53740D03*
X73543Y-50748D03*
X71850Y-56299D03*
X81496Y-40157D03*
X71614Y-50669D03*
X68071Y-50551D03*
X75394Y-47835D03*
X73976Y-51535D03*
X68150Y-51535D03*
X66929Y-53150D03*
X68898Y-54724D03*
X73150Y-48661D03*
X82087Y-56299D03*
X65276Y-51654D03*
X67756Y-50866D03*
X72244Y-56299D03*
X72244Y-55906D03*
X72244Y-55118D03*
X83858Y-38780D03*
X69488Y-55315D03*
X78543Y-51261D03*
X67283Y-47520D03*
X81299Y-48031D03*
X80906Y-56299D03*
X70079Y-52677D03*
X71063Y-53937D03*
X70669Y-53937D03*
X70472Y-52953D03*
X66535Y-55315D03*
X66417Y-49016D03*
X65787Y-48661D03*
X66299Y-47795D03*
X70866Y-52953D03*
X69882Y-55118D03*
X74291Y-48661D03*
X76772Y-37795D03*
X83268Y-53937D03*
X66339Y-55906D03*
X71457Y-53937D03*
X66732Y-55906D03*
X65906Y-48150D03*
X74488Y-43602D03*
X78543Y-50710D03*
X73228Y-55118D03*
X70669Y-52756D03*
X80118Y-53740D03*
X65945Y-53740D03*
X66535Y-53740D03*
X66929Y-54724D03*
X74016Y-55315D03*
X78150Y-51772D03*
X77756Y-50000D03*
X72520Y-54311D03*
X74016Y-55709D03*
X77953Y-49213D03*
X83465Y-55315D03*
X65748Y-55906D03*
X81496Y-55512D03*
X70472Y-56299D03*
X82283Y-49016D03*
X83661Y-49409D03*
X82283Y-44783D03*
X67343Y-56063D03*
X72127Y-52501D03*
X76142Y-47677D03*
X68701Y-55315D03*
X74606Y-45472D03*
X77559Y-52362D03*
X76575Y-51969D03*
X82677Y-49606D03*
X83858Y-51181D03*
X81398Y-43110D03*
X81398Y-44094D03*
X81829Y-39378D03*
X73701Y-55118D03*
X66929Y-53740D03*
X78937Y-53937D03*
X80512Y-53740D03*
X81299Y-53150D03*
X73780Y-51024D03*
X75433Y-48661D03*
X81890Y-49016D03*
X81890Y-49409D03*
X68228Y-50945D03*
X75394Y-46850D03*
X77953Y-48228D03*
X66535Y-53150D03*
X80906Y-52165D03*
X68504Y-54724D03*
X81496Y-51969D03*
X78150Y-48819D03*
X77756Y-49606D03*
X77953Y-50591D03*
X68307Y-55315D03*
X77953Y-51378D03*
X80709Y-51969D03*
X75984Y-50984D03*
X68110Y-54724D03*
X74882Y-50866D03*
X75315Y-50866D03*
X76378Y-51378D03*
X74409Y-56102D03*
X76575Y-55315D03*
X76969Y-55709D03*
X75197Y-46260D03*
X75000Y-45866D03*
X72756Y-49291D03*
X83858Y-55315D03*
X73346Y-50118D03*
X67677Y-49646D03*
X69094Y-55315D03*
X76378Y-46496D03*
X74252Y-51811D03*
X73976Y-52047D03*
X65354Y-55906D03*
X68110Y-55118D03*
X69173Y-40630D03*
X75827Y-41181D03*
X71654Y-41496D03*
X75827Y-41457D03*
X72126Y-43898D03*
X71496Y-47402D03*
X72087Y-43622D03*
X71457Y-48071D03*
X71457Y-47717D03*
X72087Y-42598D03*
X71378Y-44291D03*
X71732Y-47205D03*
X72520Y-53583D03*
X71772Y-53583D03*
X71220Y-45551D03*
X71417Y-42323D03*
X70906Y-42283D03*
X71024Y-43898D03*
X82205Y-38327D03*
X82205Y-40039D03*
X66457Y-38937D03*
X66457Y-39409D03*
X67480Y-39606D03*
X72126Y-47126D03*
X72205Y-44764D03*
X68543Y-41378D03*
X69606Y-44213D03*
X70512Y-49528D03*
X72520Y-51102D03*
X72874Y-51457D03*
X73071Y-51260D03*
X72717Y-50906D03*
X70039Y-45197D03*
X70669Y-49291D03*
X70709Y-41732D03*
X71181Y-41535D03*
X69724Y-42047D03*
X68228Y-39567D03*
X69724Y-42362D03*
X70906Y-41969D03*
X71654Y-41890D03*
X69843Y-44055D03*
X71654Y-38071D03*
X69449Y-43307D03*
X69646Y-41772D03*
X70197Y-44055D03*
X72087Y-42126D03*
X73189Y-42559D03*
X72087Y-41850D03*
X74055Y-41969D03*
X71772Y-46850D03*
X70512Y-44094D03*
X71457Y-46614D03*
X70551Y-45236D03*
X79055Y-43622D03*
X66142Y-44803D03*
X81535Y-49961D03*
X81535Y-50748D03*
X69213Y-43661D03*
X72362Y-44213D03*
X71654Y-44213D03*
X74921Y-44803D03*
X74331Y-44213D03*
X80453Y-48583D03*
X78839Y-48701D03*
G54D21*
X74488Y-42854D02*
X75315Y-42027D01*
X67441Y-45827D02*
X67441Y-44646D01*
X66891Y-44409D02*
X67322Y-44409D01*
X67441Y-44528D02*
X67441Y-44646D01*
X69645Y-38405D02*
X69527Y-38287D01*
X66772Y-44528D02*
X66891Y-44409D01*
X67322Y-44409D02*
X67441Y-44528D01*
X69645Y-38858D02*
X69645Y-38405D01*
X69527Y-38287D02*
X68976Y-38287D01*
X74488Y-42854D02*
X73740Y-42854D01*
X73740Y-42854D02*
X73228Y-43366D01*
X75315Y-42027D02*
X75315Y-41496D01*
X67716Y-46378D02*
X68071Y-46023D01*
X67441Y-46417D02*
X67480Y-46378D01*
X67480Y-46378D02*
X67716Y-46378D01*
X68071Y-46023D02*
X68071Y-44409D01*
X68448Y-46237D02*
X68448Y-44741D01*
X68937Y-44252D02*
X68937Y-44213D01*
X68448Y-44741D02*
X68937Y-44252D01*
X67874Y-46890D02*
X67874Y-46850D01*
X67874Y-46850D02*
X67874Y-46811D01*
X67874Y-46811D02*
X68448Y-46237D01*
X67638Y-46654D02*
X67677Y-46654D01*
X67677Y-46654D02*
X67717Y-46654D01*
X67717Y-46654D02*
X68268Y-46103D01*
X68268Y-46103D02*
X68268Y-44567D01*
X68268Y-44567D02*
X68465Y-44370D01*
X69095Y-43898D02*
X68740Y-43898D01*
X68724Y-43898D02*
X68566Y-43740D01*
X68031Y-47126D02*
X68701Y-46456D01*
X68701Y-46456D02*
X68701Y-44882D01*
X68566Y-43363D02*
X68701Y-43228D01*
X68566Y-43740D02*
X68566Y-43363D01*
X68740Y-43898D02*
X68724Y-43898D01*
X68701Y-44882D02*
X69252Y-44331D01*
X69252Y-44331D02*
X69252Y-44055D01*
X69252Y-44055D02*
X69095Y-43898D01*
X67283Y-46142D02*
X67599Y-46142D01*
X67795Y-45946D02*
X67795Y-44646D01*
X67599Y-46142D02*
X67795Y-45946D01*
X67244Y-46181D02*
X67283Y-46142D01*
X69016Y-45551D02*
X69134Y-45433D01*
X69134Y-45433D02*
X69134Y-45315D01*
X69016Y-45709D02*
X69016Y-45551D01*
X69016Y-46574D02*
X69016Y-45709D01*
X68425Y-47165D02*
X69016Y-46574D01*
X69252Y-46220D02*
X69252Y-45905D01*
X69370Y-45551D02*
X69252Y-45669D01*
X69252Y-45669D02*
X69252Y-45905D01*
X69213Y-45000D02*
X69252Y-45000D01*
X69213Y-45000D02*
X69055Y-45000D01*
X69370Y-45118D02*
X69370Y-45551D01*
X69252Y-45000D02*
X69370Y-45118D01*
X69843Y-46811D02*
X69252Y-46220D01*
X69055Y-45000D02*
X68937Y-45118D01*
X70157Y-46692D02*
X70000Y-46535D01*
X69881Y-46535D02*
X69488Y-46142D01*
X70000Y-46535D02*
X69881Y-46535D01*
X69488Y-46024D02*
X69488Y-45709D01*
X69488Y-46142D02*
X69488Y-46024D01*
X70157Y-47087D02*
X70157Y-46692D01*
X70276Y-49823D02*
X70276Y-49764D01*
X70769Y-50316D02*
X70276Y-49823D01*
X70079Y-47165D02*
X70157Y-47087D01*
X69488Y-45709D02*
X69567Y-45630D01*
X69567Y-45630D02*
X69567Y-45157D01*
X69567Y-45157D02*
X69606Y-45118D01*
X66457Y-41654D02*
X66457Y-41142D01*
X70827Y-47441D02*
X70827Y-46379D01*
X71270Y-48908D02*
X71260Y-48898D01*
X70394Y-47874D02*
X70827Y-47441D01*
X70394Y-48661D02*
X70394Y-47874D01*
X71496Y-49134D02*
X71270Y-48908D01*
X70631Y-48898D02*
X70394Y-48661D01*
X73307Y-51063D02*
X72913Y-50669D01*
X70315Y-45354D02*
X70276Y-45315D01*
X70315Y-45867D02*
X70315Y-45394D01*
X71260Y-48898D02*
X70631Y-48898D01*
X70315Y-45394D02*
X70315Y-45354D01*
X70827Y-46379D02*
X70315Y-45867D01*
X73622Y-47441D02*
X74213Y-46850D01*
X65748Y-41142D02*
X65748Y-41732D01*
X69094Y-37598D02*
X68898Y-37598D01*
X68898Y-37598D02*
X68406Y-37598D01*
X69409Y-37913D02*
X69094Y-37598D01*
X69449Y-37913D02*
X69409Y-37913D01*
X66732Y-38287D02*
X66142Y-38287D01*
X76969Y-52362D02*
X76378Y-52953D01*
X75945Y-39449D02*
X75945Y-39448D01*
X79568Y-49449D02*
X79567Y-49450D01*
X81693Y-48228D02*
X81299Y-48622D01*
X65748Y-55906D02*
X66063Y-55886D01*
X71123Y-49922D02*
X71220Y-49922D01*
X71142Y-49921D02*
X71124Y-49921D01*
X69528Y-37913D02*
X69449Y-37913D01*
X66732Y-42224D02*
X66142Y-42224D01*
X71124Y-49921D02*
X71123Y-49922D01*
X65505Y-39803D02*
X65512Y-39803D01*
X74941Y-41496D02*
X74961Y-41496D01*
X67726Y-41249D02*
X67520Y-41043D01*
X80256Y-45433D02*
X80276Y-45433D01*
X83830Y-39331D02*
X83819Y-39331D01*
X72086Y-49055D02*
X71535Y-48504D01*
X76180Y-55708D02*
X76181Y-55709D01*
X68110Y-52756D02*
X67598Y-52756D01*
X81102Y-51575D02*
X80512Y-51575D01*
X80512Y-51575D02*
X80315Y-51378D01*
X74941Y-44449D02*
X74961Y-44429D01*
X72087Y-39015D02*
X72087Y-39016D01*
X72146Y-52087D02*
X72126Y-52087D01*
X82604Y-39252D02*
X82598Y-39252D01*
X80709Y-39803D02*
X80709Y-39841D01*
X73739Y-54724D02*
X73720Y-54705D01*
X71300Y-55670D02*
X71299Y-55669D01*
X73740Y-54724D02*
X73739Y-54724D01*
X80709Y-49370D02*
X80747Y-49370D01*
X76379Y-52953D02*
X76772Y-53346D01*
X76379Y-52953D02*
X76378Y-52953D01*
X74134Y-52481D02*
X74134Y-52362D01*
X76180Y-55708D02*
X76181Y-55709D01*
X65354Y-52559D02*
X66063Y-52618D01*
X65748Y-49508D02*
X65748Y-49528D01*
X72148Y-52480D02*
X72165Y-52480D01*
X65551Y-51969D02*
X65590Y-51969D01*
X66339Y-52559D02*
X66063Y-52618D01*
X72087Y-49055D02*
X72086Y-49055D01*
X71220Y-49922D02*
X72087Y-49055D01*
X72127Y-52501D02*
X72148Y-52480D01*
X73189Y-41201D02*
X73189Y-41181D01*
X65354Y-55906D02*
X66063Y-55886D01*
X83858Y-40225D02*
X83869Y-40236D01*
X78720Y-53976D02*
X78681Y-53937D01*
X79571Y-49449D02*
X79568Y-49449D01*
X78505Y-51299D02*
X78543Y-51261D01*
X74488Y-43602D02*
X74488Y-43583D01*
X72165Y-54331D02*
X72146Y-54331D01*
X65433Y-37709D02*
X65433Y-37717D01*
X69134Y-47441D02*
X69134Y-47429D01*
X80709Y-39841D02*
X80708Y-39842D01*
X80236Y-54331D02*
X80236Y-54291D01*
X80189Y-49575D02*
X80184Y-49575D01*
X74941Y-39213D02*
X74921Y-39213D01*
X66456Y-43386D02*
X66457Y-43386D01*
X71102Y-37913D02*
X71102Y-37874D01*
X77835Y-45992D02*
X77795Y-46032D01*
X78504Y-51299D02*
X78505Y-51299D01*
X80184Y-49575D02*
X80177Y-49568D01*
X73170Y-54724D02*
X73150Y-54744D01*
X65748Y-49508D02*
X65748Y-49528D01*
X69134Y-47429D02*
X69173Y-47390D01*
X82578Y-40079D02*
X82598Y-40059D01*
X71614Y-45984D02*
X71575Y-45984D01*
X80256Y-47638D02*
X80276Y-47658D01*
X71479Y-51535D02*
X71496Y-51535D01*
X74921Y-44449D02*
X74941Y-44449D01*
X66575Y-45827D02*
X66614Y-45827D01*
X69173Y-48890D02*
X69173Y-48898D01*
X80747Y-49370D02*
X80748Y-49371D01*
X77657Y-53228D02*
X77638Y-53228D01*
X72047Y-45906D02*
X72087Y-45906D01*
X72540Y-54331D02*
X72520Y-54311D01*
X74134Y-52481D02*
X74606Y-52953D01*
X65590Y-51969D02*
X66457Y-51102D01*
X74823Y-55669D02*
X74843Y-55669D01*
X82559Y-40079D02*
X82578Y-40079D01*
X71142Y-50335D02*
X71123Y-50316D01*
X71478Y-51536D02*
X71479Y-51535D01*
X71142Y-50354D02*
X71142Y-50335D01*
X78543Y-50710D02*
X78543Y-50787D01*
X72421Y-45276D02*
X72421Y-45334D01*
X72421Y-45276D02*
X72421Y-45334D01*
X80276Y-47658D02*
X80276Y-47677D01*
X83858Y-39303D02*
X83830Y-39331D01*
X71478Y-51142D02*
X71457Y-51163D01*
X70079Y-53149D02*
X70079Y-53150D01*
X67726Y-41555D02*
X67726Y-41249D01*
X67323Y-54586D02*
X67323Y-54606D01*
X78740Y-53976D02*
X78720Y-53976D01*
X71201Y-55177D02*
X71181Y-55197D01*
X71457Y-51163D02*
X71457Y-51181D01*
X83228Y-44902D02*
X83248Y-44882D01*
X80080Y-53228D02*
X80079Y-53228D01*
X82087Y-48228D02*
X81693Y-48228D01*
X73189Y-54724D02*
X73170Y-54724D01*
X75984Y-38976D02*
X76024Y-38976D01*
X82185Y-44685D02*
X81398Y-44685D01*
X67362Y-54882D02*
X67362Y-54942D01*
X67343Y-56063D02*
X67362Y-56063D01*
X74429Y-39213D02*
X74409Y-39213D01*
X81699Y-39667D02*
X81693Y-39673D01*
X81693Y-39673D02*
X81693Y-39764D01*
X80708Y-38976D02*
X80709Y-38976D01*
X72146Y-54331D02*
X72126Y-54311D01*
X69173Y-47890D02*
X69173Y-47874D01*
X77835Y-45906D02*
X77835Y-45992D01*
X72441Y-45354D02*
X72421Y-45334D01*
X67362Y-54942D02*
X67343Y-54961D01*
X71024Y-50827D02*
X71063Y-50827D01*
X78976Y-49549D02*
X78976Y-49528D01*
X78543Y-49667D02*
X78543Y-49646D01*
X65748Y-52559D02*
X66063Y-52618D01*
X72559Y-54331D02*
X72540Y-54331D01*
X78957Y-49568D02*
X78976Y-49549D01*
X81752Y-41890D02*
X81693Y-41890D01*
X76804Y-47441D02*
X76795Y-47432D01*
X71456Y-42815D02*
X71456Y-43415D01*
X71358Y-42913D02*
X70669Y-42913D01*
X80177Y-49352D02*
X80159Y-49370D01*
X81699Y-39088D02*
X81693Y-39094D01*
X81693Y-39094D02*
X81693Y-39173D01*
X82165Y-40827D02*
X82185Y-40827D01*
X75354Y-44429D02*
X75354Y-44449D01*
X71456Y-42815D02*
X71358Y-42913D01*
X82185Y-40827D02*
X82205Y-40847D01*
X78975Y-49370D02*
X78957Y-49352D01*
X78976Y-49370D02*
X78975Y-49370D01*
X80159Y-49370D02*
X80157Y-49370D01*
X79213Y-52283D02*
X79252Y-52244D01*
X66339Y-55906D02*
X66063Y-55886D01*
X66142Y-49016D02*
X65787Y-48661D01*
X66732Y-52559D02*
X66063Y-52618D01*
X75945Y-39448D02*
X75984Y-39409D01*
X66732Y-55906D02*
X66063Y-55886D01*
X66142Y-49016D02*
X66417Y-49016D01*
X65445Y-37697D02*
X65433Y-37709D01*
X67126Y-43012D02*
X67146Y-42992D01*
X67126Y-43031D02*
X67126Y-43012D01*
X82598Y-38681D02*
X82598Y-38701D01*
X65748Y-49902D02*
X65748Y-49882D01*
X76850Y-47441D02*
X76804Y-47441D01*
X65445Y-39863D02*
X65505Y-39803D01*
X82185Y-44685D02*
X82283Y-44783D01*
X81811Y-39370D02*
X81821Y-39370D01*
X66063Y-52481D02*
X65551Y-51969D01*
X83228Y-44921D02*
X83228Y-44902D01*
X66063Y-52618D02*
X66063Y-52481D01*
X81821Y-39370D02*
X81829Y-39378D01*
X83869Y-40236D02*
X83898Y-40236D01*
X69409Y-40866D02*
X69173Y-40630D01*
X71339Y-40866D02*
X69409Y-40866D01*
X71851Y-41378D02*
X71339Y-40866D01*
X75827Y-41181D02*
X75748Y-41181D01*
X75748Y-41181D02*
X75512Y-40945D01*
X73898Y-40945D02*
X73070Y-40945D01*
X73070Y-40945D02*
X72637Y-41378D01*
X72637Y-41378D02*
X71851Y-41378D01*
X75512Y-40945D02*
X73898Y-40945D01*
X73425Y-41497D02*
X73268Y-41654D01*
X73268Y-41654D02*
X72245Y-41654D01*
X72245Y-41654D02*
X72205Y-41614D01*
X72205Y-41614D02*
X71772Y-41614D01*
X71772Y-41614D02*
X71654Y-41496D01*
X75748Y-41457D02*
X75433Y-41142D01*
X75433Y-41142D02*
X73779Y-41142D01*
X73779Y-41142D02*
X73425Y-41496D01*
X75827Y-41457D02*
X75748Y-41457D01*
X73425Y-41496D02*
X73425Y-41497D01*
X72598Y-44213D02*
X72598Y-44094D01*
X72582Y-47418D02*
X72582Y-46316D01*
X72582Y-46316D02*
X73093Y-45805D01*
X73093Y-45805D02*
X73093Y-44865D01*
X72362Y-47638D02*
X72582Y-47418D01*
X72402Y-43898D02*
X72126Y-43898D01*
X73093Y-44865D02*
X72598Y-44370D01*
X72598Y-44370D02*
X72598Y-44213D01*
X71496Y-47402D02*
X71732Y-47638D01*
X71732Y-47638D02*
X72362Y-47638D01*
X72598Y-44094D02*
X72402Y-43898D01*
X72480Y-43425D02*
X72480Y-43228D01*
X72480Y-43228D02*
X72323Y-43071D01*
X72323Y-43071D02*
X72323Y-42913D01*
X73453Y-46036D02*
X73453Y-45236D01*
X73031Y-46458D02*
X73453Y-46036D01*
X73031Y-47599D02*
X73031Y-46458D01*
X72559Y-48071D02*
X73031Y-47599D01*
X71457Y-48071D02*
X72559Y-48071D01*
X72323Y-42480D02*
X72323Y-42638D01*
X72205Y-42362D02*
X72323Y-42480D01*
X71930Y-42362D02*
X72205Y-42362D01*
X71850Y-42442D02*
X71930Y-42362D01*
X71850Y-42599D02*
X71850Y-42442D01*
X73453Y-45236D02*
X73453Y-44961D01*
X72323Y-42913D02*
X72323Y-42638D01*
X71850Y-42599D02*
X71850Y-43031D01*
X71850Y-43031D02*
X71850Y-43071D01*
X71850Y-43071D02*
X71850Y-43110D01*
X71850Y-43110D02*
X71890Y-43150D01*
X71890Y-43150D02*
X71890Y-43229D01*
X71890Y-43229D02*
X72087Y-43426D01*
X72087Y-43426D02*
X72087Y-43622D01*
X73453Y-44961D02*
X73453Y-44708D01*
X73453Y-44708D02*
X72992Y-44247D01*
X72992Y-44247D02*
X72992Y-43937D01*
X72992Y-43937D02*
X72480Y-43425D01*
X72440Y-47835D02*
X72795Y-47480D01*
X71575Y-47835D02*
X72440Y-47835D01*
X71457Y-47717D02*
X71575Y-47835D01*
X73273Y-44921D02*
X73273Y-44786D01*
X73273Y-44786D02*
X72778Y-44291D01*
X72778Y-44291D02*
X72778Y-43998D01*
X72778Y-43998D02*
X72283Y-43503D01*
X72283Y-43503D02*
X72283Y-43307D01*
X72283Y-43307D02*
X72087Y-43111D01*
X72087Y-43111D02*
X72087Y-42598D01*
X73273Y-45901D02*
X73273Y-44921D01*
X72795Y-46379D02*
X73273Y-45901D01*
X72795Y-47480D02*
X72795Y-46379D01*
X72874Y-44921D02*
X72402Y-44449D01*
X72402Y-44449D02*
X71535Y-44449D01*
X71535Y-44449D02*
X71535Y-44409D01*
X72402Y-46220D02*
X72874Y-45748D01*
X72402Y-46417D02*
X72402Y-46220D01*
X71535Y-44409D02*
X71417Y-44291D01*
X71417Y-44291D02*
X71378Y-44291D01*
X71732Y-47205D02*
X71968Y-47441D01*
X71968Y-47441D02*
X72283Y-47441D01*
X72283Y-47441D02*
X72402Y-47322D01*
X72402Y-47322D02*
X72402Y-46417D01*
X72874Y-45748D02*
X72874Y-44921D01*
X71772Y-53583D02*
X72520Y-53583D01*
X70512Y-44820D02*
X70433Y-44741D01*
X70725Y-44820D02*
X70512Y-44820D01*
X71024Y-45119D02*
X70725Y-44820D01*
X71024Y-45512D02*
X71024Y-45119D01*
X71063Y-45551D02*
X71024Y-45512D01*
X71220Y-45551D02*
X71063Y-45551D01*
X71417Y-42323D02*
X71377Y-42283D01*
X71377Y-42283D02*
X70906Y-42283D01*
X71024Y-43937D02*
X71024Y-43898D01*
X70473Y-44488D02*
X71024Y-43937D01*
X70433Y-44488D02*
X70473Y-44488D01*
X70433Y-44741D02*
X70433Y-44488D01*
X82205Y-38327D02*
X82205Y-40039D01*
X68543Y-41378D02*
X67874Y-40709D01*
X67874Y-40709D02*
X67874Y-40000D01*
X67874Y-40000D02*
X67480Y-39606D01*
X72677Y-45000D02*
X72441Y-44764D01*
X66457Y-38937D02*
X66457Y-39409D01*
X72126Y-47126D02*
X72047Y-47047D01*
X72047Y-47047D02*
X72047Y-46261D01*
X72047Y-46261D02*
X72677Y-45631D01*
X72677Y-45631D02*
X72677Y-45000D01*
X72441Y-44764D02*
X72205Y-44764D01*
X69803Y-45315D02*
X69803Y-45276D01*
X69843Y-45001D02*
X69606Y-44764D01*
X69606Y-44764D02*
X69606Y-44213D01*
X70512Y-49528D02*
X69843Y-48859D01*
X69843Y-48859D02*
X69843Y-47755D01*
X69843Y-47755D02*
X70354Y-47244D01*
G54D22*
X69843Y-45157D02*
X69843Y-45001D01*
X69803Y-45197D02*
X69843Y-45157D01*
X69803Y-45276D02*
X69803Y-45197D01*
G54D21*
X70354Y-47244D02*
X70354Y-46890D01*
X69803Y-46063D02*
X69803Y-45315D01*
X70354Y-46614D02*
X69803Y-46063D01*
X70354Y-46890D02*
X70354Y-46614D01*
X72520Y-51103D02*
X72520Y-51102D01*
X72874Y-51457D02*
X72520Y-51103D01*
X73071Y-51260D02*
X72717Y-50906D01*
X70039Y-45354D02*
X70039Y-45197D01*
X70039Y-45984D02*
X70039Y-45354D01*
X70591Y-46536D02*
X70039Y-45984D01*
X70591Y-47322D02*
X70591Y-46536D01*
X70158Y-47755D02*
X70591Y-47322D01*
X70158Y-48780D02*
X70158Y-47755D01*
X70669Y-49291D02*
X70158Y-48780D01*
X70709Y-41732D02*
X70906Y-41535D01*
X70906Y-41535D02*
X71181Y-41535D01*
X69449Y-42047D02*
X69724Y-42047D01*
X68307Y-40433D02*
X68937Y-41063D01*
X70078Y-38858D02*
X70078Y-39292D01*
X68937Y-41063D02*
X69370Y-41496D01*
X69370Y-41496D02*
X69370Y-41968D01*
X69370Y-41968D02*
X69449Y-42047D01*
X70078Y-39292D02*
X70000Y-39370D01*
X70000Y-39370D02*
X69291Y-39370D01*
X69291Y-39370D02*
X69094Y-39567D01*
X69094Y-39567D02*
X68543Y-39567D01*
X68543Y-39567D02*
X68307Y-39803D01*
X68307Y-39803D02*
X68307Y-40433D01*
X69212Y-38858D02*
X69212Y-39134D01*
X68425Y-39370D02*
X68228Y-39567D01*
X68976Y-39370D02*
X68425Y-39370D01*
X69212Y-39134D02*
X68976Y-39370D01*
X67992Y-39843D02*
X68071Y-39922D01*
X69252Y-42362D02*
X69724Y-42362D01*
X69173Y-42283D02*
X69252Y-42362D01*
X67992Y-39803D02*
X67992Y-39843D01*
X68858Y-41339D02*
X68661Y-41142D01*
X68859Y-41339D02*
X68858Y-41339D01*
X69134Y-42244D02*
X69173Y-42283D01*
X69134Y-41614D02*
X69134Y-42244D01*
X69134Y-41614D02*
X68859Y-41339D01*
X67992Y-39803D02*
X68228Y-39567D01*
X70906Y-41969D02*
X70985Y-41890D01*
X70985Y-41890D02*
X71654Y-41890D01*
X68071Y-40552D02*
X68661Y-41142D01*
X68071Y-39922D02*
X68071Y-40552D01*
X69567Y-43937D02*
X69449Y-43819D01*
X69725Y-43937D02*
X69567Y-43937D01*
X69843Y-44055D02*
X69725Y-43937D01*
X69449Y-43544D02*
X69449Y-43307D01*
X69646Y-41496D02*
X69646Y-41772D01*
X69292Y-41142D02*
X69646Y-41496D01*
X70944Y-38544D02*
X71417Y-38071D01*
X71417Y-38071D02*
X71654Y-38071D01*
X70944Y-38858D02*
X70944Y-38544D01*
X69291Y-41142D02*
X69292Y-41142D01*
X70944Y-39292D02*
X70590Y-39646D01*
X70944Y-38858D02*
X70944Y-39292D01*
X68543Y-40394D02*
X69291Y-41142D01*
X68543Y-39944D02*
X68543Y-40394D01*
X68684Y-39803D02*
X68543Y-39944D01*
X69173Y-39803D02*
X68684Y-39803D01*
X69330Y-39646D02*
X69173Y-39803D01*
X70590Y-39646D02*
X69330Y-39646D01*
X69449Y-43819D02*
X69449Y-43544D01*
X70197Y-44055D02*
X70197Y-43819D01*
X70197Y-43819D02*
X70197Y-43740D01*
X70197Y-43740D02*
X70522Y-43415D01*
X70522Y-43415D02*
X70551Y-43415D01*
X72756Y-42126D02*
X72087Y-42126D01*
X73189Y-42559D02*
X72756Y-42126D01*
X73188Y-41850D02*
X72087Y-41850D01*
X73307Y-41969D02*
X73188Y-41850D01*
X74055Y-41969D02*
X73307Y-41969D01*
X71772Y-46850D02*
X71732Y-46810D01*
X70827Y-45630D02*
X70827Y-45197D01*
X70827Y-45197D02*
X70630Y-45000D01*
X70630Y-45000D02*
X70393Y-45000D01*
X70393Y-45000D02*
X70236Y-44843D01*
X70236Y-44843D02*
X70236Y-44370D01*
X70236Y-44370D02*
X70512Y-44094D01*
X71732Y-46810D02*
X71732Y-46535D01*
X71732Y-46535D02*
X70827Y-45630D01*
X70630Y-45433D02*
X70630Y-45315D01*
X70630Y-45787D02*
X70630Y-45433D01*
X71457Y-46614D02*
X70630Y-45787D01*
X70630Y-45315D02*
X70551Y-45236D01*
G54D23*
X79072Y-43639D02*
X79094Y-43639D01*
X79055Y-43622D02*
X79072Y-43639D01*
G54D21*
X68465Y-43899D02*
X68386Y-43820D01*
X66811Y-44134D02*
X66142Y-44803D01*
X66811Y-44134D02*
X67363Y-44134D01*
X67363Y-44134D02*
X67599Y-44370D01*
X67599Y-44370D02*
X67755Y-44370D01*
X67755Y-44370D02*
X67952Y-44173D01*
X67952Y-44173D02*
X68346Y-44173D01*
X68346Y-44173D02*
X68465Y-44054D01*
X68465Y-44054D02*
X68465Y-43899D01*
X81535Y-50748D02*
X81535Y-49961D01*
X68386Y-43819D02*
X68386Y-43820D01*
X68819Y-43656D02*
X69128Y-43656D01*
X68386Y-43346D02*
X68386Y-43820D01*
X68386Y-43346D02*
X68386Y-43228D01*
X69128Y-43656D02*
X69208Y-43656D01*
X69208Y-43656D02*
X69213Y-43661D01*
X68937Y-43150D02*
X68937Y-43308D01*
X68779Y-42992D02*
X68937Y-43150D01*
X71654Y-44213D02*
X72362Y-44213D01*
X68937Y-43308D02*
X68746Y-43499D01*
X68746Y-43499D02*
X68746Y-43583D01*
X68746Y-43583D02*
X68819Y-43656D01*
X68386Y-43228D02*
X68622Y-42992D01*
X68622Y-42992D02*
X68779Y-42992D01*
X74921Y-44803D02*
X74331Y-44213D01*
G54D22*
X78957Y-48583D02*
X80453Y-48583D01*
X78839Y-48701D02*
X78957Y-48583D01*
G54D10*
G36*
X73454Y-41161D02*
X73272Y-41343D01*
X73269Y-41346D01*
X73178Y-41438D01*
X72882Y-41438D01*
X73159Y-41161D01*
X73454Y-41161D01*
X73454Y-41161D01*
G37*
G54D22*
X73454Y-41161D02*
X73272Y-41343D01*
X73269Y-41346D01*
X73178Y-41438D01*
X72882Y-41438D01*
X73159Y-41161D01*
X73454Y-41161D01*
G54D10*
G36*
X84020Y-56303D02*
X83500Y-56303D01*
X83500Y-51830D01*
X83487Y-51568D01*
X83425Y-51421D01*
X83425Y-50472D01*
X83425Y-50237D01*
X83335Y-50020D01*
X83169Y-49854D01*
X82953Y-49764D01*
X82718Y-49764D01*
X82501Y-49854D01*
X82459Y-49896D01*
X82459Y-40090D01*
X82459Y-39989D01*
X82421Y-39896D01*
X82421Y-38468D01*
X82459Y-38378D01*
X82459Y-38277D01*
X82421Y-38184D01*
X82349Y-38112D01*
X82256Y-38073D01*
X82155Y-38073D01*
X82062Y-38111D01*
X81990Y-38183D01*
X81951Y-38276D01*
X81951Y-38377D01*
X81989Y-38470D01*
X81989Y-39897D01*
X81951Y-39988D01*
X81951Y-40089D01*
X81989Y-40182D01*
X82061Y-40254D01*
X82154Y-40293D01*
X82255Y-40293D01*
X82348Y-40255D01*
X82420Y-40183D01*
X82459Y-40090D01*
X82459Y-49896D01*
X82335Y-50020D01*
X82245Y-50236D01*
X82245Y-50471D01*
X82335Y-50688D01*
X82501Y-50854D01*
X82717Y-50944D01*
X82952Y-50944D01*
X83169Y-50854D01*
X83335Y-50688D01*
X83425Y-50472D01*
X83425Y-51421D01*
X83411Y-51388D01*
X83309Y-51343D01*
X83224Y-51428D01*
X83224Y-51258D01*
X83179Y-51156D01*
X82933Y-51067D01*
X82671Y-51080D01*
X82491Y-51156D01*
X82446Y-51258D01*
X82835Y-51647D01*
X83224Y-51258D01*
X83224Y-51428D01*
X82920Y-51732D01*
X83309Y-52121D01*
X83411Y-52076D01*
X83500Y-51830D01*
X83500Y-56303D01*
X83224Y-56303D01*
X83224Y-52206D01*
X82835Y-51817D01*
X82750Y-51902D01*
X82750Y-51732D01*
X82361Y-51343D01*
X82259Y-51388D01*
X82170Y-51634D01*
X82183Y-51896D01*
X82259Y-52076D01*
X82361Y-52121D01*
X82750Y-51732D01*
X82750Y-51902D01*
X82446Y-52206D01*
X82491Y-52308D01*
X82737Y-52397D01*
X82999Y-52384D01*
X83179Y-52308D01*
X83224Y-52206D01*
X83224Y-56303D01*
X81789Y-56303D01*
X81789Y-50799D01*
X81789Y-50698D01*
X81751Y-50605D01*
X81751Y-50102D01*
X81789Y-50012D01*
X81789Y-49911D01*
X81751Y-49818D01*
X81679Y-49746D01*
X81586Y-49707D01*
X81485Y-49707D01*
X81392Y-49745D01*
X81320Y-49817D01*
X81281Y-49910D01*
X81281Y-50011D01*
X81319Y-50104D01*
X81319Y-50606D01*
X81281Y-50697D01*
X81281Y-50798D01*
X81319Y-50891D01*
X81391Y-50963D01*
X81484Y-51002D01*
X81585Y-51002D01*
X81678Y-50964D01*
X81750Y-50892D01*
X81789Y-50799D01*
X81789Y-56303D01*
X80707Y-56303D01*
X80707Y-48634D01*
X80707Y-48533D01*
X80669Y-48440D01*
X80597Y-48368D01*
X80504Y-48329D01*
X80403Y-48329D01*
X80310Y-48367D01*
X80290Y-48387D01*
X80051Y-48387D01*
X80051Y-44270D01*
X80051Y-44208D01*
X80051Y-43008D01*
X80027Y-42950D01*
X79983Y-42906D01*
X79925Y-42882D01*
X79863Y-42882D01*
X78263Y-42882D01*
X78205Y-42906D01*
X78161Y-42950D01*
X78137Y-43008D01*
X78137Y-43070D01*
X78137Y-44270D01*
X78161Y-44328D01*
X78205Y-44372D01*
X78263Y-44396D01*
X78325Y-44396D01*
X79925Y-44396D01*
X79983Y-44372D01*
X80027Y-44328D01*
X80051Y-44270D01*
X80051Y-48387D01*
X78957Y-48387D01*
X78956Y-48387D01*
X78941Y-48390D01*
X78882Y-48402D01*
X78818Y-48444D01*
X78816Y-48446D01*
X78815Y-48447D01*
X78789Y-48447D01*
X78696Y-48485D01*
X78624Y-48557D01*
X78585Y-48650D01*
X78585Y-48751D01*
X78623Y-48844D01*
X78695Y-48916D01*
X78788Y-48955D01*
X78889Y-48955D01*
X78982Y-48917D01*
X79054Y-48845D01*
X79081Y-48779D01*
X80290Y-48779D01*
X80309Y-48798D01*
X80402Y-48837D01*
X80503Y-48837D01*
X80596Y-48799D01*
X80668Y-48727D01*
X80707Y-48634D01*
X80707Y-56303D01*
X80133Y-56303D01*
X80133Y-55298D01*
X80133Y-55060D01*
X80132Y-54532D01*
X80096Y-54444D01*
X80029Y-54377D01*
X79942Y-54341D01*
X79847Y-54341D01*
X79213Y-54340D01*
X79154Y-54399D01*
X79154Y-55119D01*
X80074Y-55119D01*
X80133Y-55060D01*
X80133Y-55298D01*
X80074Y-55239D01*
X79154Y-55239D01*
X79154Y-55959D01*
X79213Y-56018D01*
X79847Y-56017D01*
X79942Y-56017D01*
X80029Y-55981D01*
X80096Y-55914D01*
X80132Y-55826D01*
X80133Y-55298D01*
X80133Y-56303D01*
X79034Y-56303D01*
X79034Y-55959D01*
X79034Y-55239D01*
X79034Y-55119D01*
X79034Y-54399D01*
X78975Y-54340D01*
X78341Y-54341D01*
X78246Y-54341D01*
X78159Y-54377D01*
X78092Y-54444D01*
X78056Y-54532D01*
X78055Y-55060D01*
X78114Y-55119D01*
X79034Y-55119D01*
X79034Y-55239D01*
X78114Y-55239D01*
X78055Y-55298D01*
X78056Y-55826D01*
X78092Y-55914D01*
X78159Y-55981D01*
X78246Y-56017D01*
X78341Y-56017D01*
X78975Y-56018D01*
X79034Y-55959D01*
X79034Y-56303D01*
X77834Y-56303D01*
X77834Y-55236D01*
X77834Y-55001D01*
X77744Y-54784D01*
X77578Y-54618D01*
X77362Y-54528D01*
X77127Y-54528D01*
X76910Y-54618D01*
X76744Y-54784D01*
X76654Y-55000D01*
X76654Y-55235D01*
X76744Y-55452D01*
X76910Y-55618D01*
X77126Y-55708D01*
X77361Y-55708D01*
X77578Y-55618D01*
X77744Y-55452D01*
X77834Y-55236D01*
X77834Y-56303D01*
X76456Y-56303D01*
X76456Y-55236D01*
X76456Y-55001D01*
X76366Y-54784D01*
X76200Y-54618D01*
X76081Y-54568D01*
X76081Y-41508D01*
X76081Y-41407D01*
X76044Y-41318D01*
X76081Y-41232D01*
X76081Y-41131D01*
X76043Y-41038D01*
X75971Y-40966D01*
X75878Y-40927D01*
X75799Y-40927D01*
X75665Y-40792D01*
X75595Y-40745D01*
X75512Y-40729D01*
X73898Y-40729D01*
X73368Y-40729D01*
X73368Y-37835D01*
X73309Y-37776D01*
X72914Y-37776D01*
X72914Y-38230D01*
X72973Y-38289D01*
X73176Y-38288D01*
X73264Y-38252D01*
X73331Y-38185D01*
X73367Y-38098D01*
X73367Y-38003D01*
X73368Y-37835D01*
X73368Y-40729D01*
X73070Y-40729D01*
X72987Y-40745D01*
X72917Y-40792D01*
X72914Y-40795D01*
X72794Y-40915D01*
X72794Y-38230D01*
X72794Y-37776D01*
X72399Y-37776D01*
X72340Y-37835D01*
X72341Y-38003D01*
X72341Y-38098D01*
X72377Y-38185D01*
X72444Y-38252D01*
X72532Y-38288D01*
X72735Y-38289D01*
X72794Y-38230D01*
X72794Y-40915D01*
X72547Y-41162D01*
X71941Y-41162D01*
X71492Y-40713D01*
X71422Y-40666D01*
X71339Y-40650D01*
X69498Y-40650D01*
X69425Y-40577D01*
X69389Y-40487D01*
X69317Y-40415D01*
X69224Y-40376D01*
X69123Y-40376D01*
X69030Y-40414D01*
X68958Y-40486D01*
X68952Y-40498D01*
X68759Y-40304D01*
X68759Y-40033D01*
X68773Y-40019D01*
X69173Y-40019D01*
X69256Y-40003D01*
X69326Y-39956D01*
X69420Y-39862D01*
X70590Y-39862D01*
X70673Y-39846D01*
X70743Y-39799D01*
X71093Y-39447D01*
X71096Y-39445D01*
X71097Y-39445D01*
X71144Y-39375D01*
X71158Y-39298D01*
X71160Y-39298D01*
X71189Y-39310D01*
X71251Y-39310D01*
X71565Y-39310D01*
X71623Y-39286D01*
X71667Y-39242D01*
X71691Y-39184D01*
X71691Y-39122D01*
X71691Y-38532D01*
X71667Y-38474D01*
X71623Y-38430D01*
X71565Y-38406D01*
X71503Y-38406D01*
X71387Y-38406D01*
X71506Y-38287D01*
X71512Y-38287D01*
X71603Y-38325D01*
X71704Y-38325D01*
X71797Y-38287D01*
X71869Y-38215D01*
X71908Y-38122D01*
X71908Y-38021D01*
X71870Y-37928D01*
X71798Y-37856D01*
X71705Y-37817D01*
X71604Y-37817D01*
X71511Y-37855D01*
X71417Y-37855D01*
X71416Y-37855D01*
X71402Y-37857D01*
X71334Y-37871D01*
X71264Y-37918D01*
X71261Y-37921D01*
X70812Y-38370D01*
X70803Y-38361D01*
X70715Y-38325D01*
X70630Y-38324D01*
X70571Y-38383D01*
X70571Y-38758D01*
X70571Y-38798D01*
X70571Y-38918D01*
X70571Y-38958D01*
X70571Y-39333D01*
X70584Y-39346D01*
X70500Y-39430D01*
X70241Y-39430D01*
X70275Y-39378D01*
X70307Y-39391D01*
X70392Y-39392D01*
X70451Y-39333D01*
X70451Y-38958D01*
X70451Y-38918D01*
X70451Y-38798D01*
X70451Y-38758D01*
X70451Y-38383D01*
X70392Y-38324D01*
X70307Y-38325D01*
X70219Y-38361D01*
X70174Y-38406D01*
X69890Y-38406D01*
X69861Y-38417D01*
X69861Y-38405D01*
X69860Y-38404D01*
X69861Y-38404D01*
X69858Y-38390D01*
X69845Y-38322D01*
X69798Y-38252D01*
X69795Y-38249D01*
X69680Y-38134D01*
X69610Y-38087D01*
X69527Y-38071D01*
X69117Y-38071D01*
X69027Y-38033D01*
X68926Y-38033D01*
X68833Y-38071D01*
X68761Y-38143D01*
X68722Y-38236D01*
X68722Y-38337D01*
X68750Y-38406D01*
X68591Y-38406D01*
X68562Y-38417D01*
X68534Y-38406D01*
X68472Y-38406D01*
X68289Y-38406D01*
X68289Y-37835D01*
X68230Y-37776D01*
X67835Y-37776D01*
X67835Y-38230D01*
X67894Y-38289D01*
X68097Y-38288D01*
X68185Y-38252D01*
X68252Y-38185D01*
X68288Y-38098D01*
X68288Y-38003D01*
X68289Y-37835D01*
X68289Y-38406D01*
X68158Y-38406D01*
X68100Y-38430D01*
X68056Y-38474D01*
X68032Y-38532D01*
X68032Y-38594D01*
X68032Y-39184D01*
X68056Y-39242D01*
X68100Y-39286D01*
X68158Y-39310D01*
X68179Y-39310D01*
X68175Y-39314D01*
X68085Y-39351D01*
X68013Y-39423D01*
X67974Y-39515D01*
X67839Y-39650D01*
X67835Y-39655D01*
X67732Y-39552D01*
X67715Y-39509D01*
X67715Y-38230D01*
X67715Y-37776D01*
X67320Y-37776D01*
X67261Y-37835D01*
X67262Y-38003D01*
X67262Y-38098D01*
X67298Y-38185D01*
X67365Y-38252D01*
X67453Y-38288D01*
X67656Y-38289D01*
X67715Y-38230D01*
X67715Y-39509D01*
X67696Y-39463D01*
X67624Y-39391D01*
X67531Y-39352D01*
X67430Y-39352D01*
X67337Y-39390D01*
X67265Y-39462D01*
X67226Y-39555D01*
X67226Y-39656D01*
X67264Y-39749D01*
X67336Y-39821D01*
X67427Y-39859D01*
X67658Y-40090D01*
X67658Y-40709D01*
X67674Y-40792D01*
X67721Y-40862D01*
X67880Y-41021D01*
X67845Y-41021D01*
X67786Y-41080D01*
X67786Y-41495D01*
X68132Y-41495D01*
X68191Y-41436D01*
X68190Y-41331D01*
X68290Y-41431D01*
X68327Y-41521D01*
X68399Y-41593D01*
X68492Y-41632D01*
X68593Y-41632D01*
X68686Y-41594D01*
X68747Y-41532D01*
X68918Y-41703D01*
X68918Y-42244D01*
X68934Y-42327D01*
X68981Y-42397D01*
X69020Y-42436D01*
X69097Y-42512D01*
X69099Y-42515D01*
X69169Y-42562D01*
X69251Y-42578D01*
X69251Y-42577D01*
X69252Y-42578D01*
X69582Y-42578D01*
X69673Y-42616D01*
X69774Y-42616D01*
X69867Y-42578D01*
X69939Y-42506D01*
X69978Y-42413D01*
X69978Y-42312D01*
X69940Y-42219D01*
X69925Y-42204D01*
X69939Y-42191D01*
X69978Y-42098D01*
X69978Y-41997D01*
X69940Y-41904D01*
X69887Y-41851D01*
X69900Y-41823D01*
X69900Y-41722D01*
X69862Y-41629D01*
X69862Y-41496D01*
X69846Y-41413D01*
X69799Y-41343D01*
X69795Y-41340D01*
X69537Y-41082D01*
X71249Y-41082D01*
X71479Y-41312D01*
X71439Y-41352D01*
X71409Y-41422D01*
X71397Y-41392D01*
X71325Y-41320D01*
X71232Y-41281D01*
X71131Y-41281D01*
X71038Y-41319D01*
X70906Y-41319D01*
X70823Y-41335D01*
X70753Y-41382D01*
X70750Y-41385D01*
X70656Y-41479D01*
X70566Y-41516D01*
X70494Y-41588D01*
X70455Y-41681D01*
X70455Y-41782D01*
X70493Y-41875D01*
X70565Y-41947D01*
X70652Y-41983D01*
X70652Y-42019D01*
X70690Y-42112D01*
X70704Y-42126D01*
X70691Y-42139D01*
X70652Y-42232D01*
X70652Y-42333D01*
X70690Y-42426D01*
X70762Y-42498D01*
X70855Y-42537D01*
X70956Y-42537D01*
X71049Y-42499D01*
X71234Y-42499D01*
X71273Y-42538D01*
X71366Y-42577D01*
X71467Y-42577D01*
X71560Y-42539D01*
X71632Y-42467D01*
X71634Y-42462D01*
X71634Y-42599D01*
X71634Y-42950D01*
X71575Y-42950D01*
X71516Y-43009D01*
X71516Y-43315D01*
X71516Y-43355D01*
X71516Y-43475D01*
X71516Y-43515D01*
X71516Y-43821D01*
X71575Y-43880D01*
X71798Y-43879D01*
X71872Y-43848D01*
X71872Y-43948D01*
X71892Y-43997D01*
X71795Y-43997D01*
X71705Y-43959D01*
X71604Y-43959D01*
X71511Y-43997D01*
X71458Y-44049D01*
X71429Y-44037D01*
X71328Y-44037D01*
X71235Y-44075D01*
X71163Y-44147D01*
X71124Y-44240D01*
X71124Y-44341D01*
X71162Y-44434D01*
X71234Y-44506D01*
X71327Y-44545D01*
X71343Y-44545D01*
X71382Y-44602D01*
X71452Y-44649D01*
X71535Y-44665D01*
X71971Y-44665D01*
X71951Y-44713D01*
X71951Y-44814D01*
X71989Y-44907D01*
X72061Y-44979D01*
X72154Y-45018D01*
X72255Y-45018D01*
X72348Y-44980D01*
X72351Y-44980D01*
X72461Y-45089D01*
X72461Y-45541D01*
X71894Y-46108D01*
X71847Y-46178D01*
X71831Y-46261D01*
X71831Y-46328D01*
X71296Y-45794D01*
X71363Y-45767D01*
X71435Y-45695D01*
X71474Y-45602D01*
X71474Y-45501D01*
X71436Y-45408D01*
X71364Y-45336D01*
X71271Y-45297D01*
X71240Y-45297D01*
X71240Y-45119D01*
X71239Y-45118D01*
X71240Y-45118D01*
X71224Y-45036D01*
X71177Y-44966D01*
X71173Y-44963D01*
X70878Y-44667D01*
X70808Y-44620D01*
X70725Y-44604D01*
X70663Y-44604D01*
X71143Y-44123D01*
X71167Y-44114D01*
X71239Y-44042D01*
X71278Y-43949D01*
X71278Y-43879D01*
X71337Y-43880D01*
X71396Y-43821D01*
X71396Y-43515D01*
X71396Y-43475D01*
X71396Y-43355D01*
X71396Y-43315D01*
X71396Y-43009D01*
X71337Y-42950D01*
X71114Y-42951D01*
X71026Y-42987D01*
X70959Y-43054D01*
X70951Y-43072D01*
X70935Y-43056D01*
X70877Y-43032D01*
X70815Y-43032D01*
X70225Y-43032D01*
X70167Y-43056D01*
X70123Y-43100D01*
X70099Y-43158D01*
X70099Y-43220D01*
X70099Y-43532D01*
X70044Y-43587D01*
X69997Y-43657D01*
X69981Y-43740D01*
X69981Y-43819D01*
X69981Y-43837D01*
X69895Y-43801D01*
X69894Y-43801D01*
X69878Y-43784D01*
X69808Y-43737D01*
X69725Y-43721D01*
X69665Y-43721D01*
X69665Y-43544D01*
X69665Y-43448D01*
X69703Y-43358D01*
X69703Y-43257D01*
X69665Y-43164D01*
X69593Y-43092D01*
X69500Y-43053D01*
X69399Y-43053D01*
X69306Y-43091D01*
X69234Y-43163D01*
X69195Y-43256D01*
X69195Y-43357D01*
X69215Y-43407D01*
X69163Y-43407D01*
X69112Y-43427D01*
X69137Y-43391D01*
X69153Y-43308D01*
X69153Y-43150D01*
X69137Y-43067D01*
X69090Y-42997D01*
X69086Y-42994D01*
X68932Y-42839D01*
X68862Y-42792D01*
X68779Y-42776D01*
X68622Y-42776D01*
X68621Y-42776D01*
X68539Y-42792D01*
X68469Y-42839D01*
X68466Y-42842D01*
X68339Y-42969D01*
X68294Y-42951D01*
X68191Y-42950D01*
X68191Y-41674D01*
X68132Y-41615D01*
X67786Y-41615D01*
X67786Y-42030D01*
X67845Y-42089D01*
X67999Y-42088D01*
X68087Y-42052D01*
X68154Y-41985D01*
X68190Y-41898D01*
X68190Y-41803D01*
X68191Y-41674D01*
X68191Y-42950D01*
X68071Y-42950D01*
X68012Y-43009D01*
X68012Y-43315D01*
X68012Y-43355D01*
X68012Y-43475D01*
X68012Y-43515D01*
X68012Y-43821D01*
X68071Y-43880D01*
X68181Y-43879D01*
X68186Y-43903D01*
X68222Y-43957D01*
X67952Y-43957D01*
X67892Y-43968D01*
X67892Y-43821D01*
X67892Y-43475D01*
X67892Y-43355D01*
X67892Y-43009D01*
X67833Y-42950D01*
X67666Y-42950D01*
X67666Y-42030D01*
X67666Y-41615D01*
X67666Y-41495D01*
X67666Y-41080D01*
X67607Y-41021D01*
X67453Y-41022D01*
X67365Y-41058D01*
X67298Y-41125D01*
X67262Y-41212D01*
X67262Y-41307D01*
X67261Y-41436D01*
X67320Y-41495D01*
X67666Y-41495D01*
X67666Y-41615D01*
X67320Y-41615D01*
X67261Y-41674D01*
X67262Y-41803D01*
X67262Y-41898D01*
X67298Y-41985D01*
X67365Y-42052D01*
X67453Y-42088D01*
X67607Y-42089D01*
X67666Y-42030D01*
X67666Y-42950D01*
X67610Y-42951D01*
X67522Y-42987D01*
X67455Y-43054D01*
X67419Y-43141D01*
X67419Y-43236D01*
X67418Y-43296D01*
X67477Y-43355D01*
X67892Y-43355D01*
X67892Y-43475D01*
X67477Y-43475D01*
X67418Y-43534D01*
X67419Y-43594D01*
X67419Y-43689D01*
X67455Y-43776D01*
X67522Y-43843D01*
X67610Y-43879D01*
X67833Y-43880D01*
X67892Y-43821D01*
X67892Y-43968D01*
X67869Y-43973D01*
X67799Y-44020D01*
X67796Y-44023D01*
X67676Y-44142D01*
X67516Y-43981D01*
X67446Y-43934D01*
X67363Y-43918D01*
X66811Y-43918D01*
X66728Y-43934D01*
X66711Y-43945D01*
X66711Y-41705D01*
X66711Y-41604D01*
X66673Y-41511D01*
X66673Y-41283D01*
X66711Y-41193D01*
X66711Y-41092D01*
X66711Y-39460D01*
X66711Y-39359D01*
X66673Y-39266D01*
X66673Y-39078D01*
X66711Y-38988D01*
X66711Y-38887D01*
X66673Y-38794D01*
X66601Y-38722D01*
X66508Y-38683D01*
X66407Y-38683D01*
X66314Y-38721D01*
X66242Y-38793D01*
X66203Y-38886D01*
X66203Y-38987D01*
X66241Y-39080D01*
X66241Y-39267D01*
X66203Y-39358D01*
X66203Y-39459D01*
X66241Y-39552D01*
X66313Y-39624D01*
X66406Y-39663D01*
X66507Y-39663D01*
X66600Y-39625D01*
X66672Y-39553D01*
X66711Y-39460D01*
X66711Y-41092D01*
X66673Y-40999D01*
X66601Y-40927D01*
X66508Y-40888D01*
X66407Y-40888D01*
X66314Y-40926D01*
X66242Y-40998D01*
X66203Y-41091D01*
X66203Y-41192D01*
X66241Y-41285D01*
X66241Y-41512D01*
X66203Y-41603D01*
X66203Y-41704D01*
X66241Y-41797D01*
X66313Y-41869D01*
X66406Y-41908D01*
X66507Y-41908D01*
X66600Y-41870D01*
X66672Y-41798D01*
X66711Y-41705D01*
X66711Y-43945D01*
X66658Y-43981D01*
X66088Y-44550D01*
X65999Y-44587D01*
X65927Y-44659D01*
X65888Y-44752D01*
X65888Y-44853D01*
X65926Y-44946D01*
X65998Y-45018D01*
X66091Y-45057D01*
X66192Y-45057D01*
X66285Y-45019D01*
X66357Y-44947D01*
X66395Y-44855D01*
X66396Y-44854D01*
X66568Y-44683D01*
X66628Y-44743D01*
X66721Y-44782D01*
X66822Y-44782D01*
X66915Y-44744D01*
X66987Y-44672D01*
X67006Y-44625D01*
X67187Y-44625D01*
X67187Y-44696D01*
X67225Y-44789D01*
X67225Y-45685D01*
X67187Y-45776D01*
X67187Y-45877D01*
X67207Y-45927D01*
X67194Y-45927D01*
X67101Y-45965D01*
X67029Y-46037D01*
X66990Y-46130D01*
X66990Y-46231D01*
X67028Y-46324D01*
X67100Y-46396D01*
X67187Y-46432D01*
X67187Y-46467D01*
X67225Y-46560D01*
X67297Y-46632D01*
X67384Y-46668D01*
X67384Y-46704D01*
X67422Y-46797D01*
X67494Y-46869D01*
X67587Y-46908D01*
X67620Y-46908D01*
X67620Y-46940D01*
X67658Y-47033D01*
X67730Y-47105D01*
X67777Y-47124D01*
X67777Y-47176D01*
X67815Y-47269D01*
X67887Y-47341D01*
X67980Y-47380D01*
X68081Y-47380D01*
X68174Y-47342D01*
X68208Y-47307D01*
X68209Y-47308D01*
X68281Y-47380D01*
X68374Y-47419D01*
X68475Y-47419D01*
X68568Y-47381D01*
X68640Y-47309D01*
X68678Y-47217D01*
X68679Y-47216D01*
X69165Y-46729D01*
X69168Y-46727D01*
X69169Y-46727D01*
X69216Y-46657D01*
X69232Y-46575D01*
X69231Y-46574D01*
X69232Y-46574D01*
X69232Y-46505D01*
X69589Y-46862D01*
X69627Y-46954D01*
X69699Y-47026D01*
X69792Y-47065D01*
X69845Y-47065D01*
X69825Y-47114D01*
X69825Y-47215D01*
X69863Y-47308D01*
X69923Y-47368D01*
X69690Y-47602D01*
X69643Y-47672D01*
X69627Y-47755D01*
X69627Y-48859D01*
X69643Y-48942D01*
X69690Y-49012D01*
X70199Y-49521D01*
X70133Y-49548D01*
X70061Y-49620D01*
X70022Y-49713D01*
X70022Y-49814D01*
X70060Y-49907D01*
X70110Y-49957D01*
X70123Y-49976D01*
X70516Y-50369D01*
X70553Y-50459D01*
X70625Y-50531D01*
X70718Y-50570D01*
X70819Y-50570D01*
X70912Y-50532D01*
X70984Y-50460D01*
X71023Y-50367D01*
X71023Y-50266D01*
X70985Y-50173D01*
X70913Y-50101D01*
X70821Y-50062D01*
X70541Y-49782D01*
X70562Y-49782D01*
X70655Y-49744D01*
X70727Y-49672D01*
X70766Y-49579D01*
X70766Y-49525D01*
X70812Y-49507D01*
X70884Y-49435D01*
X70923Y-49342D01*
X70923Y-49241D01*
X70885Y-49148D01*
X70851Y-49114D01*
X71170Y-49114D01*
X71242Y-49186D01*
X71280Y-49277D01*
X71352Y-49349D01*
X71445Y-49388D01*
X71546Y-49388D01*
X71639Y-49350D01*
X71711Y-49278D01*
X71750Y-49185D01*
X71750Y-49084D01*
X71712Y-48991D01*
X71640Y-48919D01*
X71547Y-48880D01*
X71423Y-48755D01*
X71413Y-48745D01*
X71343Y-48698D01*
X71260Y-48682D01*
X70721Y-48682D01*
X70610Y-48571D01*
X70610Y-47963D01*
X70976Y-47596D01*
X70979Y-47594D01*
X70980Y-47594D01*
X71027Y-47524D01*
X71043Y-47441D01*
X71043Y-46505D01*
X71203Y-46665D01*
X71241Y-46757D01*
X71313Y-46829D01*
X71406Y-46868D01*
X71507Y-46868D01*
X71518Y-46863D01*
X71518Y-46900D01*
X71556Y-46993D01*
X71570Y-47007D01*
X71517Y-47061D01*
X71480Y-47148D01*
X71446Y-47148D01*
X71353Y-47186D01*
X71281Y-47258D01*
X71242Y-47351D01*
X71242Y-47452D01*
X71277Y-47537D01*
X71242Y-47573D01*
X71203Y-47666D01*
X71203Y-47767D01*
X71241Y-47860D01*
X71275Y-47894D01*
X71242Y-47927D01*
X71203Y-48020D01*
X71203Y-48121D01*
X71241Y-48214D01*
X71313Y-48286D01*
X71406Y-48325D01*
X71507Y-48325D01*
X71600Y-48287D01*
X72559Y-48287D01*
X72642Y-48271D01*
X72712Y-48224D01*
X73180Y-47754D01*
X73183Y-47752D01*
X73184Y-47752D01*
X73231Y-47682D01*
X73247Y-47599D01*
X73247Y-46547D01*
X73602Y-46191D01*
X73605Y-46189D01*
X73606Y-46189D01*
X73653Y-46119D01*
X73669Y-46037D01*
X73668Y-46036D01*
X73669Y-46036D01*
X73669Y-45236D01*
X73669Y-44961D01*
X73669Y-44708D01*
X73668Y-44707D01*
X73669Y-44707D01*
X73666Y-44693D01*
X73653Y-44625D01*
X73606Y-44555D01*
X73602Y-44552D01*
X73208Y-44157D01*
X73208Y-43937D01*
X73192Y-43854D01*
X73145Y-43784D01*
X72696Y-43335D01*
X72696Y-43228D01*
X72680Y-43145D01*
X72633Y-43075D01*
X72539Y-42981D01*
X72539Y-42913D01*
X72539Y-42638D01*
X72539Y-42480D01*
X72538Y-42479D01*
X72539Y-42479D01*
X72536Y-42465D01*
X72523Y-42397D01*
X72486Y-42342D01*
X72666Y-42342D01*
X72935Y-42611D01*
X72973Y-42702D01*
X73045Y-42774D01*
X73138Y-42813D01*
X73239Y-42813D01*
X73332Y-42775D01*
X73404Y-42703D01*
X73443Y-42610D01*
X73443Y-42509D01*
X73405Y-42416D01*
X73333Y-42344D01*
X73240Y-42305D01*
X73001Y-42066D01*
X73098Y-42066D01*
X73154Y-42122D01*
X73224Y-42169D01*
X73307Y-42185D01*
X73913Y-42185D01*
X74004Y-42223D01*
X74105Y-42223D01*
X74198Y-42185D01*
X74270Y-42113D01*
X74309Y-42020D01*
X74309Y-41919D01*
X74271Y-41826D01*
X74199Y-41754D01*
X74106Y-41715D01*
X74005Y-41715D01*
X73912Y-41753D01*
X73475Y-41753D01*
X73578Y-41650D01*
X73578Y-41649D01*
X73580Y-41646D01*
X73868Y-41358D01*
X75097Y-41358D01*
X75061Y-41445D01*
X75061Y-41546D01*
X75099Y-41639D01*
X75099Y-41937D01*
X74434Y-42601D01*
X74345Y-42638D01*
X73740Y-42638D01*
X73657Y-42654D01*
X73587Y-42701D01*
X73174Y-43113D01*
X73085Y-43150D01*
X73013Y-43222D01*
X72974Y-43315D01*
X72974Y-43416D01*
X73012Y-43509D01*
X73084Y-43581D01*
X73177Y-43620D01*
X73278Y-43620D01*
X73371Y-43582D01*
X73443Y-43510D01*
X73481Y-43418D01*
X73482Y-43417D01*
X73830Y-43070D01*
X74346Y-43070D01*
X74437Y-43108D01*
X74538Y-43108D01*
X74631Y-43070D01*
X74703Y-42998D01*
X74741Y-42906D01*
X74742Y-42905D01*
X75464Y-42182D01*
X75467Y-42180D01*
X75468Y-42180D01*
X75515Y-42110D01*
X75531Y-42027D01*
X75531Y-41637D01*
X75558Y-41572D01*
X75592Y-41606D01*
X75595Y-41610D01*
X75665Y-41657D01*
X75668Y-41657D01*
X75683Y-41672D01*
X75776Y-41711D01*
X75877Y-41711D01*
X75970Y-41673D01*
X76042Y-41601D01*
X76081Y-41508D01*
X76081Y-54568D01*
X75984Y-54528D01*
X75980Y-54528D01*
X75980Y-50009D01*
X75966Y-49763D01*
X75898Y-49600D01*
X75799Y-49561D01*
X75714Y-49646D01*
X75714Y-49476D01*
X75675Y-49377D01*
X75442Y-49295D01*
X75196Y-49309D01*
X75175Y-49317D01*
X75175Y-44854D01*
X75175Y-44753D01*
X75137Y-44660D01*
X75065Y-44588D01*
X74972Y-44549D01*
X74583Y-44159D01*
X74547Y-44070D01*
X74475Y-43998D01*
X74382Y-43959D01*
X74281Y-43959D01*
X74188Y-43997D01*
X74116Y-44069D01*
X74077Y-44162D01*
X74077Y-44263D01*
X74115Y-44356D01*
X74187Y-44428D01*
X74278Y-44466D01*
X74280Y-44467D01*
X74667Y-44854D01*
X74705Y-44946D01*
X74777Y-45018D01*
X74870Y-45057D01*
X74971Y-45057D01*
X75064Y-45019D01*
X75136Y-44947D01*
X75175Y-44854D01*
X75175Y-49317D01*
X75033Y-49377D01*
X74994Y-49476D01*
X75354Y-49836D01*
X75714Y-49476D01*
X75714Y-49646D01*
X75439Y-49921D01*
X75799Y-50281D01*
X75898Y-50242D01*
X75980Y-50009D01*
X75980Y-54528D01*
X75903Y-54528D01*
X75903Y-51999D01*
X75903Y-51781D01*
X75819Y-51579D01*
X75714Y-51474D01*
X75714Y-50366D01*
X75354Y-50006D01*
X75269Y-50091D01*
X75269Y-49921D01*
X74909Y-49561D01*
X74810Y-49600D01*
X74728Y-49833D01*
X74742Y-50079D01*
X74810Y-50242D01*
X74909Y-50281D01*
X75269Y-49921D01*
X75269Y-50091D01*
X74994Y-50366D01*
X75033Y-50465D01*
X75266Y-50547D01*
X75512Y-50533D01*
X75675Y-50465D01*
X75714Y-50366D01*
X75714Y-51474D01*
X75665Y-51425D01*
X75463Y-51341D01*
X75245Y-51341D01*
X75043Y-51425D01*
X74889Y-51579D01*
X74805Y-51781D01*
X74805Y-51999D01*
X74889Y-52201D01*
X75043Y-52355D01*
X75245Y-52439D01*
X75463Y-52439D01*
X75665Y-52355D01*
X75819Y-52201D01*
X75903Y-51999D01*
X75903Y-54528D01*
X75749Y-54528D01*
X75532Y-54618D01*
X75366Y-54784D01*
X75276Y-55000D01*
X75276Y-55235D01*
X75366Y-55452D01*
X75532Y-55618D01*
X75748Y-55708D01*
X75983Y-55708D01*
X76200Y-55618D01*
X76366Y-55452D01*
X76456Y-55236D01*
X76456Y-56303D01*
X73561Y-56303D01*
X73561Y-51114D01*
X73561Y-51013D01*
X73523Y-50920D01*
X73451Y-50848D01*
X73359Y-50809D01*
X73165Y-50615D01*
X73129Y-50526D01*
X73057Y-50454D01*
X72964Y-50415D01*
X72863Y-50415D01*
X72770Y-50453D01*
X72698Y-50525D01*
X72659Y-50618D01*
X72659Y-50655D01*
X72574Y-50690D01*
X72502Y-50762D01*
X72465Y-50850D01*
X72377Y-50886D01*
X72305Y-50958D01*
X72266Y-51051D01*
X72266Y-51152D01*
X72304Y-51245D01*
X72376Y-51317D01*
X72466Y-51354D01*
X72620Y-51509D01*
X72658Y-51600D01*
X72730Y-51672D01*
X72823Y-51711D01*
X72924Y-51711D01*
X73017Y-51673D01*
X73089Y-51601D01*
X73126Y-51511D01*
X73214Y-51476D01*
X73286Y-51404D01*
X73322Y-51317D01*
X73357Y-51317D01*
X73450Y-51279D01*
X73522Y-51207D01*
X73561Y-51114D01*
X73561Y-56303D01*
X72774Y-56303D01*
X72774Y-53634D01*
X72774Y-53533D01*
X72736Y-53440D01*
X72664Y-53368D01*
X72571Y-53329D01*
X72470Y-53329D01*
X72377Y-53367D01*
X71913Y-53367D01*
X71823Y-53329D01*
X71722Y-53329D01*
X71629Y-53367D01*
X71557Y-53439D01*
X71518Y-53532D01*
X71518Y-53633D01*
X71556Y-53726D01*
X71628Y-53798D01*
X71721Y-53837D01*
X71822Y-53837D01*
X71915Y-53799D01*
X72378Y-53799D01*
X72469Y-53837D01*
X72570Y-53837D01*
X72663Y-53799D01*
X72735Y-53727D01*
X72774Y-53634D01*
X72774Y-56303D01*
X67321Y-56303D01*
X67321Y-50645D01*
X67321Y-50489D01*
X67321Y-48723D01*
X67321Y-48567D01*
X67261Y-48423D01*
X67151Y-48313D01*
X67007Y-48253D01*
X66851Y-48253D01*
X66707Y-48313D01*
X66597Y-48423D01*
X66537Y-48567D01*
X66537Y-48723D01*
X66597Y-48867D01*
X66707Y-48977D01*
X66851Y-49037D01*
X67007Y-49037D01*
X67151Y-48977D01*
X67261Y-48867D01*
X67321Y-48723D01*
X67321Y-50489D01*
X67261Y-50345D01*
X67151Y-50235D01*
X67007Y-50175D01*
X66851Y-50175D01*
X66707Y-50235D01*
X66597Y-50345D01*
X66537Y-50489D01*
X66537Y-50645D01*
X66597Y-50789D01*
X66707Y-50899D01*
X66851Y-50959D01*
X67007Y-50959D01*
X67151Y-50899D01*
X67261Y-50789D01*
X67321Y-50645D01*
X67321Y-56303D01*
X67203Y-56303D01*
X67249Y-56257D01*
X67285Y-56169D01*
X67286Y-56005D01*
X67286Y-55767D01*
X67286Y-52737D01*
X67286Y-52499D01*
X67285Y-52335D01*
X67249Y-52247D01*
X67182Y-52180D01*
X67095Y-52144D01*
X67000Y-52144D01*
X66182Y-52143D01*
X66123Y-52202D01*
X66123Y-52558D01*
X67227Y-52558D01*
X67286Y-52499D01*
X67286Y-52737D01*
X67227Y-52678D01*
X66123Y-52678D01*
X66123Y-53034D01*
X66182Y-53093D01*
X67000Y-53092D01*
X67095Y-53092D01*
X67182Y-53056D01*
X67249Y-52989D01*
X67285Y-52901D01*
X67286Y-52737D01*
X67286Y-55767D01*
X67285Y-55603D01*
X67249Y-55515D01*
X67182Y-55448D01*
X67095Y-55412D01*
X67000Y-55412D01*
X66182Y-55411D01*
X66123Y-55470D01*
X66123Y-55826D01*
X67227Y-55826D01*
X67286Y-55767D01*
X67286Y-56005D01*
X67227Y-55946D01*
X66163Y-55946D01*
X66123Y-55946D01*
X66003Y-55946D01*
X66003Y-55826D01*
X66003Y-55786D01*
X66003Y-55470D01*
X65944Y-55411D01*
X65193Y-55411D01*
X65193Y-53092D01*
X65944Y-53093D01*
X66003Y-53034D01*
X66003Y-52718D01*
X66003Y-52678D01*
X66003Y-52558D01*
X66003Y-52518D01*
X66003Y-52202D01*
X65944Y-52143D01*
X65193Y-52143D01*
X65193Y-37476D01*
X67261Y-37476D01*
X67261Y-37597D01*
X67320Y-37656D01*
X67675Y-37656D01*
X67715Y-37656D01*
X67835Y-37656D01*
X67875Y-37656D01*
X68230Y-37656D01*
X68289Y-37597D01*
X68288Y-37476D01*
X72340Y-37476D01*
X72340Y-37597D01*
X72399Y-37656D01*
X72754Y-37656D01*
X72794Y-37656D01*
X72914Y-37656D01*
X72954Y-37656D01*
X73309Y-37656D01*
X73368Y-37597D01*
X73367Y-37476D01*
X84020Y-37476D01*
X84020Y-40360D01*
X83936Y-40377D01*
X83887Y-40398D01*
X83851Y-40413D01*
X83821Y-40433D01*
X83386Y-40433D01*
X83386Y-40904D01*
X83370Y-40944D01*
X83330Y-41139D01*
X83319Y-41163D01*
X83315Y-41210D01*
X83315Y-41215D01*
X83315Y-41222D01*
X83313Y-41254D01*
X83315Y-41272D01*
X83316Y-41305D01*
X83322Y-41321D01*
X83352Y-41527D01*
X83382Y-41613D01*
X83386Y-41619D01*
X83386Y-42086D01*
X83806Y-42086D01*
X83808Y-42086D01*
X83860Y-42112D01*
X83887Y-42125D01*
X83888Y-42125D01*
X84020Y-42158D01*
X84020Y-56303D01*
X84020Y-56303D01*
G37*
G54D22*
X84020Y-56303D02*
X83500Y-56303D01*
X83500Y-51830D01*
X83487Y-51568D01*
X83425Y-51421D01*
X83425Y-50472D01*
X83425Y-50237D01*
X83335Y-50020D01*
X83169Y-49854D01*
X82953Y-49764D01*
X82718Y-49764D01*
X82501Y-49854D01*
X82459Y-49896D01*
X82459Y-40090D01*
X82459Y-39989D01*
X82421Y-39896D01*
X82421Y-38468D01*
X82459Y-38378D01*
X82459Y-38277D01*
X82421Y-38184D01*
X82349Y-38112D01*
X82256Y-38073D01*
X82155Y-38073D01*
X82062Y-38111D01*
X81990Y-38183D01*
X81951Y-38276D01*
X81951Y-38377D01*
X81989Y-38470D01*
X81989Y-39897D01*
X81951Y-39988D01*
X81951Y-40089D01*
X81989Y-40182D01*
X82061Y-40254D01*
X82154Y-40293D01*
X82255Y-40293D01*
X82348Y-40255D01*
X82420Y-40183D01*
X82459Y-40090D01*
X82459Y-49896D01*
X82335Y-50020D01*
X82245Y-50236D01*
X82245Y-50471D01*
X82335Y-50688D01*
X82501Y-50854D01*
X82717Y-50944D01*
X82952Y-50944D01*
X83169Y-50854D01*
X83335Y-50688D01*
X83425Y-50472D01*
X83425Y-51421D01*
X83411Y-51388D01*
X83309Y-51343D01*
X83224Y-51428D01*
X83224Y-51258D01*
X83179Y-51156D01*
X82933Y-51067D01*
X82671Y-51080D01*
X82491Y-51156D01*
X82446Y-51258D01*
X82835Y-51647D01*
X83224Y-51258D01*
X83224Y-51428D01*
X82920Y-51732D01*
X83309Y-52121D01*
X83411Y-52076D01*
X83500Y-51830D01*
X83500Y-56303D01*
X83224Y-56303D01*
X83224Y-52206D01*
X82835Y-51817D01*
X82750Y-51902D01*
X82750Y-51732D01*
X82361Y-51343D01*
X82259Y-51388D01*
X82170Y-51634D01*
X82183Y-51896D01*
X82259Y-52076D01*
X82361Y-52121D01*
X82750Y-51732D01*
X82750Y-51902D01*
X82446Y-52206D01*
X82491Y-52308D01*
X82737Y-52397D01*
X82999Y-52384D01*
X83179Y-52308D01*
X83224Y-52206D01*
X83224Y-56303D01*
X81789Y-56303D01*
X81789Y-50799D01*
X81789Y-50698D01*
X81751Y-50605D01*
X81751Y-50102D01*
X81789Y-50012D01*
X81789Y-49911D01*
X81751Y-49818D01*
X81679Y-49746D01*
X81586Y-49707D01*
X81485Y-49707D01*
X81392Y-49745D01*
X81320Y-49817D01*
X81281Y-49910D01*
X81281Y-50011D01*
X81319Y-50104D01*
X81319Y-50606D01*
X81281Y-50697D01*
X81281Y-50798D01*
X81319Y-50891D01*
X81391Y-50963D01*
X81484Y-51002D01*
X81585Y-51002D01*
X81678Y-50964D01*
X81750Y-50892D01*
X81789Y-50799D01*
X81789Y-56303D01*
X80707Y-56303D01*
X80707Y-48634D01*
X80707Y-48533D01*
X80669Y-48440D01*
X80597Y-48368D01*
X80504Y-48329D01*
X80403Y-48329D01*
X80310Y-48367D01*
X80290Y-48387D01*
X80051Y-48387D01*
X80051Y-44270D01*
X80051Y-44208D01*
X80051Y-43008D01*
X80027Y-42950D01*
X79983Y-42906D01*
X79925Y-42882D01*
X79863Y-42882D01*
X78263Y-42882D01*
X78205Y-42906D01*
X78161Y-42950D01*
X78137Y-43008D01*
X78137Y-43070D01*
X78137Y-44270D01*
X78161Y-44328D01*
X78205Y-44372D01*
X78263Y-44396D01*
X78325Y-44396D01*
X79925Y-44396D01*
X79983Y-44372D01*
X80027Y-44328D01*
X80051Y-44270D01*
X80051Y-48387D01*
X78957Y-48387D01*
X78956Y-48387D01*
X78941Y-48390D01*
X78882Y-48402D01*
X78818Y-48444D01*
X78816Y-48446D01*
X78815Y-48447D01*
X78789Y-48447D01*
X78696Y-48485D01*
X78624Y-48557D01*
X78585Y-48650D01*
X78585Y-48751D01*
X78623Y-48844D01*
X78695Y-48916D01*
X78788Y-48955D01*
X78889Y-48955D01*
X78982Y-48917D01*
X79054Y-48845D01*
X79081Y-48779D01*
X80290Y-48779D01*
X80309Y-48798D01*
X80402Y-48837D01*
X80503Y-48837D01*
X80596Y-48799D01*
X80668Y-48727D01*
X80707Y-48634D01*
X80707Y-56303D01*
X80133Y-56303D01*
X80133Y-55298D01*
X80133Y-55060D01*
X80132Y-54532D01*
X80096Y-54444D01*
X80029Y-54377D01*
X79942Y-54341D01*
X79847Y-54341D01*
X79213Y-54340D01*
X79154Y-54399D01*
X79154Y-55119D01*
X80074Y-55119D01*
X80133Y-55060D01*
X80133Y-55298D01*
X80074Y-55239D01*
X79154Y-55239D01*
X79154Y-55959D01*
X79213Y-56018D01*
X79847Y-56017D01*
X79942Y-56017D01*
X80029Y-55981D01*
X80096Y-55914D01*
X80132Y-55826D01*
X80133Y-55298D01*
X80133Y-56303D01*
X79034Y-56303D01*
X79034Y-55959D01*
X79034Y-55239D01*
X79034Y-55119D01*
X79034Y-54399D01*
X78975Y-54340D01*
X78341Y-54341D01*
X78246Y-54341D01*
X78159Y-54377D01*
X78092Y-54444D01*
X78056Y-54532D01*
X78055Y-55060D01*
X78114Y-55119D01*
X79034Y-55119D01*
X79034Y-55239D01*
X78114Y-55239D01*
X78055Y-55298D01*
X78056Y-55826D01*
X78092Y-55914D01*
X78159Y-55981D01*
X78246Y-56017D01*
X78341Y-56017D01*
X78975Y-56018D01*
X79034Y-55959D01*
X79034Y-56303D01*
X77834Y-56303D01*
X77834Y-55236D01*
X77834Y-55001D01*
X77744Y-54784D01*
X77578Y-54618D01*
X77362Y-54528D01*
X77127Y-54528D01*
X76910Y-54618D01*
X76744Y-54784D01*
X76654Y-55000D01*
X76654Y-55235D01*
X76744Y-55452D01*
X76910Y-55618D01*
X77126Y-55708D01*
X77361Y-55708D01*
X77578Y-55618D01*
X77744Y-55452D01*
X77834Y-55236D01*
X77834Y-56303D01*
X76456Y-56303D01*
X76456Y-55236D01*
X76456Y-55001D01*
X76366Y-54784D01*
X76200Y-54618D01*
X76081Y-54568D01*
X76081Y-41508D01*
X76081Y-41407D01*
X76044Y-41318D01*
X76081Y-41232D01*
X76081Y-41131D01*
X76043Y-41038D01*
X75971Y-40966D01*
X75878Y-40927D01*
X75799Y-40927D01*
X75665Y-40792D01*
X75595Y-40745D01*
X75512Y-40729D01*
X73898Y-40729D01*
X73368Y-40729D01*
X73368Y-37835D01*
X73309Y-37776D01*
X72914Y-37776D01*
X72914Y-38230D01*
X72973Y-38289D01*
X73176Y-38288D01*
X73264Y-38252D01*
X73331Y-38185D01*
X73367Y-38098D01*
X73367Y-38003D01*
X73368Y-37835D01*
X73368Y-40729D01*
X73070Y-40729D01*
X72987Y-40745D01*
X72917Y-40792D01*
X72914Y-40795D01*
X72794Y-40915D01*
X72794Y-38230D01*
X72794Y-37776D01*
X72399Y-37776D01*
X72340Y-37835D01*
X72341Y-38003D01*
X72341Y-38098D01*
X72377Y-38185D01*
X72444Y-38252D01*
X72532Y-38288D01*
X72735Y-38289D01*
X72794Y-38230D01*
X72794Y-40915D01*
X72547Y-41162D01*
X71941Y-41162D01*
X71492Y-40713D01*
X71422Y-40666D01*
X71339Y-40650D01*
X69498Y-40650D01*
X69425Y-40577D01*
X69389Y-40487D01*
X69317Y-40415D01*
X69224Y-40376D01*
X69123Y-40376D01*
X69030Y-40414D01*
X68958Y-40486D01*
X68952Y-40498D01*
X68759Y-40304D01*
X68759Y-40033D01*
X68773Y-40019D01*
X69173Y-40019D01*
X69256Y-40003D01*
X69326Y-39956D01*
X69420Y-39862D01*
X70590Y-39862D01*
X70673Y-39846D01*
X70743Y-39799D01*
X71093Y-39447D01*
X71096Y-39445D01*
X71097Y-39445D01*
X71144Y-39375D01*
X71158Y-39298D01*
X71160Y-39298D01*
X71189Y-39310D01*
X71251Y-39310D01*
X71565Y-39310D01*
X71623Y-39286D01*
X71667Y-39242D01*
X71691Y-39184D01*
X71691Y-39122D01*
X71691Y-38532D01*
X71667Y-38474D01*
X71623Y-38430D01*
X71565Y-38406D01*
X71503Y-38406D01*
X71387Y-38406D01*
X71506Y-38287D01*
X71512Y-38287D01*
X71603Y-38325D01*
X71704Y-38325D01*
X71797Y-38287D01*
X71869Y-38215D01*
X71908Y-38122D01*
X71908Y-38021D01*
X71870Y-37928D01*
X71798Y-37856D01*
X71705Y-37817D01*
X71604Y-37817D01*
X71511Y-37855D01*
X71417Y-37855D01*
X71416Y-37855D01*
X71402Y-37857D01*
X71334Y-37871D01*
X71264Y-37918D01*
X71261Y-37921D01*
X70812Y-38370D01*
X70803Y-38361D01*
X70715Y-38325D01*
X70630Y-38324D01*
X70571Y-38383D01*
X70571Y-38758D01*
X70571Y-38798D01*
X70571Y-38918D01*
X70571Y-38958D01*
X70571Y-39333D01*
X70584Y-39346D01*
X70500Y-39430D01*
X70241Y-39430D01*
X70275Y-39378D01*
X70307Y-39391D01*
X70392Y-39392D01*
X70451Y-39333D01*
X70451Y-38958D01*
X70451Y-38918D01*
X70451Y-38798D01*
X70451Y-38758D01*
X70451Y-38383D01*
X70392Y-38324D01*
X70307Y-38325D01*
X70219Y-38361D01*
X70174Y-38406D01*
X69890Y-38406D01*
X69861Y-38417D01*
X69861Y-38405D01*
X69860Y-38404D01*
X69861Y-38404D01*
X69858Y-38390D01*
X69845Y-38322D01*
X69798Y-38252D01*
X69795Y-38249D01*
X69680Y-38134D01*
X69610Y-38087D01*
X69527Y-38071D01*
X69117Y-38071D01*
X69027Y-38033D01*
X68926Y-38033D01*
X68833Y-38071D01*
X68761Y-38143D01*
X68722Y-38236D01*
X68722Y-38337D01*
X68750Y-38406D01*
X68591Y-38406D01*
X68562Y-38417D01*
X68534Y-38406D01*
X68472Y-38406D01*
X68289Y-38406D01*
X68289Y-37835D01*
X68230Y-37776D01*
X67835Y-37776D01*
X67835Y-38230D01*
X67894Y-38289D01*
X68097Y-38288D01*
X68185Y-38252D01*
X68252Y-38185D01*
X68288Y-38098D01*
X68288Y-38003D01*
X68289Y-37835D01*
X68289Y-38406D01*
X68158Y-38406D01*
X68100Y-38430D01*
X68056Y-38474D01*
X68032Y-38532D01*
X68032Y-38594D01*
X68032Y-39184D01*
X68056Y-39242D01*
X68100Y-39286D01*
X68158Y-39310D01*
X68179Y-39310D01*
X68175Y-39314D01*
X68085Y-39351D01*
X68013Y-39423D01*
X67974Y-39515D01*
X67839Y-39650D01*
X67835Y-39655D01*
X67732Y-39552D01*
X67715Y-39509D01*
X67715Y-38230D01*
X67715Y-37776D01*
X67320Y-37776D01*
X67261Y-37835D01*
X67262Y-38003D01*
X67262Y-38098D01*
X67298Y-38185D01*
X67365Y-38252D01*
X67453Y-38288D01*
X67656Y-38289D01*
X67715Y-38230D01*
X67715Y-39509D01*
X67696Y-39463D01*
X67624Y-39391D01*
X67531Y-39352D01*
X67430Y-39352D01*
X67337Y-39390D01*
X67265Y-39462D01*
X67226Y-39555D01*
X67226Y-39656D01*
X67264Y-39749D01*
X67336Y-39821D01*
X67427Y-39859D01*
X67658Y-40090D01*
X67658Y-40709D01*
X67674Y-40792D01*
X67721Y-40862D01*
X67880Y-41021D01*
X67845Y-41021D01*
X67786Y-41080D01*
X67786Y-41495D01*
X68132Y-41495D01*
X68191Y-41436D01*
X68190Y-41331D01*
X68290Y-41431D01*
X68327Y-41521D01*
X68399Y-41593D01*
X68492Y-41632D01*
X68593Y-41632D01*
X68686Y-41594D01*
X68747Y-41532D01*
X68918Y-41703D01*
X68918Y-42244D01*
X68934Y-42327D01*
X68981Y-42397D01*
X69020Y-42436D01*
X69097Y-42512D01*
X69099Y-42515D01*
X69169Y-42562D01*
X69251Y-42578D01*
X69251Y-42577D01*
X69252Y-42578D01*
X69582Y-42578D01*
X69673Y-42616D01*
X69774Y-42616D01*
X69867Y-42578D01*
X69939Y-42506D01*
X69978Y-42413D01*
X69978Y-42312D01*
X69940Y-42219D01*
X69925Y-42204D01*
X69939Y-42191D01*
X69978Y-42098D01*
X69978Y-41997D01*
X69940Y-41904D01*
X69887Y-41851D01*
X69900Y-41823D01*
X69900Y-41722D01*
X69862Y-41629D01*
X69862Y-41496D01*
X69846Y-41413D01*
X69799Y-41343D01*
X69795Y-41340D01*
X69537Y-41082D01*
X71249Y-41082D01*
X71479Y-41312D01*
X71439Y-41352D01*
X71409Y-41422D01*
X71397Y-41392D01*
X71325Y-41320D01*
X71232Y-41281D01*
X71131Y-41281D01*
X71038Y-41319D01*
X70906Y-41319D01*
X70823Y-41335D01*
X70753Y-41382D01*
X70750Y-41385D01*
X70656Y-41479D01*
X70566Y-41516D01*
X70494Y-41588D01*
X70455Y-41681D01*
X70455Y-41782D01*
X70493Y-41875D01*
X70565Y-41947D01*
X70652Y-41983D01*
X70652Y-42019D01*
X70690Y-42112D01*
X70704Y-42126D01*
X70691Y-42139D01*
X70652Y-42232D01*
X70652Y-42333D01*
X70690Y-42426D01*
X70762Y-42498D01*
X70855Y-42537D01*
X70956Y-42537D01*
X71049Y-42499D01*
X71234Y-42499D01*
X71273Y-42538D01*
X71366Y-42577D01*
X71467Y-42577D01*
X71560Y-42539D01*
X71632Y-42467D01*
X71634Y-42462D01*
X71634Y-42599D01*
X71634Y-42950D01*
X71575Y-42950D01*
X71516Y-43009D01*
X71516Y-43315D01*
X71516Y-43355D01*
X71516Y-43475D01*
X71516Y-43515D01*
X71516Y-43821D01*
X71575Y-43880D01*
X71798Y-43879D01*
X71872Y-43848D01*
X71872Y-43948D01*
X71892Y-43997D01*
X71795Y-43997D01*
X71705Y-43959D01*
X71604Y-43959D01*
X71511Y-43997D01*
X71458Y-44049D01*
X71429Y-44037D01*
X71328Y-44037D01*
X71235Y-44075D01*
X71163Y-44147D01*
X71124Y-44240D01*
X71124Y-44341D01*
X71162Y-44434D01*
X71234Y-44506D01*
X71327Y-44545D01*
X71343Y-44545D01*
X71382Y-44602D01*
X71452Y-44649D01*
X71535Y-44665D01*
X71971Y-44665D01*
X71951Y-44713D01*
X71951Y-44814D01*
X71989Y-44907D01*
X72061Y-44979D01*
X72154Y-45018D01*
X72255Y-45018D01*
X72348Y-44980D01*
X72351Y-44980D01*
X72461Y-45089D01*
X72461Y-45541D01*
X71894Y-46108D01*
X71847Y-46178D01*
X71831Y-46261D01*
X71831Y-46328D01*
X71296Y-45794D01*
X71363Y-45767D01*
X71435Y-45695D01*
X71474Y-45602D01*
X71474Y-45501D01*
X71436Y-45408D01*
X71364Y-45336D01*
X71271Y-45297D01*
X71240Y-45297D01*
X71240Y-45119D01*
X71239Y-45118D01*
X71240Y-45118D01*
X71224Y-45036D01*
X71177Y-44966D01*
X71173Y-44963D01*
X70878Y-44667D01*
X70808Y-44620D01*
X70725Y-44604D01*
X70663Y-44604D01*
X71143Y-44123D01*
X71167Y-44114D01*
X71239Y-44042D01*
X71278Y-43949D01*
X71278Y-43879D01*
X71337Y-43880D01*
X71396Y-43821D01*
X71396Y-43515D01*
X71396Y-43475D01*
X71396Y-43355D01*
X71396Y-43315D01*
X71396Y-43009D01*
X71337Y-42950D01*
X71114Y-42951D01*
X71026Y-42987D01*
X70959Y-43054D01*
X70951Y-43072D01*
X70935Y-43056D01*
X70877Y-43032D01*
X70815Y-43032D01*
X70225Y-43032D01*
X70167Y-43056D01*
X70123Y-43100D01*
X70099Y-43158D01*
X70099Y-43220D01*
X70099Y-43532D01*
X70044Y-43587D01*
X69997Y-43657D01*
X69981Y-43740D01*
X69981Y-43819D01*
X69981Y-43837D01*
X69895Y-43801D01*
X69894Y-43801D01*
X69878Y-43784D01*
X69808Y-43737D01*
X69725Y-43721D01*
X69665Y-43721D01*
X69665Y-43544D01*
X69665Y-43448D01*
X69703Y-43358D01*
X69703Y-43257D01*
X69665Y-43164D01*
X69593Y-43092D01*
X69500Y-43053D01*
X69399Y-43053D01*
X69306Y-43091D01*
X69234Y-43163D01*
X69195Y-43256D01*
X69195Y-43357D01*
X69215Y-43407D01*
X69163Y-43407D01*
X69112Y-43427D01*
X69137Y-43391D01*
X69153Y-43308D01*
X69153Y-43150D01*
X69137Y-43067D01*
X69090Y-42997D01*
X69086Y-42994D01*
X68932Y-42839D01*
X68862Y-42792D01*
X68779Y-42776D01*
X68622Y-42776D01*
X68621Y-42776D01*
X68539Y-42792D01*
X68469Y-42839D01*
X68466Y-42842D01*
X68339Y-42969D01*
X68294Y-42951D01*
X68191Y-42950D01*
X68191Y-41674D01*
X68132Y-41615D01*
X67786Y-41615D01*
X67786Y-42030D01*
X67845Y-42089D01*
X67999Y-42088D01*
X68087Y-42052D01*
X68154Y-41985D01*
X68190Y-41898D01*
X68190Y-41803D01*
X68191Y-41674D01*
X68191Y-42950D01*
X68071Y-42950D01*
X68012Y-43009D01*
X68012Y-43315D01*
X68012Y-43355D01*
X68012Y-43475D01*
X68012Y-43515D01*
X68012Y-43821D01*
X68071Y-43880D01*
X68181Y-43879D01*
X68186Y-43903D01*
X68222Y-43957D01*
X67952Y-43957D01*
X67892Y-43968D01*
X67892Y-43821D01*
X67892Y-43475D01*
X67892Y-43355D01*
X67892Y-43009D01*
X67833Y-42950D01*
X67666Y-42950D01*
X67666Y-42030D01*
X67666Y-41615D01*
X67666Y-41495D01*
X67666Y-41080D01*
X67607Y-41021D01*
X67453Y-41022D01*
X67365Y-41058D01*
X67298Y-41125D01*
X67262Y-41212D01*
X67262Y-41307D01*
X67261Y-41436D01*
X67320Y-41495D01*
X67666Y-41495D01*
X67666Y-41615D01*
X67320Y-41615D01*
X67261Y-41674D01*
X67262Y-41803D01*
X67262Y-41898D01*
X67298Y-41985D01*
X67365Y-42052D01*
X67453Y-42088D01*
X67607Y-42089D01*
X67666Y-42030D01*
X67666Y-42950D01*
X67610Y-42951D01*
X67522Y-42987D01*
X67455Y-43054D01*
X67419Y-43141D01*
X67419Y-43236D01*
X67418Y-43296D01*
X67477Y-43355D01*
X67892Y-43355D01*
X67892Y-43475D01*
X67477Y-43475D01*
X67418Y-43534D01*
X67419Y-43594D01*
X67419Y-43689D01*
X67455Y-43776D01*
X67522Y-43843D01*
X67610Y-43879D01*
X67833Y-43880D01*
X67892Y-43821D01*
X67892Y-43968D01*
X67869Y-43973D01*
X67799Y-44020D01*
X67796Y-44023D01*
X67676Y-44142D01*
X67516Y-43981D01*
X67446Y-43934D01*
X67363Y-43918D01*
X66811Y-43918D01*
X66728Y-43934D01*
X66711Y-43945D01*
X66711Y-41705D01*
X66711Y-41604D01*
X66673Y-41511D01*
X66673Y-41283D01*
X66711Y-41193D01*
X66711Y-41092D01*
X66711Y-39460D01*
X66711Y-39359D01*
X66673Y-39266D01*
X66673Y-39078D01*
X66711Y-38988D01*
X66711Y-38887D01*
X66673Y-38794D01*
X66601Y-38722D01*
X66508Y-38683D01*
X66407Y-38683D01*
X66314Y-38721D01*
X66242Y-38793D01*
X66203Y-38886D01*
X66203Y-38987D01*
X66241Y-39080D01*
X66241Y-39267D01*
X66203Y-39358D01*
X66203Y-39459D01*
X66241Y-39552D01*
X66313Y-39624D01*
X66406Y-39663D01*
X66507Y-39663D01*
X66600Y-39625D01*
X66672Y-39553D01*
X66711Y-39460D01*
X66711Y-41092D01*
X66673Y-40999D01*
X66601Y-40927D01*
X66508Y-40888D01*
X66407Y-40888D01*
X66314Y-40926D01*
X66242Y-40998D01*
X66203Y-41091D01*
X66203Y-41192D01*
X66241Y-41285D01*
X66241Y-41512D01*
X66203Y-41603D01*
X66203Y-41704D01*
X66241Y-41797D01*
X66313Y-41869D01*
X66406Y-41908D01*
X66507Y-41908D01*
X66600Y-41870D01*
X66672Y-41798D01*
X66711Y-41705D01*
X66711Y-43945D01*
X66658Y-43981D01*
X66088Y-44550D01*
X65999Y-44587D01*
X65927Y-44659D01*
X65888Y-44752D01*
X65888Y-44853D01*
X65926Y-44946D01*
X65998Y-45018D01*
X66091Y-45057D01*
X66192Y-45057D01*
X66285Y-45019D01*
X66357Y-44947D01*
X66395Y-44855D01*
X66396Y-44854D01*
X66568Y-44683D01*
X66628Y-44743D01*
X66721Y-44782D01*
X66822Y-44782D01*
X66915Y-44744D01*
X66987Y-44672D01*
X67006Y-44625D01*
X67187Y-44625D01*
X67187Y-44696D01*
X67225Y-44789D01*
X67225Y-45685D01*
X67187Y-45776D01*
X67187Y-45877D01*
X67207Y-45927D01*
X67194Y-45927D01*
X67101Y-45965D01*
X67029Y-46037D01*
X66990Y-46130D01*
X66990Y-46231D01*
X67028Y-46324D01*
X67100Y-46396D01*
X67187Y-46432D01*
X67187Y-46467D01*
X67225Y-46560D01*
X67297Y-46632D01*
X67384Y-46668D01*
X67384Y-46704D01*
X67422Y-46797D01*
X67494Y-46869D01*
X67587Y-46908D01*
X67620Y-46908D01*
X67620Y-46940D01*
X67658Y-47033D01*
X67730Y-47105D01*
X67777Y-47124D01*
X67777Y-47176D01*
X67815Y-47269D01*
X67887Y-47341D01*
X67980Y-47380D01*
X68081Y-47380D01*
X68174Y-47342D01*
X68208Y-47307D01*
X68209Y-47308D01*
X68281Y-47380D01*
X68374Y-47419D01*
X68475Y-47419D01*
X68568Y-47381D01*
X68640Y-47309D01*
X68678Y-47217D01*
X68679Y-47216D01*
X69165Y-46729D01*
X69168Y-46727D01*
X69169Y-46727D01*
X69216Y-46657D01*
X69232Y-46575D01*
X69231Y-46574D01*
X69232Y-46574D01*
X69232Y-46505D01*
X69589Y-46862D01*
X69627Y-46954D01*
X69699Y-47026D01*
X69792Y-47065D01*
X69845Y-47065D01*
X69825Y-47114D01*
X69825Y-47215D01*
X69863Y-47308D01*
X69923Y-47368D01*
X69690Y-47602D01*
X69643Y-47672D01*
X69627Y-47755D01*
X69627Y-48859D01*
X69643Y-48942D01*
X69690Y-49012D01*
X70199Y-49521D01*
X70133Y-49548D01*
X70061Y-49620D01*
X70022Y-49713D01*
X70022Y-49814D01*
X70060Y-49907D01*
X70110Y-49957D01*
X70123Y-49976D01*
X70516Y-50369D01*
X70553Y-50459D01*
X70625Y-50531D01*
X70718Y-50570D01*
X70819Y-50570D01*
X70912Y-50532D01*
X70984Y-50460D01*
X71023Y-50367D01*
X71023Y-50266D01*
X70985Y-50173D01*
X70913Y-50101D01*
X70821Y-50062D01*
X70541Y-49782D01*
X70562Y-49782D01*
X70655Y-49744D01*
X70727Y-49672D01*
X70766Y-49579D01*
X70766Y-49525D01*
X70812Y-49507D01*
X70884Y-49435D01*
X70923Y-49342D01*
X70923Y-49241D01*
X70885Y-49148D01*
X70851Y-49114D01*
X71170Y-49114D01*
X71242Y-49186D01*
X71280Y-49277D01*
X71352Y-49349D01*
X71445Y-49388D01*
X71546Y-49388D01*
X71639Y-49350D01*
X71711Y-49278D01*
X71750Y-49185D01*
X71750Y-49084D01*
X71712Y-48991D01*
X71640Y-48919D01*
X71547Y-48880D01*
X71423Y-48755D01*
X71413Y-48745D01*
X71343Y-48698D01*
X71260Y-48682D01*
X70721Y-48682D01*
X70610Y-48571D01*
X70610Y-47963D01*
X70976Y-47596D01*
X70979Y-47594D01*
X70980Y-47594D01*
X71027Y-47524D01*
X71043Y-47441D01*
X71043Y-46505D01*
X71203Y-46665D01*
X71241Y-46757D01*
X71313Y-46829D01*
X71406Y-46868D01*
X71507Y-46868D01*
X71518Y-46863D01*
X71518Y-46900D01*
X71556Y-46993D01*
X71570Y-47007D01*
X71517Y-47061D01*
X71480Y-47148D01*
X71446Y-47148D01*
X71353Y-47186D01*
X71281Y-47258D01*
X71242Y-47351D01*
X71242Y-47452D01*
X71277Y-47537D01*
X71242Y-47573D01*
X71203Y-47666D01*
X71203Y-47767D01*
X71241Y-47860D01*
X71275Y-47894D01*
X71242Y-47927D01*
X71203Y-48020D01*
X71203Y-48121D01*
X71241Y-48214D01*
X71313Y-48286D01*
X71406Y-48325D01*
X71507Y-48325D01*
X71600Y-48287D01*
X72559Y-48287D01*
X72642Y-48271D01*
X72712Y-48224D01*
X73180Y-47754D01*
X73183Y-47752D01*
X73184Y-47752D01*
X73231Y-47682D01*
X73247Y-47599D01*
X73247Y-46547D01*
X73602Y-46191D01*
X73605Y-46189D01*
X73606Y-46189D01*
X73653Y-46119D01*
X73669Y-46037D01*
X73668Y-46036D01*
X73669Y-46036D01*
X73669Y-45236D01*
X73669Y-44961D01*
X73669Y-44708D01*
X73668Y-44707D01*
X73669Y-44707D01*
X73666Y-44693D01*
X73653Y-44625D01*
X73606Y-44555D01*
X73602Y-44552D01*
X73208Y-44157D01*
X73208Y-43937D01*
X73192Y-43854D01*
X73145Y-43784D01*
X72696Y-43335D01*
X72696Y-43228D01*
X72680Y-43145D01*
X72633Y-43075D01*
X72539Y-42981D01*
X72539Y-42913D01*
X72539Y-42638D01*
X72539Y-42480D01*
X72538Y-42479D01*
X72539Y-42479D01*
X72536Y-42465D01*
X72523Y-42397D01*
X72486Y-42342D01*
X72666Y-42342D01*
X72935Y-42611D01*
X72973Y-42702D01*
X73045Y-42774D01*
X73138Y-42813D01*
X73239Y-42813D01*
X73332Y-42775D01*
X73404Y-42703D01*
X73443Y-42610D01*
X73443Y-42509D01*
X73405Y-42416D01*
X73333Y-42344D01*
X73240Y-42305D01*
X73001Y-42066D01*
X73098Y-42066D01*
X73154Y-42122D01*
X73224Y-42169D01*
X73307Y-42185D01*
X73913Y-42185D01*
X74004Y-42223D01*
X74105Y-42223D01*
X74198Y-42185D01*
X74270Y-42113D01*
X74309Y-42020D01*
X74309Y-41919D01*
X74271Y-41826D01*
X74199Y-41754D01*
X74106Y-41715D01*
X74005Y-41715D01*
X73912Y-41753D01*
X73475Y-41753D01*
X73578Y-41650D01*
X73578Y-41649D01*
X73580Y-41646D01*
X73868Y-41358D01*
X75097Y-41358D01*
X75061Y-41445D01*
X75061Y-41546D01*
X75099Y-41639D01*
X75099Y-41937D01*
X74434Y-42601D01*
X74345Y-42638D01*
X73740Y-42638D01*
X73657Y-42654D01*
X73587Y-42701D01*
X73174Y-43113D01*
X73085Y-43150D01*
X73013Y-43222D01*
X72974Y-43315D01*
X72974Y-43416D01*
X73012Y-43509D01*
X73084Y-43581D01*
X73177Y-43620D01*
X73278Y-43620D01*
X73371Y-43582D01*
X73443Y-43510D01*
X73481Y-43418D01*
X73482Y-43417D01*
X73830Y-43070D01*
X74346Y-43070D01*
X74437Y-43108D01*
X74538Y-43108D01*
X74631Y-43070D01*
X74703Y-42998D01*
X74741Y-42906D01*
X74742Y-42905D01*
X75464Y-42182D01*
X75467Y-42180D01*
X75468Y-42180D01*
X75515Y-42110D01*
X75531Y-42027D01*
X75531Y-41637D01*
X75558Y-41572D01*
X75592Y-41606D01*
X75595Y-41610D01*
X75665Y-41657D01*
X75668Y-41657D01*
X75683Y-41672D01*
X75776Y-41711D01*
X75877Y-41711D01*
X75970Y-41673D01*
X76042Y-41601D01*
X76081Y-41508D01*
X76081Y-54568D01*
X75984Y-54528D01*
X75980Y-54528D01*
X75980Y-50009D01*
X75966Y-49763D01*
X75898Y-49600D01*
X75799Y-49561D01*
X75714Y-49646D01*
X75714Y-49476D01*
X75675Y-49377D01*
X75442Y-49295D01*
X75196Y-49309D01*
X75175Y-49317D01*
X75175Y-44854D01*
X75175Y-44753D01*
X75137Y-44660D01*
X75065Y-44588D01*
X74972Y-44549D01*
X74583Y-44159D01*
X74547Y-44070D01*
X74475Y-43998D01*
X74382Y-43959D01*
X74281Y-43959D01*
X74188Y-43997D01*
X74116Y-44069D01*
X74077Y-44162D01*
X74077Y-44263D01*
X74115Y-44356D01*
X74187Y-44428D01*
X74278Y-44466D01*
X74280Y-44467D01*
X74667Y-44854D01*
X74705Y-44946D01*
X74777Y-45018D01*
X74870Y-45057D01*
X74971Y-45057D01*
X75064Y-45019D01*
X75136Y-44947D01*
X75175Y-44854D01*
X75175Y-49317D01*
X75033Y-49377D01*
X74994Y-49476D01*
X75354Y-49836D01*
X75714Y-49476D01*
X75714Y-49646D01*
X75439Y-49921D01*
X75799Y-50281D01*
X75898Y-50242D01*
X75980Y-50009D01*
X75980Y-54528D01*
X75903Y-54528D01*
X75903Y-51999D01*
X75903Y-51781D01*
X75819Y-51579D01*
X75714Y-51474D01*
X75714Y-50366D01*
X75354Y-50006D01*
X75269Y-50091D01*
X75269Y-49921D01*
X74909Y-49561D01*
X74810Y-49600D01*
X74728Y-49833D01*
X74742Y-50079D01*
X74810Y-50242D01*
X74909Y-50281D01*
X75269Y-49921D01*
X75269Y-50091D01*
X74994Y-50366D01*
X75033Y-50465D01*
X75266Y-50547D01*
X75512Y-50533D01*
X75675Y-50465D01*
X75714Y-50366D01*
X75714Y-51474D01*
X75665Y-51425D01*
X75463Y-51341D01*
X75245Y-51341D01*
X75043Y-51425D01*
X74889Y-51579D01*
X74805Y-51781D01*
X74805Y-51999D01*
X74889Y-52201D01*
X75043Y-52355D01*
X75245Y-52439D01*
X75463Y-52439D01*
X75665Y-52355D01*
X75819Y-52201D01*
X75903Y-51999D01*
X75903Y-54528D01*
X75749Y-54528D01*
X75532Y-54618D01*
X75366Y-54784D01*
X75276Y-55000D01*
X75276Y-55235D01*
X75366Y-55452D01*
X75532Y-55618D01*
X75748Y-55708D01*
X75983Y-55708D01*
X76200Y-55618D01*
X76366Y-55452D01*
X76456Y-55236D01*
X76456Y-56303D01*
X73561Y-56303D01*
X73561Y-51114D01*
X73561Y-51013D01*
X73523Y-50920D01*
X73451Y-50848D01*
X73359Y-50809D01*
X73165Y-50615D01*
X73129Y-50526D01*
X73057Y-50454D01*
X72964Y-50415D01*
X72863Y-50415D01*
X72770Y-50453D01*
X72698Y-50525D01*
X72659Y-50618D01*
X72659Y-50655D01*
X72574Y-50690D01*
X72502Y-50762D01*
X72465Y-50850D01*
X72377Y-50886D01*
X72305Y-50958D01*
X72266Y-51051D01*
X72266Y-51152D01*
X72304Y-51245D01*
X72376Y-51317D01*
X72466Y-51354D01*
X72620Y-51509D01*
X72658Y-51600D01*
X72730Y-51672D01*
X72823Y-51711D01*
X72924Y-51711D01*
X73017Y-51673D01*
X73089Y-51601D01*
X73126Y-51511D01*
X73214Y-51476D01*
X73286Y-51404D01*
X73322Y-51317D01*
X73357Y-51317D01*
X73450Y-51279D01*
X73522Y-51207D01*
X73561Y-51114D01*
X73561Y-56303D01*
X72774Y-56303D01*
X72774Y-53634D01*
X72774Y-53533D01*
X72736Y-53440D01*
X72664Y-53368D01*
X72571Y-53329D01*
X72470Y-53329D01*
X72377Y-53367D01*
X71913Y-53367D01*
X71823Y-53329D01*
X71722Y-53329D01*
X71629Y-53367D01*
X71557Y-53439D01*
X71518Y-53532D01*
X71518Y-53633D01*
X71556Y-53726D01*
X71628Y-53798D01*
X71721Y-53837D01*
X71822Y-53837D01*
X71915Y-53799D01*
X72378Y-53799D01*
X72469Y-53837D01*
X72570Y-53837D01*
X72663Y-53799D01*
X72735Y-53727D01*
X72774Y-53634D01*
X72774Y-56303D01*
X67321Y-56303D01*
X67321Y-50645D01*
X67321Y-50489D01*
X67321Y-48723D01*
X67321Y-48567D01*
X67261Y-48423D01*
X67151Y-48313D01*
X67007Y-48253D01*
X66851Y-48253D01*
X66707Y-48313D01*
X66597Y-48423D01*
X66537Y-48567D01*
X66537Y-48723D01*
X66597Y-48867D01*
X66707Y-48977D01*
X66851Y-49037D01*
X67007Y-49037D01*
X67151Y-48977D01*
X67261Y-48867D01*
X67321Y-48723D01*
X67321Y-50489D01*
X67261Y-50345D01*
X67151Y-50235D01*
X67007Y-50175D01*
X66851Y-50175D01*
X66707Y-50235D01*
X66597Y-50345D01*
X66537Y-50489D01*
X66537Y-50645D01*
X66597Y-50789D01*
X66707Y-50899D01*
X66851Y-50959D01*
X67007Y-50959D01*
X67151Y-50899D01*
X67261Y-50789D01*
X67321Y-50645D01*
X67321Y-56303D01*
X67203Y-56303D01*
X67249Y-56257D01*
X67285Y-56169D01*
X67286Y-56005D01*
X67286Y-55767D01*
X67286Y-52737D01*
X67286Y-52499D01*
X67285Y-52335D01*
X67249Y-52247D01*
X67182Y-52180D01*
X67095Y-52144D01*
X67000Y-52144D01*
X66182Y-52143D01*
X66123Y-52202D01*
X66123Y-52558D01*
X67227Y-52558D01*
X67286Y-52499D01*
X67286Y-52737D01*
X67227Y-52678D01*
X66123Y-52678D01*
X66123Y-53034D01*
X66182Y-53093D01*
X67000Y-53092D01*
X67095Y-53092D01*
X67182Y-53056D01*
X67249Y-52989D01*
X67285Y-52901D01*
X67286Y-52737D01*
X67286Y-55767D01*
X67285Y-55603D01*
X67249Y-55515D01*
X67182Y-55448D01*
X67095Y-55412D01*
X67000Y-55412D01*
X66182Y-55411D01*
X66123Y-55470D01*
X66123Y-55826D01*
X67227Y-55826D01*
X67286Y-55767D01*
X67286Y-56005D01*
X67227Y-55946D01*
X66163Y-55946D01*
X66123Y-55946D01*
X66003Y-55946D01*
X66003Y-55826D01*
X66003Y-55786D01*
X66003Y-55470D01*
X65944Y-55411D01*
X65193Y-55411D01*
X65193Y-53092D01*
X65944Y-53093D01*
X66003Y-53034D01*
X66003Y-52718D01*
X66003Y-52678D01*
X66003Y-52558D01*
X66003Y-52518D01*
X66003Y-52202D01*
X65944Y-52143D01*
X65193Y-52143D01*
X65193Y-37476D01*
X67261Y-37476D01*
X67261Y-37597D01*
X67320Y-37656D01*
X67675Y-37656D01*
X67715Y-37656D01*
X67835Y-37656D01*
X67875Y-37656D01*
X68230Y-37656D01*
X68289Y-37597D01*
X68288Y-37476D01*
X72340Y-37476D01*
X72340Y-37597D01*
X72399Y-37656D01*
X72754Y-37656D01*
X72794Y-37656D01*
X72914Y-37656D01*
X72954Y-37656D01*
X73309Y-37656D01*
X73368Y-37597D01*
X73367Y-37476D01*
X84020Y-37476D01*
X84020Y-40360D01*
X83936Y-40377D01*
X83887Y-40398D01*
X83851Y-40413D01*
X83821Y-40433D01*
X83386Y-40433D01*
X83386Y-40904D01*
X83370Y-40944D01*
X83330Y-41139D01*
X83319Y-41163D01*
X83315Y-41210D01*
X83315Y-41215D01*
X83315Y-41222D01*
X83313Y-41254D01*
X83315Y-41272D01*
X83316Y-41305D01*
X83322Y-41321D01*
X83352Y-41527D01*
X83382Y-41613D01*
X83386Y-41619D01*
X83386Y-42086D01*
X83806Y-42086D01*
X83808Y-42086D01*
X83860Y-42112D01*
X83887Y-42125D01*
X83888Y-42125D01*
X84020Y-42158D01*
X84020Y-56303D01*
M02*
