G04 (created by PCBNEW-RS274X (2012-01-19 BZR 3256)-stable) date Mon 27 Feb 2012 04:05:37 GMT*
G01*
G70*
G90*
%MOIN*%
G04 Gerber Fmt 3.4, Leading zero omitted, Abs format*
%FSLAX34Y34*%
G04 APERTURE LIST*
%ADD10C,0.006000*%
%ADD11C,0.015000*%
G04 APERTURE END LIST*
G54D10*
G54D11*
X64961Y-56535D02*
X64961Y-56496D01*
X84252Y-56535D02*
X64961Y-56535D01*
X84252Y-41969D02*
X84252Y-56535D01*
X84252Y-37244D02*
X84252Y-40551D01*
X83544Y-41222D02*
X83543Y-41283D01*
X83548Y-41345D01*
X83558Y-41406D01*
X83573Y-41466D01*
X83594Y-41524D01*
X83619Y-41581D01*
X83650Y-41635D01*
X83685Y-41686D01*
X83724Y-41734D01*
X83767Y-41778D01*
X83814Y-41818D01*
X83865Y-41854D01*
X83918Y-41886D01*
X83974Y-41913D01*
X84032Y-41934D01*
X84092Y-41951D01*
X84152Y-41962D01*
X84214Y-41968D01*
X84252Y-40551D02*
X84191Y-40554D01*
X84129Y-40562D01*
X84069Y-40576D01*
X84010Y-40594D01*
X83953Y-40618D01*
X83898Y-40646D01*
X83846Y-40680D01*
X83797Y-40717D01*
X83751Y-40759D01*
X83709Y-40805D01*
X83672Y-40854D01*
X83638Y-40906D01*
X83610Y-40961D01*
X83586Y-41018D01*
X83568Y-41077D01*
X83554Y-41137D01*
X83546Y-41199D01*
X83543Y-41260D01*
X64961Y-37244D02*
X84252Y-37244D01*
X64961Y-37244D02*
X64961Y-56535D01*
M02*
